M48
;GenerationSoftware,Autodesk,EAGLE,9.4.2*%
;CreationDate,2019-08-25T22:38:14Z*%
FMAT,2
ICI,OFF
METRIC,TZ,000.000
T5C0.305
T4C0.813
T3C0.900
T2C1.016
T1C10.000
%
G90
M71
T1
X54610Y43180
T2
X57150Y60325
X57150Y57785
X60960Y62865
X60960Y60325
X60960Y57785
X2540Y64770
X2540Y62230
X2540Y59690
X2540Y57150
X57150Y62865
T3
X95615Y67165
X93615Y65165
X95615Y65165
X93615Y63165
X95615Y63165
X93615Y61165
X95615Y61165
X93615Y59165
X95615Y59165
X93615Y57165
X95615Y57165
X93615Y55165
X95615Y55165
X93615Y53165
X95615Y53165
X93615Y51165
X93615Y67165
X93615Y49165
X95615Y49165
X93615Y47165
X95615Y47165
X93615Y45165
X95615Y45165
X93615Y43165
X95615Y43165
X93615Y41165
X95615Y41165
X93615Y39165
X95615Y39165
X93615Y37165
X95615Y37165
X93615Y35165
X95615Y35165
X93615Y33165
X95615Y33165
X93615Y31165
X95615Y31165
X93615Y29165
X95615Y29165
X95615Y69165
X93615Y69165
X95615Y71165
X93615Y71165
X95615Y51165
T4
X81280Y36830
X66040Y5715
X86360Y36830
X81280Y52070
X86360Y52070
X29210Y32067
X24130Y32067
X19685Y67310
X24765Y67310
X45720Y14605
X45720Y9525
X55880Y19050
X50800Y19050
X73660Y28575
X47625Y53340
X47625Y66040
X50165Y74930
X47625Y74930
X71755Y69850
X84455Y69850
X84455Y73025
X71755Y73025
X71755Y76200
X84455Y76200
X56515Y73025
X69215Y73025
X56515Y69850
X69215Y69850
X50800Y53340
X50800Y66040
X44450Y53340
X44450Y66040
X7620Y1905
X10160Y1905
X12700Y1905
X15240Y1905
X17780Y1905
X20320Y1905
X22860Y1905
X25400Y1905
X27940Y1905
X30480Y1905
X33020Y1905
X35560Y1905
X7620Y24765
X10160Y24765
X12700Y24765
X24130Y37465
X24130Y40005
X26670Y37465
X26670Y40005
X29210Y37465
X29210Y40005
X31750Y37465
X31750Y40005
X34290Y37465
X36830Y40005
X34290Y40005
X36830Y42545
X34290Y42545
X36830Y45085
X34290Y45085
X36830Y47625
X34290Y47625
X36830Y50165
X34290Y50165
X36830Y52705
X34290Y52705
X36830Y55245
X34290Y55245
X36830Y57785
X34290Y57785
X36830Y60325
X34290Y62865
X34290Y60325
X31750Y62865
X31750Y60325
X29210Y62865
X29210Y60325
X26670Y62865
X26670Y60325
X24130Y62865
X24130Y60325
X21590Y62865
X21590Y60325
X19050Y62865
X19050Y60325
X16510Y62865
X16510Y60325
X13970Y62865
X11430Y60325
X13970Y60325
X11430Y57785
X13970Y57785
X11430Y55245
X13970Y55245
X11430Y52705
X13970Y52705
X11430Y50165
X13970Y50165
X11430Y47625
X13970Y47625
X11430Y45085
X13970Y45085
X11430Y42545
X13970Y42545
X11430Y40005
X13970Y37465
X13970Y40005
X16510Y37465
X16510Y40005
X19050Y37465
X19050Y40005
X21590Y37465
X21590Y40005
X86360Y62865
X83820Y62865
X71120Y62865
X71120Y55245
X81280Y62865
X78740Y62865
X73660Y62865
X76200Y62865
X73660Y55245
X76200Y55245
X78740Y55245
X81280Y55245
X83820Y55245
X86360Y55245
X86360Y47625
X83820Y47625
X71120Y47625
X68580Y47625
X81280Y47625
X78740Y47625
X73660Y47625
X76200Y47625
X66040Y47625
X63500Y47625
X63500Y40005
X66040Y40005
X68580Y40005
X71120Y40005
X73660Y40005
X76200Y40005
X78740Y40005
X81280Y40005
X83820Y40005
X86360Y40005
X83820Y28575
X81280Y28575
X78740Y28575
X76200Y28575
X15240Y24765
X71120Y28575
X68580Y28575
X66040Y28575
X63500Y28575
X60960Y28575
X58420Y28575
X55880Y28575
X53340Y28575
X50800Y28575
X48260Y28575
X45720Y28575
X43180Y28575
X40640Y28575
X38100Y28575
X5080Y28575
X5080Y5715
X38100Y5715
X40640Y5715
X43180Y5715
X45720Y5715
X48260Y5715
X50800Y5715
X53340Y5715
X55880Y5715
X58420Y5715
X60960Y5715
X63500Y5715
X17780Y24765
X68580Y5715
X71120Y5715
X73660Y5715
X76200Y5715
X78740Y5715
X81280Y5715
X83820Y5715
X35560Y28575
X33020Y28575
X30480Y28575
X27940Y28575
X25400Y28575
X22860Y28575
X20320Y28575
X17780Y28575
X15240Y28575
X12700Y28575
X10160Y28575
X7620Y28575
X35560Y5715
X33020Y5715
X30480Y5715
X27940Y5715
X25400Y5715
X22860Y5715
X20320Y5715
X17780Y5715
X15240Y5715
X12700Y5715
X10160Y5715
X7620Y5715
X20320Y24765
X22860Y24765
X25400Y24765
X27940Y24765
X30480Y24765
X33020Y24765
X35560Y24765
X83820Y1905
X81280Y1905
X78740Y1905
X76200Y1905
X73660Y1905
X71120Y1905
X68580Y1905
X66040Y1905
X63500Y1905
X60960Y1905
X58420Y1905
X55880Y1905
X53340Y1905
X50800Y1905
X48260Y1905
X45720Y1905
X43180Y1905
X40640Y1905
X38100Y1905
X5080Y1905
X5080Y24765
X38100Y24765
X40640Y24765
X43180Y24765
X45720Y24765
X48260Y24765
X50800Y24765
X53340Y24765
X55880Y24765
X58420Y24765
X60960Y24765
X63500Y24765
X66040Y24765
X68580Y24765
X71120Y24765
X73660Y24765
X76200Y24765
X78740Y24765
X81280Y24765
X83820Y24765
T5
X77819Y52006
X77915Y42196
X72390Y51054
X72390Y30099
X92488Y50292
X35909Y41720
X83820Y35909
X37814Y55816
X96583Y54197
X79724Y37529
X79915Y26384
X44767Y45053
X44767Y20003
X79534Y19622
X46863Y40958
X46863Y7906
X77153Y27051
X41529Y13621
X73628Y13621
X91345Y23050
X73628Y23050
X36481Y4191
X90678Y22384
X71152Y22384
X39053Y11144
X68485Y11144
X90011Y21717
X68485Y21717
X67628Y34862
X33909Y12954
X63436Y12954
X89344Y21050
X63436Y21050
X31432Y8954
X88582Y20288
X61055Y20288
X29527Y10478
X58388Y10478
X82677Y45148
X82677Y10478
X17431Y30289
X64389Y54292
X71057Y38291
X65151Y59245
X41720Y30956
X43529Y57150
X44101Y27051
X10573Y64960
X33147Y55340
X33242Y59722
X7620Y49625
X44482Y62484
X31813Y66008
X47625Y57721
X47625Y63817
X4382Y33338
X84582Y33242
X82201Y67342
X81248Y68866
X77153Y51054
X96583Y72962
X69533Y66294
X94583Y76200
X91059Y41529
X82868Y3429
X28861Y3429
X85249Y31623
X49911Y30289
X27622Y30289
X47530Y32575
X80391Y32575
X47530Y39053
X70199Y34290
X70199Y46101
X42386Y36576
X19050Y49244
X19431Y8573
X71723Y33909
X37148Y35909
X76200Y44196
X73057Y52673
X62865Y55150
X32671Y48387
X35052Y38386
X32194Y23241
X66961Y23241
X40005Y55435
X48958Y59055
X32099Y35243
X13525Y7906
X14192Y7239
X25051Y42482
X22479Y41624
X14573Y43625
X11049Y7239
X10763Y46672
X9239Y49244
X6001Y48577
X9906Y70771
X92392Y70771
X48292Y58388
M30