G04 EAGLE Gerber RS-274X export*
G75*
%MOMM*%
%FSLAX34Y34*%
%LPD*%
%INBottom layer*%
%IPPOS*%
%AMOC8*
5,1,8,0,0,1.08239X$1,22.5*%
G01*
%ADD10C,0.000000*%
%ADD11C,1.219200*%
%ADD12P,1.319650X8X202.500000*%
%ADD13C,1.219200*%
%ADD14C,1.524000*%
%ADD15C,1.350000*%
%ADD16P,1.319650X8X292.500000*%
%ADD17P,1.319650X8X22.500000*%
%ADD18P,1.319650X8X112.500000*%
%ADD19C,0.203200*%
%ADD20C,0.609600*%


D10*
X0Y0D02*
X857300Y0D01*
X857300Y139750D01*
X987300Y269850D01*
X987300Y782850D01*
X473000Y782850D01*
X423800Y733650D01*
X0Y733650D01*
X0Y0D01*
X496100Y431800D02*
X496115Y433027D01*
X496160Y434253D01*
X496235Y435478D01*
X496341Y436701D01*
X496476Y437921D01*
X496641Y439137D01*
X496836Y440348D01*
X497061Y441555D01*
X497315Y442755D01*
X497598Y443949D01*
X497911Y445136D01*
X498253Y446314D01*
X498624Y447484D01*
X499023Y448644D01*
X499450Y449795D01*
X499906Y450934D01*
X500390Y452062D01*
X500901Y453178D01*
X501439Y454281D01*
X502004Y455370D01*
X502596Y456445D01*
X503214Y457505D01*
X503857Y458550D01*
X504527Y459579D01*
X505221Y460590D01*
X505940Y461585D01*
X506683Y462562D01*
X507449Y463520D01*
X508240Y464459D01*
X509052Y465378D01*
X509888Y466277D01*
X510745Y467155D01*
X511623Y468012D01*
X512522Y468848D01*
X513441Y469660D01*
X514380Y470451D01*
X515338Y471217D01*
X516315Y471960D01*
X517310Y472679D01*
X518321Y473373D01*
X519350Y474043D01*
X520395Y474686D01*
X521455Y475304D01*
X522530Y475896D01*
X523619Y476461D01*
X524722Y476999D01*
X525838Y477510D01*
X526966Y477994D01*
X528105Y478450D01*
X529256Y478877D01*
X530416Y479276D01*
X531586Y479647D01*
X532764Y479989D01*
X533951Y480302D01*
X535145Y480585D01*
X536345Y480839D01*
X537552Y481064D01*
X538763Y481259D01*
X539979Y481424D01*
X541199Y481559D01*
X542422Y481665D01*
X543647Y481740D01*
X544873Y481785D01*
X546100Y481800D01*
X547327Y481785D01*
X548553Y481740D01*
X549778Y481665D01*
X551001Y481559D01*
X552221Y481424D01*
X553437Y481259D01*
X554648Y481064D01*
X555855Y480839D01*
X557055Y480585D01*
X558249Y480302D01*
X559436Y479989D01*
X560614Y479647D01*
X561784Y479276D01*
X562944Y478877D01*
X564095Y478450D01*
X565234Y477994D01*
X566362Y477510D01*
X567478Y476999D01*
X568581Y476461D01*
X569670Y475896D01*
X570745Y475304D01*
X571805Y474686D01*
X572850Y474043D01*
X573879Y473373D01*
X574890Y472679D01*
X575885Y471960D01*
X576862Y471217D01*
X577820Y470451D01*
X578759Y469660D01*
X579678Y468848D01*
X580577Y468012D01*
X581455Y467155D01*
X582312Y466277D01*
X583148Y465378D01*
X583960Y464459D01*
X584751Y463520D01*
X585517Y462562D01*
X586260Y461585D01*
X586979Y460590D01*
X587673Y459579D01*
X588343Y458550D01*
X588986Y457505D01*
X589604Y456445D01*
X590196Y455370D01*
X590761Y454281D01*
X591299Y453178D01*
X591810Y452062D01*
X592294Y450934D01*
X592750Y449795D01*
X593177Y448644D01*
X593576Y447484D01*
X593947Y446314D01*
X594289Y445136D01*
X594602Y443949D01*
X594885Y442755D01*
X595139Y441555D01*
X595364Y440348D01*
X595559Y439137D01*
X595724Y437921D01*
X595859Y436701D01*
X595965Y435478D01*
X596040Y434253D01*
X596085Y433027D01*
X596100Y431800D01*
X596085Y430573D01*
X596040Y429347D01*
X595965Y428122D01*
X595859Y426899D01*
X595724Y425679D01*
X595559Y424463D01*
X595364Y423252D01*
X595139Y422045D01*
X594885Y420845D01*
X594602Y419651D01*
X594289Y418464D01*
X593947Y417286D01*
X593576Y416116D01*
X593177Y414956D01*
X592750Y413805D01*
X592294Y412666D01*
X591810Y411538D01*
X591299Y410422D01*
X590761Y409319D01*
X590196Y408230D01*
X589604Y407155D01*
X588986Y406095D01*
X588343Y405050D01*
X587673Y404021D01*
X586979Y403010D01*
X586260Y402015D01*
X585517Y401038D01*
X584751Y400080D01*
X583960Y399141D01*
X583148Y398222D01*
X582312Y397323D01*
X581455Y396445D01*
X580577Y395588D01*
X579678Y394752D01*
X578759Y393940D01*
X577820Y393149D01*
X576862Y392383D01*
X575885Y391640D01*
X574890Y390921D01*
X573879Y390227D01*
X572850Y389557D01*
X571805Y388914D01*
X570745Y388296D01*
X569670Y387704D01*
X568581Y387139D01*
X567478Y386601D01*
X566362Y386090D01*
X565234Y385606D01*
X564095Y385150D01*
X562944Y384723D01*
X561784Y384324D01*
X560614Y383953D01*
X559436Y383611D01*
X558249Y383298D01*
X557055Y383015D01*
X555855Y382761D01*
X554648Y382536D01*
X553437Y382341D01*
X552221Y382176D01*
X551001Y382041D01*
X549778Y381935D01*
X548553Y381860D01*
X547327Y381815D01*
X546100Y381800D01*
X544873Y381815D01*
X543647Y381860D01*
X542422Y381935D01*
X541199Y382041D01*
X539979Y382176D01*
X538763Y382341D01*
X537552Y382536D01*
X536345Y382761D01*
X535145Y383015D01*
X533951Y383298D01*
X532764Y383611D01*
X531586Y383953D01*
X530416Y384324D01*
X529256Y384723D01*
X528105Y385150D01*
X526966Y385606D01*
X525838Y386090D01*
X524722Y386601D01*
X523619Y387139D01*
X522530Y387704D01*
X521455Y388296D01*
X520395Y388914D01*
X519350Y389557D01*
X518321Y390227D01*
X517310Y390921D01*
X516315Y391640D01*
X515338Y392383D01*
X514380Y393149D01*
X513441Y393940D01*
X512522Y394752D01*
X511623Y395588D01*
X510745Y396445D01*
X509888Y397323D01*
X509052Y398222D01*
X508240Y399141D01*
X507449Y400080D01*
X506683Y401038D01*
X505940Y402015D01*
X505221Y403010D01*
X504527Y404021D01*
X503857Y405050D01*
X503214Y406095D01*
X502596Y407155D01*
X502004Y408230D01*
X501439Y409319D01*
X500901Y410422D01*
X500390Y411538D01*
X499906Y412666D01*
X499450Y413805D01*
X499023Y414956D01*
X498624Y416116D01*
X498253Y417286D01*
X497911Y418464D01*
X497598Y419651D01*
X497315Y420845D01*
X497061Y422045D01*
X496836Y423252D01*
X496641Y424463D01*
X496476Y425679D01*
X496341Y426899D01*
X496235Y428122D01*
X496160Y429347D01*
X496115Y430573D01*
X496100Y431800D01*
D11*
X241300Y374650D03*
D12*
X241300Y400050D03*
X266700Y374650D03*
X266700Y400050D03*
X292100Y374650D03*
X292100Y400050D03*
X317500Y374650D03*
X317500Y400050D03*
X342900Y374650D03*
X368300Y400050D03*
X342900Y400050D03*
X368300Y425450D03*
X342900Y425450D03*
X368300Y450850D03*
X342900Y450850D03*
X368300Y476250D03*
X342900Y476250D03*
X368300Y501650D03*
X342900Y501650D03*
X368300Y527050D03*
X342900Y527050D03*
X368300Y552450D03*
X342900Y552450D03*
X368300Y577850D03*
X342900Y577850D03*
X368300Y603250D03*
X342900Y628650D03*
X342900Y603250D03*
X317500Y628650D03*
X317500Y603250D03*
X292100Y628650D03*
X292100Y603250D03*
X266700Y628650D03*
X266700Y603250D03*
X241300Y628650D03*
X241300Y603250D03*
X215900Y628650D03*
X215900Y603250D03*
X190500Y628650D03*
X190500Y603250D03*
X165100Y628650D03*
X165100Y603250D03*
X139700Y628650D03*
X114300Y603250D03*
X139700Y603250D03*
X114300Y577850D03*
X139700Y577850D03*
X114300Y552450D03*
X139700Y552450D03*
X114300Y527050D03*
X139700Y527050D03*
X114300Y501650D03*
X139700Y501650D03*
X114300Y476250D03*
X139700Y476250D03*
X114300Y450850D03*
X139700Y450850D03*
X114300Y425450D03*
X139700Y425450D03*
X114300Y400050D03*
X139700Y374650D03*
X139700Y400050D03*
X165100Y374650D03*
X165100Y400050D03*
X190500Y374650D03*
X190500Y400050D03*
X215900Y374650D03*
X215900Y400050D03*
D13*
X863600Y622554D02*
X863600Y634746D01*
X838200Y634746D02*
X838200Y622554D01*
X711200Y622554D02*
X711200Y634746D01*
X711200Y558546D02*
X711200Y546354D01*
X812800Y622554D02*
X812800Y634746D01*
X787400Y634746D02*
X787400Y622554D01*
X736600Y622554D02*
X736600Y634746D01*
X762000Y634746D02*
X762000Y622554D01*
X736600Y558546D02*
X736600Y546354D01*
X762000Y546354D02*
X762000Y558546D01*
X787400Y558546D02*
X787400Y546354D01*
X812800Y546354D02*
X812800Y558546D01*
X838200Y558546D02*
X838200Y546354D01*
X863600Y546354D02*
X863600Y558546D01*
X863600Y482346D02*
X863600Y470154D01*
X838200Y470154D02*
X838200Y482346D01*
X711200Y482346D02*
X711200Y470154D01*
X685800Y470154D02*
X685800Y482346D01*
X812800Y482346D02*
X812800Y470154D01*
X787400Y470154D02*
X787400Y482346D01*
X736600Y482346D02*
X736600Y470154D01*
X762000Y470154D02*
X762000Y482346D01*
X660400Y482346D02*
X660400Y470154D01*
X635000Y470154D02*
X635000Y482346D01*
X635000Y406146D02*
X635000Y393954D01*
X660400Y393954D02*
X660400Y406146D01*
X685800Y406146D02*
X685800Y393954D01*
X711200Y393954D02*
X711200Y406146D01*
X736600Y406146D02*
X736600Y393954D01*
X762000Y393954D02*
X762000Y406146D01*
X787400Y406146D02*
X787400Y393954D01*
X812800Y393954D02*
X812800Y406146D01*
X838200Y406146D02*
X838200Y393954D01*
X863600Y393954D02*
X863600Y406146D01*
X838200Y291846D02*
X838200Y279654D01*
X812800Y279654D02*
X812800Y291846D01*
X787400Y291846D02*
X787400Y279654D01*
X762000Y279654D02*
X762000Y291846D01*
X736600Y291846D02*
X736600Y279654D01*
X711200Y279654D02*
X711200Y291846D01*
X685800Y291846D02*
X685800Y279654D01*
X660400Y279654D02*
X660400Y291846D01*
X635000Y291846D02*
X635000Y279654D01*
X609600Y279654D02*
X609600Y291846D01*
X584200Y291846D02*
X584200Y279654D01*
X558800Y279654D02*
X558800Y291846D01*
X533400Y291846D02*
X533400Y279654D01*
X508000Y279654D02*
X508000Y291846D01*
X482600Y291846D02*
X482600Y279654D01*
X457200Y279654D02*
X457200Y291846D01*
X431800Y291846D02*
X431800Y279654D01*
X406400Y279654D02*
X406400Y291846D01*
X381000Y291846D02*
X381000Y279654D01*
X50800Y279654D02*
X50800Y291846D01*
X50800Y63246D02*
X50800Y51054D01*
X381000Y51054D02*
X381000Y63246D01*
X406400Y63246D02*
X406400Y51054D01*
X431800Y51054D02*
X431800Y63246D01*
X457200Y63246D02*
X457200Y51054D01*
X482600Y51054D02*
X482600Y63246D01*
X508000Y63246D02*
X508000Y51054D01*
X533400Y51054D02*
X533400Y63246D01*
X558800Y63246D02*
X558800Y51054D01*
X584200Y51054D02*
X584200Y63246D01*
X609600Y63246D02*
X609600Y51054D01*
X635000Y51054D02*
X635000Y63246D01*
X660400Y63246D02*
X660400Y51054D01*
X685800Y51054D02*
X685800Y63246D01*
X711200Y63246D02*
X711200Y51054D01*
X736600Y51054D02*
X736600Y63246D01*
X762000Y63246D02*
X762000Y51054D01*
X787400Y51054D02*
X787400Y63246D01*
X812800Y63246D02*
X812800Y51054D01*
X838200Y51054D02*
X838200Y63246D01*
X355600Y279654D02*
X355600Y291846D01*
X330200Y291846D02*
X330200Y279654D01*
X304800Y279654D02*
X304800Y291846D01*
X279400Y291846D02*
X279400Y279654D01*
X254000Y279654D02*
X254000Y291846D01*
X228600Y291846D02*
X228600Y279654D01*
X203200Y279654D02*
X203200Y291846D01*
X177800Y291846D02*
X177800Y279654D01*
X152400Y279654D02*
X152400Y291846D01*
X127000Y291846D02*
X127000Y279654D01*
X101600Y279654D02*
X101600Y291846D01*
X76200Y291846D02*
X76200Y279654D01*
X355600Y63246D02*
X355600Y51054D01*
X330200Y51054D02*
X330200Y63246D01*
X304800Y63246D02*
X304800Y51054D01*
X279400Y51054D02*
X279400Y63246D01*
X254000Y63246D02*
X254000Y51054D01*
X228600Y51054D02*
X228600Y63246D01*
X203200Y63246D02*
X203200Y51054D01*
X177800Y51054D02*
X177800Y63246D01*
X152400Y63246D02*
X152400Y51054D01*
X127000Y51054D02*
X127000Y63246D01*
X101600Y63246D02*
X101600Y51054D01*
X76200Y51054D02*
X76200Y63246D01*
D14*
X33020Y647700D02*
X17780Y647700D01*
X17780Y622300D02*
X33020Y622300D01*
X33020Y596900D02*
X17780Y596900D01*
X17780Y571500D02*
X33020Y571500D01*
D15*
X956150Y291650D03*
X936150Y291650D03*
X956150Y311650D03*
X936150Y311650D03*
X956150Y331650D03*
X936150Y331650D03*
X956150Y351650D03*
X936150Y351650D03*
X956150Y371650D03*
X936150Y371650D03*
X956150Y391650D03*
X936150Y391650D03*
X956150Y411650D03*
X936150Y411650D03*
X956150Y431650D03*
X936150Y431650D03*
X956150Y451650D03*
X936150Y451650D03*
X956150Y471650D03*
X936150Y471650D03*
X956150Y491650D03*
X936150Y491650D03*
X956150Y511650D03*
X936150Y511650D03*
X956150Y531650D03*
X936150Y531650D03*
X956150Y551650D03*
X936150Y551650D03*
X956150Y571650D03*
X936150Y571650D03*
X956150Y591650D03*
X936150Y591650D03*
X956150Y611650D03*
X936150Y611650D03*
X956150Y631650D03*
X936150Y631650D03*
X956150Y651650D03*
X936150Y651650D03*
X956150Y671650D03*
X936150Y671650D03*
X956150Y691650D03*
X936150Y691650D03*
X956150Y711650D03*
X936150Y711650D03*
D13*
X838200Y253746D02*
X838200Y241554D01*
X812800Y241554D02*
X812800Y253746D01*
X787400Y253746D02*
X787400Y241554D01*
X762000Y241554D02*
X762000Y253746D01*
X736600Y253746D02*
X736600Y241554D01*
X711200Y241554D02*
X711200Y253746D01*
X685800Y253746D02*
X685800Y241554D01*
X660400Y241554D02*
X660400Y253746D01*
X635000Y253746D02*
X635000Y241554D01*
X609600Y241554D02*
X609600Y253746D01*
X584200Y253746D02*
X584200Y241554D01*
X558800Y241554D02*
X558800Y253746D01*
X533400Y253746D02*
X533400Y241554D01*
X508000Y241554D02*
X508000Y253746D01*
X482600Y253746D02*
X482600Y241554D01*
X457200Y241554D02*
X457200Y253746D01*
X431800Y253746D02*
X431800Y241554D01*
X406400Y241554D02*
X406400Y253746D01*
X381000Y253746D02*
X381000Y241554D01*
X50800Y241554D02*
X50800Y253746D01*
X50800Y25146D02*
X50800Y12954D01*
X381000Y12954D02*
X381000Y25146D01*
X406400Y25146D02*
X406400Y12954D01*
X431800Y12954D02*
X431800Y25146D01*
X457200Y25146D02*
X457200Y12954D01*
X482600Y12954D02*
X482600Y25146D01*
X508000Y25146D02*
X508000Y12954D01*
X533400Y12954D02*
X533400Y25146D01*
X558800Y25146D02*
X558800Y12954D01*
X584200Y12954D02*
X584200Y25146D01*
X609600Y25146D02*
X609600Y12954D01*
X635000Y12954D02*
X635000Y25146D01*
X660400Y25146D02*
X660400Y12954D01*
X685800Y12954D02*
X685800Y25146D01*
X711200Y25146D02*
X711200Y12954D01*
X736600Y12954D02*
X736600Y25146D01*
X762000Y25146D02*
X762000Y12954D01*
X787400Y12954D02*
X787400Y25146D01*
X812800Y25146D02*
X812800Y12954D01*
X838200Y12954D02*
X838200Y25146D01*
X355600Y241554D02*
X355600Y253746D01*
X330200Y253746D02*
X330200Y241554D01*
X304800Y241554D02*
X304800Y253746D01*
X279400Y253746D02*
X279400Y241554D01*
X254000Y241554D02*
X254000Y253746D01*
X228600Y253746D02*
X228600Y241554D01*
X203200Y241554D02*
X203200Y253746D01*
X177800Y253746D02*
X177800Y241554D01*
X152400Y241554D02*
X152400Y253746D01*
X127000Y253746D02*
X127000Y241554D01*
X101600Y241554D02*
X101600Y253746D01*
X76200Y253746D02*
X76200Y241554D01*
X355600Y25146D02*
X355600Y12954D01*
X330200Y12954D02*
X330200Y25146D01*
X304800Y25146D02*
X304800Y12954D01*
X279400Y12954D02*
X279400Y25146D01*
X254000Y25146D02*
X254000Y12954D01*
X228600Y12954D02*
X228600Y25146D01*
X203200Y25146D02*
X203200Y12954D01*
X177800Y12954D02*
X177800Y25146D01*
X152400Y25146D02*
X152400Y12954D01*
X127000Y12954D02*
X127000Y25146D01*
X101600Y25146D02*
X101600Y12954D01*
X76200Y12954D02*
X76200Y25146D01*
D16*
X444500Y660400D03*
X444500Y533400D03*
X508000Y660400D03*
X508000Y533400D03*
D12*
X692150Y698500D03*
X565150Y698500D03*
X692150Y730250D03*
X565150Y730250D03*
X844550Y762000D03*
X717550Y762000D03*
D17*
X717550Y730250D03*
X844550Y730250D03*
D12*
X844550Y698500D03*
X717550Y698500D03*
D14*
X617220Y577850D02*
X601980Y577850D01*
X601980Y603250D02*
X617220Y603250D01*
X617220Y628650D02*
X601980Y628650D01*
D17*
X476250Y749300D03*
X501650Y749300D03*
D16*
X476250Y660400D03*
X476250Y533400D03*
D14*
X563880Y577850D02*
X579120Y577850D01*
X579120Y603250D02*
X563880Y603250D01*
X563880Y628650D02*
X579120Y628650D01*
D17*
X508000Y190500D03*
X558800Y190500D03*
D18*
X457200Y95250D03*
X457200Y146050D03*
D12*
X247650Y673100D03*
X196850Y673100D03*
D17*
X241300Y320675D03*
X292100Y320675D03*
D12*
X863600Y520700D03*
X812800Y520700D03*
X863600Y368300D03*
X812800Y368300D03*
D19*
X282893Y586740D02*
X266700Y602933D01*
X282893Y586740D02*
X480060Y586740D01*
X482918Y583883D01*
X266700Y602933D02*
X266700Y603250D01*
D20*
X482918Y583883D03*
D19*
X926783Y262890D02*
X955358Y291465D01*
X926783Y262890D02*
X806768Y262890D01*
X801053Y257175D01*
X797243Y257175D01*
X791528Y262890D01*
X421958Y262890D01*
X406718Y247650D01*
X955358Y291465D02*
X956150Y291650D01*
X406718Y247650D02*
X406400Y247650D01*
X330518Y590550D02*
X318135Y602933D01*
X330518Y590550D02*
X489585Y590550D01*
X318135Y602933D02*
X317500Y603250D01*
D20*
X489585Y590550D03*
D19*
X401955Y552450D02*
X400050Y554355D01*
X628650Y552450D02*
X711200Y552450D01*
X628650Y552450D02*
X401955Y552450D01*
X771525Y537210D02*
X786765Y552450D01*
X771525Y537210D02*
X725805Y537210D01*
X711518Y551498D01*
X786765Y552450D02*
X787400Y552450D01*
X711518Y551498D02*
X711200Y552450D01*
X628650Y552450D02*
X628650Y551498D01*
D20*
X400050Y554355D03*
X628650Y551498D03*
D19*
X351473Y536258D02*
X342900Y527685D01*
X351473Y536258D02*
X428625Y536258D01*
X441008Y523875D01*
X727710Y523875D01*
X730568Y526733D01*
X342900Y527050D02*
X342900Y527685D01*
X945833Y441960D02*
X955358Y451485D01*
X945833Y441960D02*
X762000Y441960D01*
X955358Y451485D02*
X956150Y451650D01*
D20*
X730568Y526733D03*
X762000Y441960D03*
D19*
X375285Y520065D02*
X368300Y527050D01*
X375285Y520065D02*
X778193Y520065D01*
X945833Y421958D02*
X955358Y431483D01*
X945833Y421958D02*
X779145Y421958D01*
X955358Y431483D02*
X956150Y431650D01*
D20*
X778193Y520065D03*
X779145Y421958D03*
D19*
X351473Y510540D02*
X342900Y501968D01*
X351473Y510540D02*
X723900Y510540D01*
X723900Y300990D02*
X771525Y300990D01*
X786765Y285750D01*
X342900Y501650D02*
X342900Y501968D01*
X786765Y285750D02*
X787400Y285750D01*
X945833Y401955D02*
X955358Y411480D01*
X945833Y401955D02*
X945833Y387668D01*
X940118Y381953D01*
X932498Y381953D01*
X855345Y304800D01*
X774383Y304800D01*
X771525Y301943D01*
X955358Y411480D02*
X956150Y411650D01*
X771525Y301943D02*
X771525Y300990D01*
D20*
X723900Y510540D03*
X723900Y300990D03*
D19*
X369570Y502920D02*
X368300Y501650D01*
X369570Y502920D02*
X924878Y502920D01*
X828675Y300990D02*
X813435Y285750D01*
X828675Y300990D02*
X857250Y300990D01*
X918210Y361950D01*
X940118Y361950D01*
X945833Y367665D01*
X945833Y381953D01*
X955358Y391478D01*
X813435Y285750D02*
X812800Y285750D01*
X955358Y391478D02*
X956150Y391650D01*
D20*
X924878Y502920D03*
D19*
X955358Y371475D02*
X945833Y361950D01*
X945833Y341948D01*
X903923Y341948D01*
X847725Y285750D01*
X838200Y285750D01*
X955358Y371475D02*
X956150Y371650D01*
X360045Y416243D02*
X359093Y417195D01*
X360045Y416243D02*
X476250Y416243D01*
X533400Y359093D01*
X838200Y359093D01*
D20*
X359093Y417195D03*
X838200Y359093D03*
D19*
X381000Y561023D02*
X378143Y558165D01*
X381000Y561023D02*
X701040Y561023D01*
X707708Y567690D01*
X842010Y567690D01*
X854393Y555308D01*
X854393Y537210D01*
X927735Y537210D01*
X932498Y541973D01*
X965835Y541973D01*
D20*
X378143Y558165D03*
X965835Y541973D03*
D19*
X463868Y434340D02*
X360045Y434340D01*
X463868Y434340D02*
X522923Y375285D01*
X797243Y375285D01*
X956310Y332423D02*
X965835Y341948D01*
X965835Y421958D01*
X952500Y421958D01*
X945833Y415290D01*
X945833Y407670D01*
X940118Y401955D01*
X884873Y401955D01*
X860108Y377190D01*
X798195Y377190D01*
X797243Y376238D01*
X956310Y332423D02*
X956150Y331650D01*
X797243Y375285D02*
X797243Y376238D01*
D20*
X797243Y375285D03*
D19*
X343535Y450850D02*
X342900Y450850D01*
X343535Y450850D02*
X360045Y434340D01*
X945833Y301943D02*
X955358Y311468D01*
X945833Y301943D02*
X931545Y301943D01*
X896303Y266700D01*
X802005Y266700D01*
X799148Y263843D01*
X955358Y311468D02*
X956150Y311650D01*
D20*
X799148Y263843D03*
D19*
X447675Y450533D02*
X368618Y450533D01*
X447675Y200025D02*
X604838Y200025D01*
X608648Y196215D01*
X795338Y196215D01*
X368618Y450533D02*
X368300Y450850D01*
D20*
X447675Y450533D03*
X447675Y200025D03*
X795338Y196215D03*
D19*
X358140Y409575D02*
X342900Y424815D01*
X358140Y409575D02*
X468630Y409575D01*
X468630Y79058D02*
X471488Y76200D01*
X742950Y76200D01*
X762000Y57150D01*
X342900Y424815D02*
X342900Y425450D01*
X894398Y270510D02*
X935355Y311468D01*
X894398Y270510D02*
X771525Y270510D01*
X935355Y311468D02*
X936150Y311650D01*
D20*
X468630Y409575D03*
X468630Y79058D03*
X771525Y270510D03*
D19*
X736283Y136208D02*
X415290Y136208D01*
X736283Y230505D02*
X913448Y230505D01*
D20*
X415290Y136208D03*
X736283Y136208D03*
X913448Y230505D03*
X736283Y230505D03*
D19*
X695325Y41910D02*
X364808Y41910D01*
X695325Y41910D02*
X710565Y57150D01*
X711200Y57150D01*
X711518Y223838D02*
X906780Y223838D01*
D20*
X364808Y41910D03*
X906780Y223838D03*
X711518Y223838D03*
D19*
X684848Y111443D02*
X390525Y111443D01*
X684848Y217170D02*
X900113Y217170D01*
D20*
X390525Y111443D03*
X684848Y111443D03*
X900113Y217170D03*
X684848Y217170D03*
D19*
X344805Y372428D02*
X342900Y374333D01*
X344805Y372428D02*
X508635Y372428D01*
X531495Y349568D01*
X676275Y349568D01*
X342900Y374333D02*
X342900Y374650D01*
X676275Y349568D02*
X676275Y348615D01*
D20*
X676275Y348615D03*
D19*
X894398Y385763D02*
X931545Y385763D01*
X894398Y385763D02*
X859155Y350520D01*
X676275Y350520D01*
X676275Y348615D01*
X936150Y390368D02*
X936150Y391650D01*
X936150Y390368D02*
X931545Y385763D01*
X634365Y129540D02*
X339090Y129540D01*
D20*
X339090Y129540D03*
X634365Y129540D03*
D19*
X634365Y210503D02*
X893445Y210503D01*
D20*
X893445Y210503D03*
X634365Y210503D03*
D19*
X317183Y86678D02*
X314325Y89535D01*
X317183Y86678D02*
X452438Y86678D01*
X466725Y72390D01*
X594360Y72390D01*
X609600Y57150D01*
X610553Y202883D02*
X885825Y202883D01*
D20*
X314325Y89535D03*
X885825Y202883D03*
X610553Y202883D03*
D19*
X583883Y104775D02*
X295275Y104775D01*
X826770Y451485D02*
X935355Y451485D01*
X826770Y104775D02*
X583883Y104775D01*
X935355Y451485D02*
X936150Y451650D01*
D20*
X295275Y104775D03*
X583883Y104775D03*
X826770Y451485D03*
X826770Y104775D03*
D19*
X174308Y302895D02*
X157163Y285750D01*
X152400Y285750D01*
D20*
X174308Y302895D03*
D19*
X352425Y542925D02*
X342900Y552450D01*
X352425Y542925D02*
X643890Y542925D01*
X708660Y384810D02*
X710565Y382905D01*
X708660Y384810D02*
X650558Y384810D01*
X635318Y400050D01*
X635000Y400050D01*
D20*
X643890Y542925D03*
X710565Y382905D03*
D19*
X374333Y597218D02*
X368300Y603250D01*
X374333Y597218D02*
X554355Y597218D01*
X559118Y592455D01*
X651510Y592455D01*
D20*
X651510Y592455D03*
D19*
X661988Y309563D02*
X417195Y309563D01*
X661988Y309563D02*
X685800Y285750D01*
D20*
X417195Y309563D03*
D19*
X351473Y568643D02*
X342900Y577215D01*
X351473Y568643D02*
X432435Y568643D01*
X435293Y571500D01*
X441008Y270510D02*
X644843Y270510D01*
X660083Y285750D01*
X342900Y577215D02*
X342900Y577850D01*
X660083Y285750D02*
X660400Y285750D01*
D20*
X435293Y571500D03*
X441008Y270510D03*
D19*
X945833Y641985D02*
X955358Y632460D01*
X945833Y641985D02*
X875348Y641985D01*
X861060Y656273D01*
X524828Y656273D01*
X511493Y669608D01*
X275273Y669608D01*
X255270Y649605D01*
X105728Y649605D01*
X955358Y632460D02*
X956150Y631650D01*
D20*
X105728Y649605D03*
D19*
X139065Y552450D02*
X122873Y536258D01*
X110490Y536258D01*
X76200Y501968D01*
X76200Y496253D01*
X139065Y552450D02*
X139700Y552450D01*
X945833Y621983D02*
X955358Y612458D01*
X945833Y621983D02*
X889635Y621983D01*
X867728Y643890D01*
X647700Y643890D01*
X618173Y614363D01*
X366713Y614363D01*
X346710Y594360D01*
X335280Y594360D01*
X332423Y597218D01*
X331470Y553403D02*
X140018Y553403D01*
X955358Y612458D02*
X956150Y611650D01*
X140018Y553403D02*
X139700Y552450D01*
D20*
X76200Y496253D03*
X332423Y597218D03*
X331470Y553403D03*
D19*
X99060Y707708D02*
X923925Y707708D01*
D20*
X923925Y707708D03*
X99060Y707708D03*
D19*
X644843Y491490D02*
X660083Y476250D01*
X644843Y491490D02*
X396240Y491490D01*
X371475Y466725D01*
X200025Y466725D01*
X180499Y486251D02*
X139700Y527050D01*
X180499Y486251D02*
X200025Y466725D01*
X660083Y476250D02*
X660400Y476250D01*
X180023Y485775D02*
X60008Y485775D01*
X180023Y485775D02*
X180499Y486251D01*
D20*
X60008Y485775D03*
D19*
X130493Y492443D02*
X139700Y501650D01*
X130493Y492443D02*
X92393Y492443D01*
D20*
X92393Y492443D03*
D19*
X129540Y466725D02*
X139065Y476250D01*
X129540Y466725D02*
X107633Y466725D01*
X110490Y72390D02*
X133350Y72390D01*
X148590Y57150D01*
X152400Y57150D01*
X139700Y476250D02*
X139065Y476250D01*
D20*
X107633Y466725D03*
X110490Y72390D03*
D19*
X128588Y436245D02*
X114300Y450533D01*
X128588Y436245D02*
X145733Y436245D01*
X114300Y450533D02*
X114300Y450850D01*
D20*
X145733Y436245D03*
D19*
X122873Y416243D02*
X114300Y424815D01*
X122873Y416243D02*
X224790Y416243D01*
X114300Y424815D02*
X114300Y425450D01*
D20*
X224790Y416243D03*
D19*
X250508Y424815D02*
X140018Y424815D01*
X139700Y425450D01*
D20*
X250508Y424815D03*
D19*
X263843Y72390D02*
X141923Y72390D01*
X263843Y72390D02*
X279083Y57150D01*
X279400Y57150D01*
D20*
X141923Y72390D03*
D19*
X135255Y79058D02*
X282893Y79058D01*
X304800Y57150D01*
D20*
X135255Y79058D03*
D19*
X187643Y352425D02*
X165735Y374333D01*
X187643Y352425D02*
X320993Y352425D01*
X165735Y374333D02*
X165100Y374650D01*
X321945Y232410D02*
X669608Y232410D01*
D20*
X320993Y352425D03*
X669608Y232410D03*
X321945Y232410D03*
D19*
X181928Y383858D02*
X165735Y400050D01*
X181928Y383858D02*
X350520Y383858D01*
X165735Y400050D02*
X165100Y400050D01*
X691515Y495300D02*
X710565Y476250D01*
X691515Y495300D02*
X381000Y495300D01*
X371475Y485775D01*
X328613Y485775D01*
X326708Y483870D01*
X710565Y476250D02*
X711200Y476250D01*
D20*
X350520Y383858D03*
X326708Y483870D03*
D19*
X205740Y359093D02*
X190500Y374333D01*
X205740Y359093D02*
X371475Y359093D01*
X190500Y374333D02*
X190500Y374650D01*
X714375Y336233D02*
X717233Y339090D01*
X714375Y336233D02*
X393383Y336233D01*
X371475Y358140D01*
X371475Y359093D01*
D20*
X371475Y359093D03*
X717233Y339090D03*
D19*
X197168Y82868D02*
X194310Y85725D01*
X197168Y82868D02*
X380048Y82868D01*
X405765Y57150D01*
X406400Y57150D01*
X762000Y476250D02*
X739140Y499110D01*
X379095Y499110D01*
X372428Y492443D01*
X190500Y492443D01*
D20*
X194310Y85725D03*
X190500Y492443D03*
D19*
X215900Y374650D02*
X224790Y365760D01*
X423863Y365760D01*
X771525Y461010D02*
X786765Y476250D01*
X771525Y461010D02*
X701993Y461010D01*
X701993Y342900D02*
X701040Y341948D01*
X446723Y341948D01*
X423863Y364808D01*
X786765Y476250D02*
X787400Y476250D01*
X423863Y365760D02*
X423863Y364808D01*
D20*
X423863Y365760D03*
X701993Y461010D03*
X701993Y342900D03*
D19*
X251460Y390525D02*
X241935Y400050D01*
X251460Y390525D02*
X475298Y390525D01*
X241935Y400050D02*
X241300Y400050D01*
X475298Y325755D02*
X803910Y325755D01*
D20*
X475298Y390525D03*
X803910Y325755D03*
X475298Y325755D03*
D19*
X499110Y302895D02*
X410528Y302895D01*
X276225Y302895D01*
X415290Y316230D02*
X852488Y316230D01*
X415290Y316230D02*
X410528Y311468D01*
X410528Y302895D01*
D20*
X276225Y302895D03*
X499110Y302895D03*
X852488Y316230D03*
D19*
X518160Y34290D02*
X288608Y34290D01*
X518160Y34290D02*
X533400Y19050D01*
X518160Y34290D02*
X828675Y34290D01*
D20*
X288608Y34290D03*
X828675Y34290D03*
D19*
X342900Y603885D02*
X370523Y631508D01*
X479108Y631508D01*
X487204Y639604D02*
X508000Y660400D01*
X487204Y639604D02*
X479108Y631508D01*
X342900Y603885D02*
X342900Y603250D01*
X599123Y639128D02*
X609600Y628650D01*
X599123Y639128D02*
X487680Y639128D01*
X487204Y639604D01*
X812800Y552450D02*
X838200Y552450D01*
X762000Y552450D02*
X736600Y552450D01*
X762000Y628650D02*
X787400Y628650D01*
X945833Y561975D02*
X955358Y552450D01*
X945833Y561975D02*
X873443Y561975D01*
X822008Y613410D01*
X802005Y613410D01*
X787718Y627698D01*
X955358Y552450D02*
X956150Y551650D01*
X787718Y627698D02*
X787400Y628650D01*
X711518Y400050D02*
X726758Y384810D01*
X816293Y384810D01*
X828675Y397193D01*
X828675Y415290D01*
X910590Y415290D01*
X711518Y400050D02*
X711200Y400050D01*
D20*
X910590Y415290D03*
D19*
X945833Y762000D02*
X844550Y762000D01*
D20*
X945833Y762000D03*
D19*
X514350Y762000D02*
X501650Y749300D01*
X514350Y762000D02*
X717550Y762000D01*
X695325Y662940D02*
X696278Y661988D01*
X945833Y661988D01*
X955358Y652463D01*
X956150Y651650D01*
D20*
X695325Y662940D03*
D19*
X838200Y628650D02*
X863600Y628650D01*
X945833Y601980D02*
X955358Y592455D01*
X945833Y601980D02*
X889635Y601980D01*
X863918Y627698D01*
X955358Y592455D02*
X956150Y591650D01*
X863918Y627698D02*
X863600Y628650D01*
X844868Y729615D02*
X965835Y729615D01*
X844868Y729615D02*
X844550Y730250D01*
D20*
X965835Y729615D03*
D19*
X755333Y406718D02*
X762000Y400050D01*
X755333Y406718D02*
X755333Y457200D01*
X823913Y457200D01*
X827723Y461010D01*
X891540Y461010D01*
X932498Y501968D01*
X945833Y501968D01*
X955358Y511493D01*
X956150Y511650D01*
X921068Y510540D02*
X771525Y510540D01*
X921068Y510540D02*
X932498Y521970D01*
X945833Y521970D01*
X955358Y531495D01*
X956150Y531650D01*
D20*
X771525Y510540D03*
D19*
X812483Y688658D02*
X66675Y688658D01*
X25718Y647700D01*
X25400Y647700D01*
D20*
X812483Y688658D03*
D19*
X822008Y673418D02*
X273368Y673418D01*
X256223Y656273D01*
X59055Y656273D01*
X25718Y622935D01*
X25400Y622300D01*
D20*
X822008Y673418D03*
D19*
X845820Y332423D02*
X271463Y332423D01*
X270510Y333375D01*
X43815Y333375D01*
D20*
X845820Y332423D03*
X43815Y333375D03*
D19*
X148590Y612458D02*
X164783Y628650D01*
X148590Y612458D02*
X66675Y612458D01*
X25718Y571500D01*
X164783Y628650D02*
X165100Y628650D01*
X25718Y571500D02*
X25400Y571500D01*
X458153Y641985D02*
X476250Y660083D01*
X458153Y641985D02*
X177165Y641985D01*
X164783Y629603D01*
X476250Y660083D02*
X476250Y660400D01*
X165100Y628650D02*
X164783Y629603D01*
X190500Y603885D02*
X206693Y620078D01*
X206693Y638175D01*
X476250Y638175D01*
X476250Y577215D02*
X571500Y577215D01*
X190500Y603250D02*
X190500Y603885D01*
X571500Y577850D02*
X571500Y577215D01*
D20*
X476250Y638175D03*
X476250Y577215D03*
D19*
X232410Y612458D02*
X216218Y628650D01*
X232410Y612458D02*
X244793Y612458D01*
X292418Y564833D01*
X597218Y564833D01*
X609600Y577215D01*
X216218Y628650D02*
X215900Y628650D01*
X609600Y577850D02*
X609600Y577215D01*
X443865Y660083D02*
X318135Y660083D01*
X443865Y660083D02*
X444500Y660400D01*
X567690Y624840D02*
X571500Y628650D01*
X567690Y624840D02*
X444818Y624840D01*
D20*
X318135Y660083D03*
X444818Y624840D03*
M02*
