G04 EAGLE Gerber RS-274X export*
G75*
%MOMM*%
%FSLAX34Y34*%
%LPD*%
%INSolder Mask bottom*%
%IPPOS*%
%AMOC8*
5,1,8,0,0,1.08239X$1,22.5*%
G01*
%ADD10C,0.000000*%
%ADD11C,10.000000*%
%ADD12C,1.219200*%
%ADD13P,1.319650X8X202.500000*%
%ADD14C,1.219200*%
%ADD15C,1.524000*%
%ADD16C,1.350000*%
%ADD17P,1.319650X8X292.500000*%
%ADD18P,1.319650X8X22.500000*%
%ADD19P,1.319650X8X112.500000*%


D10*
X0Y0D02*
X857300Y0D01*
X857300Y139750D01*
X987300Y269850D01*
X987300Y782850D01*
X473000Y782850D01*
X423800Y733650D01*
X0Y733650D01*
X0Y0D01*
X496100Y431800D02*
X496115Y433027D01*
X496160Y434253D01*
X496235Y435478D01*
X496341Y436701D01*
X496476Y437921D01*
X496641Y439137D01*
X496836Y440348D01*
X497061Y441555D01*
X497315Y442755D01*
X497598Y443949D01*
X497911Y445136D01*
X498253Y446314D01*
X498624Y447484D01*
X499023Y448644D01*
X499450Y449795D01*
X499906Y450934D01*
X500390Y452062D01*
X500901Y453178D01*
X501439Y454281D01*
X502004Y455370D01*
X502596Y456445D01*
X503214Y457505D01*
X503857Y458550D01*
X504527Y459579D01*
X505221Y460590D01*
X505940Y461585D01*
X506683Y462562D01*
X507449Y463520D01*
X508240Y464459D01*
X509052Y465378D01*
X509888Y466277D01*
X510745Y467155D01*
X511623Y468012D01*
X512522Y468848D01*
X513441Y469660D01*
X514380Y470451D01*
X515338Y471217D01*
X516315Y471960D01*
X517310Y472679D01*
X518321Y473373D01*
X519350Y474043D01*
X520395Y474686D01*
X521455Y475304D01*
X522530Y475896D01*
X523619Y476461D01*
X524722Y476999D01*
X525838Y477510D01*
X526966Y477994D01*
X528105Y478450D01*
X529256Y478877D01*
X530416Y479276D01*
X531586Y479647D01*
X532764Y479989D01*
X533951Y480302D01*
X535145Y480585D01*
X536345Y480839D01*
X537552Y481064D01*
X538763Y481259D01*
X539979Y481424D01*
X541199Y481559D01*
X542422Y481665D01*
X543647Y481740D01*
X544873Y481785D01*
X546100Y481800D01*
X547327Y481785D01*
X548553Y481740D01*
X549778Y481665D01*
X551001Y481559D01*
X552221Y481424D01*
X553437Y481259D01*
X554648Y481064D01*
X555855Y480839D01*
X557055Y480585D01*
X558249Y480302D01*
X559436Y479989D01*
X560614Y479647D01*
X561784Y479276D01*
X562944Y478877D01*
X564095Y478450D01*
X565234Y477994D01*
X566362Y477510D01*
X567478Y476999D01*
X568581Y476461D01*
X569670Y475896D01*
X570745Y475304D01*
X571805Y474686D01*
X572850Y474043D01*
X573879Y473373D01*
X574890Y472679D01*
X575885Y471960D01*
X576862Y471217D01*
X577820Y470451D01*
X578759Y469660D01*
X579678Y468848D01*
X580577Y468012D01*
X581455Y467155D01*
X582312Y466277D01*
X583148Y465378D01*
X583960Y464459D01*
X584751Y463520D01*
X585517Y462562D01*
X586260Y461585D01*
X586979Y460590D01*
X587673Y459579D01*
X588343Y458550D01*
X588986Y457505D01*
X589604Y456445D01*
X590196Y455370D01*
X590761Y454281D01*
X591299Y453178D01*
X591810Y452062D01*
X592294Y450934D01*
X592750Y449795D01*
X593177Y448644D01*
X593576Y447484D01*
X593947Y446314D01*
X594289Y445136D01*
X594602Y443949D01*
X594885Y442755D01*
X595139Y441555D01*
X595364Y440348D01*
X595559Y439137D01*
X595724Y437921D01*
X595859Y436701D01*
X595965Y435478D01*
X596040Y434253D01*
X596085Y433027D01*
X596100Y431800D01*
X596085Y430573D01*
X596040Y429347D01*
X595965Y428122D01*
X595859Y426899D01*
X595724Y425679D01*
X595559Y424463D01*
X595364Y423252D01*
X595139Y422045D01*
X594885Y420845D01*
X594602Y419651D01*
X594289Y418464D01*
X593947Y417286D01*
X593576Y416116D01*
X593177Y414956D01*
X592750Y413805D01*
X592294Y412666D01*
X591810Y411538D01*
X591299Y410422D01*
X590761Y409319D01*
X590196Y408230D01*
X589604Y407155D01*
X588986Y406095D01*
X588343Y405050D01*
X587673Y404021D01*
X586979Y403010D01*
X586260Y402015D01*
X585517Y401038D01*
X584751Y400080D01*
X583960Y399141D01*
X583148Y398222D01*
X582312Y397323D01*
X581455Y396445D01*
X580577Y395588D01*
X579678Y394752D01*
X578759Y393940D01*
X577820Y393149D01*
X576862Y392383D01*
X575885Y391640D01*
X574890Y390921D01*
X573879Y390227D01*
X572850Y389557D01*
X571805Y388914D01*
X570745Y388296D01*
X569670Y387704D01*
X568581Y387139D01*
X567478Y386601D01*
X566362Y386090D01*
X565234Y385606D01*
X564095Y385150D01*
X562944Y384723D01*
X561784Y384324D01*
X560614Y383953D01*
X559436Y383611D01*
X558249Y383298D01*
X557055Y383015D01*
X555855Y382761D01*
X554648Y382536D01*
X553437Y382341D01*
X552221Y382176D01*
X551001Y382041D01*
X549778Y381935D01*
X548553Y381860D01*
X547327Y381815D01*
X546100Y381800D01*
X544873Y381815D01*
X543647Y381860D01*
X542422Y381935D01*
X541199Y382041D01*
X539979Y382176D01*
X538763Y382341D01*
X537552Y382536D01*
X536345Y382761D01*
X535145Y383015D01*
X533951Y383298D01*
X532764Y383611D01*
X531586Y383953D01*
X530416Y384324D01*
X529256Y384723D01*
X528105Y385150D01*
X526966Y385606D01*
X525838Y386090D01*
X524722Y386601D01*
X523619Y387139D01*
X522530Y387704D01*
X521455Y388296D01*
X520395Y388914D01*
X519350Y389557D01*
X518321Y390227D01*
X517310Y390921D01*
X516315Y391640D01*
X515338Y392383D01*
X514380Y393149D01*
X513441Y393940D01*
X512522Y394752D01*
X511623Y395588D01*
X510745Y396445D01*
X509888Y397323D01*
X509052Y398222D01*
X508240Y399141D01*
X507449Y400080D01*
X506683Y401038D01*
X505940Y402015D01*
X505221Y403010D01*
X504527Y404021D01*
X503857Y405050D01*
X503214Y406095D01*
X502596Y407155D01*
X502004Y408230D01*
X501439Y409319D01*
X500901Y410422D01*
X500390Y411538D01*
X499906Y412666D01*
X499450Y413805D01*
X499023Y414956D01*
X498624Y416116D01*
X498253Y417286D01*
X497911Y418464D01*
X497598Y419651D01*
X497315Y420845D01*
X497061Y422045D01*
X496836Y423252D01*
X496641Y424463D01*
X496476Y425679D01*
X496341Y426899D01*
X496235Y428122D01*
X496160Y429347D01*
X496115Y430573D01*
X496100Y431800D01*
D11*
X546100Y431800D03*
D12*
X241300Y374650D03*
D13*
X241300Y400050D03*
X266700Y374650D03*
X266700Y400050D03*
X292100Y374650D03*
X292100Y400050D03*
X317500Y374650D03*
X317500Y400050D03*
X342900Y374650D03*
X368300Y400050D03*
X342900Y400050D03*
X368300Y425450D03*
X342900Y425450D03*
X368300Y450850D03*
X342900Y450850D03*
X368300Y476250D03*
X342900Y476250D03*
X368300Y501650D03*
X342900Y501650D03*
X368300Y527050D03*
X342900Y527050D03*
X368300Y552450D03*
X342900Y552450D03*
X368300Y577850D03*
X342900Y577850D03*
X368300Y603250D03*
X342900Y628650D03*
X342900Y603250D03*
X317500Y628650D03*
X317500Y603250D03*
X292100Y628650D03*
X292100Y603250D03*
X266700Y628650D03*
X266700Y603250D03*
X241300Y628650D03*
X241300Y603250D03*
X215900Y628650D03*
X215900Y603250D03*
X190500Y628650D03*
X190500Y603250D03*
X165100Y628650D03*
X165100Y603250D03*
X139700Y628650D03*
X114300Y603250D03*
X139700Y603250D03*
X114300Y577850D03*
X139700Y577850D03*
X114300Y552450D03*
X139700Y552450D03*
X114300Y527050D03*
X139700Y527050D03*
X114300Y501650D03*
X139700Y501650D03*
X114300Y476250D03*
X139700Y476250D03*
X114300Y450850D03*
X139700Y450850D03*
X114300Y425450D03*
X139700Y425450D03*
X114300Y400050D03*
X139700Y374650D03*
X139700Y400050D03*
X165100Y374650D03*
X165100Y400050D03*
X190500Y374650D03*
X190500Y400050D03*
X215900Y374650D03*
X215900Y400050D03*
D14*
X863600Y622554D02*
X863600Y634746D01*
X838200Y634746D02*
X838200Y622554D01*
X711200Y622554D02*
X711200Y634746D01*
X711200Y558546D02*
X711200Y546354D01*
X812800Y622554D02*
X812800Y634746D01*
X787400Y634746D02*
X787400Y622554D01*
X736600Y622554D02*
X736600Y634746D01*
X762000Y634746D02*
X762000Y622554D01*
X736600Y558546D02*
X736600Y546354D01*
X762000Y546354D02*
X762000Y558546D01*
X787400Y558546D02*
X787400Y546354D01*
X812800Y546354D02*
X812800Y558546D01*
X838200Y558546D02*
X838200Y546354D01*
X863600Y546354D02*
X863600Y558546D01*
X863600Y482346D02*
X863600Y470154D01*
X838200Y470154D02*
X838200Y482346D01*
X711200Y482346D02*
X711200Y470154D01*
X685800Y470154D02*
X685800Y482346D01*
X812800Y482346D02*
X812800Y470154D01*
X787400Y470154D02*
X787400Y482346D01*
X736600Y482346D02*
X736600Y470154D01*
X762000Y470154D02*
X762000Y482346D01*
X660400Y482346D02*
X660400Y470154D01*
X635000Y470154D02*
X635000Y482346D01*
X635000Y406146D02*
X635000Y393954D01*
X660400Y393954D02*
X660400Y406146D01*
X685800Y406146D02*
X685800Y393954D01*
X711200Y393954D02*
X711200Y406146D01*
X736600Y406146D02*
X736600Y393954D01*
X762000Y393954D02*
X762000Y406146D01*
X787400Y406146D02*
X787400Y393954D01*
X812800Y393954D02*
X812800Y406146D01*
X838200Y406146D02*
X838200Y393954D01*
X863600Y393954D02*
X863600Y406146D01*
X838200Y291846D02*
X838200Y279654D01*
X812800Y279654D02*
X812800Y291846D01*
X787400Y291846D02*
X787400Y279654D01*
X762000Y279654D02*
X762000Y291846D01*
X736600Y291846D02*
X736600Y279654D01*
X711200Y279654D02*
X711200Y291846D01*
X685800Y291846D02*
X685800Y279654D01*
X660400Y279654D02*
X660400Y291846D01*
X635000Y291846D02*
X635000Y279654D01*
X609600Y279654D02*
X609600Y291846D01*
X584200Y291846D02*
X584200Y279654D01*
X558800Y279654D02*
X558800Y291846D01*
X533400Y291846D02*
X533400Y279654D01*
X508000Y279654D02*
X508000Y291846D01*
X482600Y291846D02*
X482600Y279654D01*
X457200Y279654D02*
X457200Y291846D01*
X431800Y291846D02*
X431800Y279654D01*
X406400Y279654D02*
X406400Y291846D01*
X381000Y291846D02*
X381000Y279654D01*
X50800Y279654D02*
X50800Y291846D01*
X50800Y63246D02*
X50800Y51054D01*
X381000Y51054D02*
X381000Y63246D01*
X406400Y63246D02*
X406400Y51054D01*
X431800Y51054D02*
X431800Y63246D01*
X457200Y63246D02*
X457200Y51054D01*
X482600Y51054D02*
X482600Y63246D01*
X508000Y63246D02*
X508000Y51054D01*
X533400Y51054D02*
X533400Y63246D01*
X558800Y63246D02*
X558800Y51054D01*
X584200Y51054D02*
X584200Y63246D01*
X609600Y63246D02*
X609600Y51054D01*
X635000Y51054D02*
X635000Y63246D01*
X660400Y63246D02*
X660400Y51054D01*
X685800Y51054D02*
X685800Y63246D01*
X711200Y63246D02*
X711200Y51054D01*
X736600Y51054D02*
X736600Y63246D01*
X762000Y63246D02*
X762000Y51054D01*
X787400Y51054D02*
X787400Y63246D01*
X812800Y63246D02*
X812800Y51054D01*
X838200Y51054D02*
X838200Y63246D01*
X355600Y279654D02*
X355600Y291846D01*
X330200Y291846D02*
X330200Y279654D01*
X304800Y279654D02*
X304800Y291846D01*
X279400Y291846D02*
X279400Y279654D01*
X254000Y279654D02*
X254000Y291846D01*
X228600Y291846D02*
X228600Y279654D01*
X203200Y279654D02*
X203200Y291846D01*
X177800Y291846D02*
X177800Y279654D01*
X152400Y279654D02*
X152400Y291846D01*
X127000Y291846D02*
X127000Y279654D01*
X101600Y279654D02*
X101600Y291846D01*
X76200Y291846D02*
X76200Y279654D01*
X355600Y63246D02*
X355600Y51054D01*
X330200Y51054D02*
X330200Y63246D01*
X304800Y63246D02*
X304800Y51054D01*
X279400Y51054D02*
X279400Y63246D01*
X254000Y63246D02*
X254000Y51054D01*
X228600Y51054D02*
X228600Y63246D01*
X203200Y63246D02*
X203200Y51054D01*
X177800Y51054D02*
X177800Y63246D01*
X152400Y63246D02*
X152400Y51054D01*
X127000Y51054D02*
X127000Y63246D01*
X101600Y63246D02*
X101600Y51054D01*
X76200Y51054D02*
X76200Y63246D01*
D15*
X33020Y647700D02*
X17780Y647700D01*
X17780Y622300D02*
X33020Y622300D01*
X33020Y596900D02*
X17780Y596900D01*
X17780Y571500D02*
X33020Y571500D01*
D16*
X956150Y291650D03*
X936150Y291650D03*
X956150Y311650D03*
X936150Y311650D03*
X956150Y331650D03*
X936150Y331650D03*
X956150Y351650D03*
X936150Y351650D03*
X956150Y371650D03*
X936150Y371650D03*
X956150Y391650D03*
X936150Y391650D03*
X956150Y411650D03*
X936150Y411650D03*
X956150Y431650D03*
X936150Y431650D03*
X956150Y451650D03*
X936150Y451650D03*
X956150Y471650D03*
X936150Y471650D03*
X956150Y491650D03*
X936150Y491650D03*
X956150Y511650D03*
X936150Y511650D03*
X956150Y531650D03*
X936150Y531650D03*
X956150Y551650D03*
X936150Y551650D03*
X956150Y571650D03*
X936150Y571650D03*
X956150Y591650D03*
X936150Y591650D03*
X956150Y611650D03*
X936150Y611650D03*
X956150Y631650D03*
X936150Y631650D03*
X956150Y651650D03*
X936150Y651650D03*
X956150Y671650D03*
X936150Y671650D03*
X956150Y691650D03*
X936150Y691650D03*
X956150Y711650D03*
X936150Y711650D03*
D14*
X838200Y253746D02*
X838200Y241554D01*
X812800Y241554D02*
X812800Y253746D01*
X787400Y253746D02*
X787400Y241554D01*
X762000Y241554D02*
X762000Y253746D01*
X736600Y253746D02*
X736600Y241554D01*
X711200Y241554D02*
X711200Y253746D01*
X685800Y253746D02*
X685800Y241554D01*
X660400Y241554D02*
X660400Y253746D01*
X635000Y253746D02*
X635000Y241554D01*
X609600Y241554D02*
X609600Y253746D01*
X584200Y253746D02*
X584200Y241554D01*
X558800Y241554D02*
X558800Y253746D01*
X533400Y253746D02*
X533400Y241554D01*
X508000Y241554D02*
X508000Y253746D01*
X482600Y253746D02*
X482600Y241554D01*
X457200Y241554D02*
X457200Y253746D01*
X431800Y253746D02*
X431800Y241554D01*
X406400Y241554D02*
X406400Y253746D01*
X381000Y253746D02*
X381000Y241554D01*
X50800Y241554D02*
X50800Y253746D01*
X50800Y25146D02*
X50800Y12954D01*
X381000Y12954D02*
X381000Y25146D01*
X406400Y25146D02*
X406400Y12954D01*
X431800Y12954D02*
X431800Y25146D01*
X457200Y25146D02*
X457200Y12954D01*
X482600Y12954D02*
X482600Y25146D01*
X508000Y25146D02*
X508000Y12954D01*
X533400Y12954D02*
X533400Y25146D01*
X558800Y25146D02*
X558800Y12954D01*
X584200Y12954D02*
X584200Y25146D01*
X609600Y25146D02*
X609600Y12954D01*
X635000Y12954D02*
X635000Y25146D01*
X660400Y25146D02*
X660400Y12954D01*
X685800Y12954D02*
X685800Y25146D01*
X711200Y25146D02*
X711200Y12954D01*
X736600Y12954D02*
X736600Y25146D01*
X762000Y25146D02*
X762000Y12954D01*
X787400Y12954D02*
X787400Y25146D01*
X812800Y25146D02*
X812800Y12954D01*
X838200Y12954D02*
X838200Y25146D01*
X355600Y241554D02*
X355600Y253746D01*
X330200Y253746D02*
X330200Y241554D01*
X304800Y241554D02*
X304800Y253746D01*
X279400Y253746D02*
X279400Y241554D01*
X254000Y241554D02*
X254000Y253746D01*
X228600Y253746D02*
X228600Y241554D01*
X203200Y241554D02*
X203200Y253746D01*
X177800Y253746D02*
X177800Y241554D01*
X152400Y241554D02*
X152400Y253746D01*
X127000Y253746D02*
X127000Y241554D01*
X101600Y241554D02*
X101600Y253746D01*
X76200Y253746D02*
X76200Y241554D01*
X355600Y25146D02*
X355600Y12954D01*
X330200Y12954D02*
X330200Y25146D01*
X304800Y25146D02*
X304800Y12954D01*
X279400Y12954D02*
X279400Y25146D01*
X254000Y25146D02*
X254000Y12954D01*
X228600Y12954D02*
X228600Y25146D01*
X203200Y25146D02*
X203200Y12954D01*
X177800Y12954D02*
X177800Y25146D01*
X152400Y25146D02*
X152400Y12954D01*
X127000Y12954D02*
X127000Y25146D01*
X101600Y25146D02*
X101600Y12954D01*
X76200Y12954D02*
X76200Y25146D01*
D17*
X444500Y660400D03*
X444500Y533400D03*
X508000Y660400D03*
X508000Y533400D03*
D13*
X692150Y698500D03*
X565150Y698500D03*
X692150Y730250D03*
X565150Y730250D03*
X844550Y762000D03*
X717550Y762000D03*
D18*
X717550Y730250D03*
X844550Y730250D03*
D13*
X844550Y698500D03*
X717550Y698500D03*
D15*
X617220Y577850D02*
X601980Y577850D01*
X601980Y603250D02*
X617220Y603250D01*
X617220Y628650D02*
X601980Y628650D01*
D18*
X476250Y749300D03*
X501650Y749300D03*
D17*
X476250Y660400D03*
X476250Y533400D03*
D15*
X563880Y577850D02*
X579120Y577850D01*
X579120Y603250D02*
X563880Y603250D01*
X563880Y628650D02*
X579120Y628650D01*
D18*
X508000Y190500D03*
X558800Y190500D03*
D19*
X457200Y95250D03*
X457200Y146050D03*
D13*
X247650Y673100D03*
X196850Y673100D03*
D18*
X241300Y320675D03*
X292100Y320675D03*
D13*
X863600Y520700D03*
X812800Y520700D03*
X863600Y368300D03*
X812800Y368300D03*
M02*
