G04 EAGLE Gerber RS-274X export*
G75*
%MOMM*%
%FSLAX34Y34*%
%LPD*%
%INTop Layer*%
%IPPOS*%
%AMOC8*
5,1,8,0,0,1.08239X$1,22.5*%
G01*
%ADD10C,0.000000*%
%ADD11C,1.219200*%
%ADD12P,1.319650X8X202.500000*%
%ADD13C,1.219200*%
%ADD14C,1.524000*%
%ADD15C,1.350000*%
%ADD16P,1.319650X8X292.500000*%
%ADD17P,1.319650X8X22.500000*%
%ADD18R,1.600200X1.168400*%
%ADD19P,1.319650X8X112.500000*%
%ADD20C,0.812800*%
%ADD21C,0.203200*%
%ADD22C,0.609600*%
%ADD23C,0.406400*%


D10*
X0Y0D02*
X857300Y0D01*
X857300Y139750D01*
X987300Y269850D01*
X987300Y782850D01*
X473000Y782850D01*
X423800Y733650D01*
X0Y733650D01*
X0Y0D01*
X496100Y431800D02*
X496115Y433027D01*
X496160Y434253D01*
X496235Y435478D01*
X496341Y436701D01*
X496476Y437921D01*
X496641Y439137D01*
X496836Y440348D01*
X497061Y441555D01*
X497315Y442755D01*
X497598Y443949D01*
X497911Y445136D01*
X498253Y446314D01*
X498624Y447484D01*
X499023Y448644D01*
X499450Y449795D01*
X499906Y450934D01*
X500390Y452062D01*
X500901Y453178D01*
X501439Y454281D01*
X502004Y455370D01*
X502596Y456445D01*
X503214Y457505D01*
X503857Y458550D01*
X504527Y459579D01*
X505221Y460590D01*
X505940Y461585D01*
X506683Y462562D01*
X507449Y463520D01*
X508240Y464459D01*
X509052Y465378D01*
X509888Y466277D01*
X510745Y467155D01*
X511623Y468012D01*
X512522Y468848D01*
X513441Y469660D01*
X514380Y470451D01*
X515338Y471217D01*
X516315Y471960D01*
X517310Y472679D01*
X518321Y473373D01*
X519350Y474043D01*
X520395Y474686D01*
X521455Y475304D01*
X522530Y475896D01*
X523619Y476461D01*
X524722Y476999D01*
X525838Y477510D01*
X526966Y477994D01*
X528105Y478450D01*
X529256Y478877D01*
X530416Y479276D01*
X531586Y479647D01*
X532764Y479989D01*
X533951Y480302D01*
X535145Y480585D01*
X536345Y480839D01*
X537552Y481064D01*
X538763Y481259D01*
X539979Y481424D01*
X541199Y481559D01*
X542422Y481665D01*
X543647Y481740D01*
X544873Y481785D01*
X546100Y481800D01*
X547327Y481785D01*
X548553Y481740D01*
X549778Y481665D01*
X551001Y481559D01*
X552221Y481424D01*
X553437Y481259D01*
X554648Y481064D01*
X555855Y480839D01*
X557055Y480585D01*
X558249Y480302D01*
X559436Y479989D01*
X560614Y479647D01*
X561784Y479276D01*
X562944Y478877D01*
X564095Y478450D01*
X565234Y477994D01*
X566362Y477510D01*
X567478Y476999D01*
X568581Y476461D01*
X569670Y475896D01*
X570745Y475304D01*
X571805Y474686D01*
X572850Y474043D01*
X573879Y473373D01*
X574890Y472679D01*
X575885Y471960D01*
X576862Y471217D01*
X577820Y470451D01*
X578759Y469660D01*
X579678Y468848D01*
X580577Y468012D01*
X581455Y467155D01*
X582312Y466277D01*
X583148Y465378D01*
X583960Y464459D01*
X584751Y463520D01*
X585517Y462562D01*
X586260Y461585D01*
X586979Y460590D01*
X587673Y459579D01*
X588343Y458550D01*
X588986Y457505D01*
X589604Y456445D01*
X590196Y455370D01*
X590761Y454281D01*
X591299Y453178D01*
X591810Y452062D01*
X592294Y450934D01*
X592750Y449795D01*
X593177Y448644D01*
X593576Y447484D01*
X593947Y446314D01*
X594289Y445136D01*
X594602Y443949D01*
X594885Y442755D01*
X595139Y441555D01*
X595364Y440348D01*
X595559Y439137D01*
X595724Y437921D01*
X595859Y436701D01*
X595965Y435478D01*
X596040Y434253D01*
X596085Y433027D01*
X596100Y431800D01*
X596085Y430573D01*
X596040Y429347D01*
X595965Y428122D01*
X595859Y426899D01*
X595724Y425679D01*
X595559Y424463D01*
X595364Y423252D01*
X595139Y422045D01*
X594885Y420845D01*
X594602Y419651D01*
X594289Y418464D01*
X593947Y417286D01*
X593576Y416116D01*
X593177Y414956D01*
X592750Y413805D01*
X592294Y412666D01*
X591810Y411538D01*
X591299Y410422D01*
X590761Y409319D01*
X590196Y408230D01*
X589604Y407155D01*
X588986Y406095D01*
X588343Y405050D01*
X587673Y404021D01*
X586979Y403010D01*
X586260Y402015D01*
X585517Y401038D01*
X584751Y400080D01*
X583960Y399141D01*
X583148Y398222D01*
X582312Y397323D01*
X581455Y396445D01*
X580577Y395588D01*
X579678Y394752D01*
X578759Y393940D01*
X577820Y393149D01*
X576862Y392383D01*
X575885Y391640D01*
X574890Y390921D01*
X573879Y390227D01*
X572850Y389557D01*
X571805Y388914D01*
X570745Y388296D01*
X569670Y387704D01*
X568581Y387139D01*
X567478Y386601D01*
X566362Y386090D01*
X565234Y385606D01*
X564095Y385150D01*
X562944Y384723D01*
X561784Y384324D01*
X560614Y383953D01*
X559436Y383611D01*
X558249Y383298D01*
X557055Y383015D01*
X555855Y382761D01*
X554648Y382536D01*
X553437Y382341D01*
X552221Y382176D01*
X551001Y382041D01*
X549778Y381935D01*
X548553Y381860D01*
X547327Y381815D01*
X546100Y381800D01*
X544873Y381815D01*
X543647Y381860D01*
X542422Y381935D01*
X541199Y382041D01*
X539979Y382176D01*
X538763Y382341D01*
X537552Y382536D01*
X536345Y382761D01*
X535145Y383015D01*
X533951Y383298D01*
X532764Y383611D01*
X531586Y383953D01*
X530416Y384324D01*
X529256Y384723D01*
X528105Y385150D01*
X526966Y385606D01*
X525838Y386090D01*
X524722Y386601D01*
X523619Y387139D01*
X522530Y387704D01*
X521455Y388296D01*
X520395Y388914D01*
X519350Y389557D01*
X518321Y390227D01*
X517310Y390921D01*
X516315Y391640D01*
X515338Y392383D01*
X514380Y393149D01*
X513441Y393940D01*
X512522Y394752D01*
X511623Y395588D01*
X510745Y396445D01*
X509888Y397323D01*
X509052Y398222D01*
X508240Y399141D01*
X507449Y400080D01*
X506683Y401038D01*
X505940Y402015D01*
X505221Y403010D01*
X504527Y404021D01*
X503857Y405050D01*
X503214Y406095D01*
X502596Y407155D01*
X502004Y408230D01*
X501439Y409319D01*
X500901Y410422D01*
X500390Y411538D01*
X499906Y412666D01*
X499450Y413805D01*
X499023Y414956D01*
X498624Y416116D01*
X498253Y417286D01*
X497911Y418464D01*
X497598Y419651D01*
X497315Y420845D01*
X497061Y422045D01*
X496836Y423252D01*
X496641Y424463D01*
X496476Y425679D01*
X496341Y426899D01*
X496235Y428122D01*
X496160Y429347D01*
X496115Y430573D01*
X496100Y431800D01*
D11*
X241300Y374650D03*
D12*
X241300Y400050D03*
X266700Y374650D03*
X266700Y400050D03*
X292100Y374650D03*
X292100Y400050D03*
X317500Y374650D03*
X317500Y400050D03*
X342900Y374650D03*
X368300Y400050D03*
X342900Y400050D03*
X368300Y425450D03*
X342900Y425450D03*
X368300Y450850D03*
X342900Y450850D03*
X368300Y476250D03*
X342900Y476250D03*
X368300Y501650D03*
X342900Y501650D03*
X368300Y527050D03*
X342900Y527050D03*
X368300Y552450D03*
X342900Y552450D03*
X368300Y577850D03*
X342900Y577850D03*
X368300Y603250D03*
X342900Y628650D03*
X342900Y603250D03*
X317500Y628650D03*
X317500Y603250D03*
X292100Y628650D03*
X292100Y603250D03*
X266700Y628650D03*
X266700Y603250D03*
X241300Y628650D03*
X241300Y603250D03*
X215900Y628650D03*
X215900Y603250D03*
X190500Y628650D03*
X190500Y603250D03*
X165100Y628650D03*
X165100Y603250D03*
X139700Y628650D03*
X114300Y603250D03*
X139700Y603250D03*
X114300Y577850D03*
X139700Y577850D03*
X114300Y552450D03*
X139700Y552450D03*
X114300Y527050D03*
X139700Y527050D03*
X114300Y501650D03*
X139700Y501650D03*
X114300Y476250D03*
X139700Y476250D03*
X114300Y450850D03*
X139700Y450850D03*
X114300Y425450D03*
X139700Y425450D03*
X114300Y400050D03*
X139700Y374650D03*
X139700Y400050D03*
X165100Y374650D03*
X165100Y400050D03*
X190500Y374650D03*
X190500Y400050D03*
X215900Y374650D03*
X215900Y400050D03*
D13*
X863600Y622554D02*
X863600Y634746D01*
X838200Y634746D02*
X838200Y622554D01*
X711200Y622554D02*
X711200Y634746D01*
X711200Y558546D02*
X711200Y546354D01*
X812800Y622554D02*
X812800Y634746D01*
X787400Y634746D02*
X787400Y622554D01*
X736600Y622554D02*
X736600Y634746D01*
X762000Y634746D02*
X762000Y622554D01*
X736600Y558546D02*
X736600Y546354D01*
X762000Y546354D02*
X762000Y558546D01*
X787400Y558546D02*
X787400Y546354D01*
X812800Y546354D02*
X812800Y558546D01*
X838200Y558546D02*
X838200Y546354D01*
X863600Y546354D02*
X863600Y558546D01*
X863600Y482346D02*
X863600Y470154D01*
X838200Y470154D02*
X838200Y482346D01*
X711200Y482346D02*
X711200Y470154D01*
X685800Y470154D02*
X685800Y482346D01*
X812800Y482346D02*
X812800Y470154D01*
X787400Y470154D02*
X787400Y482346D01*
X736600Y482346D02*
X736600Y470154D01*
X762000Y470154D02*
X762000Y482346D01*
X660400Y482346D02*
X660400Y470154D01*
X635000Y470154D02*
X635000Y482346D01*
X635000Y406146D02*
X635000Y393954D01*
X660400Y393954D02*
X660400Y406146D01*
X685800Y406146D02*
X685800Y393954D01*
X711200Y393954D02*
X711200Y406146D01*
X736600Y406146D02*
X736600Y393954D01*
X762000Y393954D02*
X762000Y406146D01*
X787400Y406146D02*
X787400Y393954D01*
X812800Y393954D02*
X812800Y406146D01*
X838200Y406146D02*
X838200Y393954D01*
X863600Y393954D02*
X863600Y406146D01*
X838200Y291846D02*
X838200Y279654D01*
X812800Y279654D02*
X812800Y291846D01*
X787400Y291846D02*
X787400Y279654D01*
X762000Y279654D02*
X762000Y291846D01*
X736600Y291846D02*
X736600Y279654D01*
X711200Y279654D02*
X711200Y291846D01*
X685800Y291846D02*
X685800Y279654D01*
X660400Y279654D02*
X660400Y291846D01*
X635000Y291846D02*
X635000Y279654D01*
X609600Y279654D02*
X609600Y291846D01*
X584200Y291846D02*
X584200Y279654D01*
X558800Y279654D02*
X558800Y291846D01*
X533400Y291846D02*
X533400Y279654D01*
X508000Y279654D02*
X508000Y291846D01*
X482600Y291846D02*
X482600Y279654D01*
X457200Y279654D02*
X457200Y291846D01*
X431800Y291846D02*
X431800Y279654D01*
X406400Y279654D02*
X406400Y291846D01*
X381000Y291846D02*
X381000Y279654D01*
X50800Y279654D02*
X50800Y291846D01*
X50800Y63246D02*
X50800Y51054D01*
X381000Y51054D02*
X381000Y63246D01*
X406400Y63246D02*
X406400Y51054D01*
X431800Y51054D02*
X431800Y63246D01*
X457200Y63246D02*
X457200Y51054D01*
X482600Y51054D02*
X482600Y63246D01*
X508000Y63246D02*
X508000Y51054D01*
X533400Y51054D02*
X533400Y63246D01*
X558800Y63246D02*
X558800Y51054D01*
X584200Y51054D02*
X584200Y63246D01*
X609600Y63246D02*
X609600Y51054D01*
X635000Y51054D02*
X635000Y63246D01*
X660400Y63246D02*
X660400Y51054D01*
X685800Y51054D02*
X685800Y63246D01*
X711200Y63246D02*
X711200Y51054D01*
X736600Y51054D02*
X736600Y63246D01*
X762000Y63246D02*
X762000Y51054D01*
X787400Y51054D02*
X787400Y63246D01*
X812800Y63246D02*
X812800Y51054D01*
X838200Y51054D02*
X838200Y63246D01*
X355600Y279654D02*
X355600Y291846D01*
X330200Y291846D02*
X330200Y279654D01*
X304800Y279654D02*
X304800Y291846D01*
X279400Y291846D02*
X279400Y279654D01*
X254000Y279654D02*
X254000Y291846D01*
X228600Y291846D02*
X228600Y279654D01*
X203200Y279654D02*
X203200Y291846D01*
X177800Y291846D02*
X177800Y279654D01*
X152400Y279654D02*
X152400Y291846D01*
X127000Y291846D02*
X127000Y279654D01*
X101600Y279654D02*
X101600Y291846D01*
X76200Y291846D02*
X76200Y279654D01*
X355600Y63246D02*
X355600Y51054D01*
X330200Y51054D02*
X330200Y63246D01*
X304800Y63246D02*
X304800Y51054D01*
X279400Y51054D02*
X279400Y63246D01*
X254000Y63246D02*
X254000Y51054D01*
X228600Y51054D02*
X228600Y63246D01*
X203200Y63246D02*
X203200Y51054D01*
X177800Y51054D02*
X177800Y63246D01*
X152400Y63246D02*
X152400Y51054D01*
X127000Y51054D02*
X127000Y63246D01*
X101600Y63246D02*
X101600Y51054D01*
X76200Y51054D02*
X76200Y63246D01*
D14*
X33020Y647700D02*
X17780Y647700D01*
X17780Y622300D02*
X33020Y622300D01*
X33020Y596900D02*
X17780Y596900D01*
X17780Y571500D02*
X33020Y571500D01*
D15*
X956150Y291650D03*
X936150Y291650D03*
X956150Y311650D03*
X936150Y311650D03*
X956150Y331650D03*
X936150Y331650D03*
X956150Y351650D03*
X936150Y351650D03*
X956150Y371650D03*
X936150Y371650D03*
X956150Y391650D03*
X936150Y391650D03*
X956150Y411650D03*
X936150Y411650D03*
X956150Y431650D03*
X936150Y431650D03*
X956150Y451650D03*
X936150Y451650D03*
X956150Y471650D03*
X936150Y471650D03*
X956150Y491650D03*
X936150Y491650D03*
X956150Y511650D03*
X936150Y511650D03*
X956150Y531650D03*
X936150Y531650D03*
X956150Y551650D03*
X936150Y551650D03*
X956150Y571650D03*
X936150Y571650D03*
X956150Y591650D03*
X936150Y591650D03*
X956150Y611650D03*
X936150Y611650D03*
X956150Y631650D03*
X936150Y631650D03*
X956150Y651650D03*
X936150Y651650D03*
X956150Y671650D03*
X936150Y671650D03*
X956150Y691650D03*
X936150Y691650D03*
X956150Y711650D03*
X936150Y711650D03*
D13*
X838200Y253746D02*
X838200Y241554D01*
X812800Y241554D02*
X812800Y253746D01*
X787400Y253746D02*
X787400Y241554D01*
X762000Y241554D02*
X762000Y253746D01*
X736600Y253746D02*
X736600Y241554D01*
X711200Y241554D02*
X711200Y253746D01*
X685800Y253746D02*
X685800Y241554D01*
X660400Y241554D02*
X660400Y253746D01*
X635000Y253746D02*
X635000Y241554D01*
X609600Y241554D02*
X609600Y253746D01*
X584200Y253746D02*
X584200Y241554D01*
X558800Y241554D02*
X558800Y253746D01*
X533400Y253746D02*
X533400Y241554D01*
X508000Y241554D02*
X508000Y253746D01*
X482600Y253746D02*
X482600Y241554D01*
X457200Y241554D02*
X457200Y253746D01*
X431800Y253746D02*
X431800Y241554D01*
X406400Y241554D02*
X406400Y253746D01*
X381000Y253746D02*
X381000Y241554D01*
X50800Y241554D02*
X50800Y253746D01*
X50800Y25146D02*
X50800Y12954D01*
X381000Y12954D02*
X381000Y25146D01*
X406400Y25146D02*
X406400Y12954D01*
X431800Y12954D02*
X431800Y25146D01*
X457200Y25146D02*
X457200Y12954D01*
X482600Y12954D02*
X482600Y25146D01*
X508000Y25146D02*
X508000Y12954D01*
X533400Y12954D02*
X533400Y25146D01*
X558800Y25146D02*
X558800Y12954D01*
X584200Y12954D02*
X584200Y25146D01*
X609600Y25146D02*
X609600Y12954D01*
X635000Y12954D02*
X635000Y25146D01*
X660400Y25146D02*
X660400Y12954D01*
X685800Y12954D02*
X685800Y25146D01*
X711200Y25146D02*
X711200Y12954D01*
X736600Y12954D02*
X736600Y25146D01*
X762000Y25146D02*
X762000Y12954D01*
X787400Y12954D02*
X787400Y25146D01*
X812800Y25146D02*
X812800Y12954D01*
X838200Y12954D02*
X838200Y25146D01*
X355600Y241554D02*
X355600Y253746D01*
X330200Y253746D02*
X330200Y241554D01*
X304800Y241554D02*
X304800Y253746D01*
X279400Y253746D02*
X279400Y241554D01*
X254000Y241554D02*
X254000Y253746D01*
X228600Y253746D02*
X228600Y241554D01*
X203200Y241554D02*
X203200Y253746D01*
X177800Y253746D02*
X177800Y241554D01*
X152400Y241554D02*
X152400Y253746D01*
X127000Y253746D02*
X127000Y241554D01*
X101600Y241554D02*
X101600Y253746D01*
X76200Y253746D02*
X76200Y241554D01*
X355600Y25146D02*
X355600Y12954D01*
X330200Y12954D02*
X330200Y25146D01*
X304800Y25146D02*
X304800Y12954D01*
X279400Y12954D02*
X279400Y25146D01*
X254000Y25146D02*
X254000Y12954D01*
X228600Y12954D02*
X228600Y25146D01*
X203200Y25146D02*
X203200Y12954D01*
X177800Y12954D02*
X177800Y25146D01*
X152400Y25146D02*
X152400Y12954D01*
X127000Y12954D02*
X127000Y25146D01*
X101600Y25146D02*
X101600Y12954D01*
X76200Y12954D02*
X76200Y25146D01*
D16*
X444500Y660400D03*
X444500Y533400D03*
X508000Y660400D03*
X508000Y533400D03*
D12*
X692150Y698500D03*
X565150Y698500D03*
X692150Y730250D03*
X565150Y730250D03*
X844550Y762000D03*
X717550Y762000D03*
D17*
X717550Y730250D03*
X844550Y730250D03*
D12*
X844550Y698500D03*
X717550Y698500D03*
D14*
X617220Y577850D02*
X601980Y577850D01*
X601980Y603250D02*
X617220Y603250D01*
X617220Y628650D02*
X601980Y628650D01*
D17*
X476250Y749300D03*
X501650Y749300D03*
D16*
X476250Y660400D03*
X476250Y533400D03*
D14*
X563880Y577850D02*
X579120Y577850D01*
X579120Y603250D02*
X563880Y603250D01*
X563880Y628650D02*
X579120Y628650D01*
D18*
X609600Y525780D03*
X609600Y541020D03*
X571500Y525780D03*
X571500Y541020D03*
D17*
X508000Y190500D03*
X558800Y190500D03*
D19*
X457200Y95250D03*
X457200Y146050D03*
D12*
X247650Y673100D03*
X196850Y673100D03*
D17*
X241300Y320675D03*
X292100Y320675D03*
D12*
X863600Y520700D03*
X812800Y520700D03*
X863600Y368300D03*
X812800Y368300D03*
D20*
X482600Y285750D02*
X482600Y247650D01*
D21*
X485775Y581025D02*
X482918Y583883D01*
X485775Y581025D02*
X485775Y287655D01*
X482600Y285750D01*
D22*
X482918Y583883D03*
D21*
X304800Y285750D02*
X304800Y247650D01*
X206693Y612458D02*
X190500Y628650D01*
X206693Y612458D02*
X206693Y498158D01*
X304800Y400050D01*
X304800Y285750D01*
X406718Y285750D02*
X406718Y247650D01*
X406400Y247650D01*
X406400Y285750D02*
X406718Y285750D01*
X333375Y485775D02*
X215900Y603250D01*
X333375Y485775D02*
X333375Y447675D01*
X352425Y428625D01*
X352425Y415290D01*
X358140Y409575D01*
X378143Y409575D01*
X378143Y396240D01*
X405765Y368618D01*
X405765Y285750D01*
X406400Y285750D01*
X431483Y285750D02*
X431483Y247650D01*
X431800Y247650D01*
X431800Y285750D02*
X431483Y285750D01*
X330518Y285750D02*
X330518Y247650D01*
X330200Y247650D01*
X330200Y285750D02*
X330518Y285750D01*
X533400Y285750D02*
X533400Y247650D01*
X489585Y328613D02*
X489585Y590550D01*
X489585Y328613D02*
X532448Y285750D01*
X533400Y285750D01*
D22*
X489585Y590550D03*
D21*
X575310Y263843D02*
X559118Y247650D01*
X575310Y263843D02*
X575310Y360045D01*
X606743Y391478D01*
X606743Y510540D01*
X589598Y527685D01*
X589598Y584835D01*
X571500Y602933D01*
X559118Y247650D02*
X558800Y247650D01*
X571500Y602933D02*
X571500Y603250D01*
X609600Y285750D02*
X609600Y247650D01*
X359093Y612458D02*
X342900Y628650D01*
X359093Y612458D02*
X359093Y599123D01*
X371475Y586740D01*
X400050Y586740D01*
X400050Y554355D01*
X625793Y300990D02*
X610553Y285750D01*
X625793Y300990D02*
X625793Y548640D01*
X628650Y551498D01*
X610553Y285750D02*
X609600Y285750D01*
D22*
X400050Y554355D03*
X628650Y551498D03*
D21*
X228600Y285750D02*
X228600Y247650D01*
X254318Y247650D02*
X254318Y285750D01*
X254318Y247650D02*
X254000Y247650D01*
X254000Y285750D02*
X254318Y285750D01*
X279083Y285750D02*
X279083Y247650D01*
X279400Y247650D01*
X279400Y285750D02*
X279083Y285750D01*
X736283Y285750D02*
X736283Y247650D01*
X736600Y247650D01*
X736600Y285750D02*
X736283Y285750D01*
X730568Y489585D02*
X730568Y526733D01*
X730568Y489585D02*
X727710Y486728D01*
X727710Y441960D02*
X727710Y305753D01*
X727710Y441960D02*
X727710Y486728D01*
X727710Y305753D02*
X735330Y298133D01*
X735330Y285750D01*
X736600Y285750D01*
X727710Y441960D02*
X762000Y441960D01*
D22*
X730568Y526733D03*
X762000Y441960D03*
D21*
X778193Y421958D02*
X778193Y301943D01*
X778193Y421958D02*
X778193Y520065D01*
X778193Y301943D02*
X762000Y285750D01*
X762000Y247650D01*
X778193Y421958D02*
X779145Y421958D01*
D22*
X778193Y520065D03*
X779145Y421958D03*
D21*
X787718Y285750D02*
X787718Y247650D01*
X787400Y247650D01*
X787400Y285750D02*
X787718Y285750D01*
X723900Y300990D02*
X723900Y510540D01*
D22*
X723900Y510540D03*
X723900Y300990D03*
D21*
X812483Y285750D02*
X812483Y247650D01*
X812800Y247650D01*
X812800Y285750D02*
X812483Y285750D01*
X925830Y501968D02*
X924878Y502920D01*
X925830Y501968D02*
X925830Y447675D01*
X931545Y441960D01*
X945833Y441960D01*
X945833Y401955D01*
X955358Y392430D01*
X956150Y391650D01*
D22*
X924878Y502920D03*
D21*
X838200Y285750D02*
X838200Y247650D01*
X359093Y460058D02*
X342900Y476250D01*
X359093Y460058D02*
X359093Y417195D01*
X838200Y359093D02*
X838200Y285750D01*
D22*
X359093Y417195D03*
X838200Y359093D03*
D23*
X838200Y57150D02*
X838200Y19050D01*
D21*
X378143Y485775D02*
X368618Y476250D01*
X378143Y485775D02*
X378143Y558165D01*
X965835Y541973D02*
X965835Y361950D01*
X956310Y352425D01*
X368618Y476250D02*
X368300Y476250D01*
X956310Y352425D02*
X956150Y351650D01*
X850583Y68580D02*
X840105Y58103D01*
X850583Y68580D02*
X850583Y159068D01*
X965835Y274320D01*
X965835Y361950D01*
X840105Y58103D02*
X838200Y57150D01*
D22*
X378143Y558165D03*
X965835Y541973D03*
D23*
X812800Y57150D02*
X812800Y19050D01*
D21*
X797243Y274320D02*
X797243Y375285D01*
X797243Y274320D02*
X805815Y265748D01*
X805815Y260033D01*
X803910Y258128D01*
X803910Y65723D01*
X811530Y58103D01*
X812800Y57150D01*
D22*
X797243Y375285D03*
D23*
X787400Y57150D02*
X787400Y19050D01*
D21*
X796290Y65723D02*
X796290Y196215D01*
X796290Y263843D01*
X796290Y65723D02*
X788670Y58103D01*
X787400Y57150D01*
X796290Y263843D02*
X799148Y263843D01*
D22*
X799148Y263843D03*
D21*
X447675Y200025D02*
X447675Y450533D01*
X795338Y196215D02*
X796290Y196215D01*
D22*
X447675Y450533D03*
X447675Y200025D03*
X795338Y196215D03*
D23*
X762000Y57150D02*
X762000Y19050D01*
D21*
X468630Y79058D02*
X468630Y409575D01*
X771525Y270510D02*
X771525Y65723D01*
X763905Y58103D01*
X762000Y57150D01*
D22*
X468630Y409575D03*
X468630Y79058D03*
X771525Y270510D03*
D23*
X736600Y57150D02*
X736600Y19050D01*
D21*
X410528Y382905D02*
X368618Y424815D01*
X410528Y382905D02*
X410528Y300990D01*
X415290Y296228D01*
X415290Y136208D01*
X736283Y136208D02*
X736283Y59055D01*
X368618Y424815D02*
X368300Y425450D01*
X736283Y59055D02*
X736600Y57150D01*
X913448Y309563D02*
X935355Y331470D01*
X913448Y309563D02*
X913448Y230505D01*
X736283Y230505D02*
X736283Y136208D01*
X935355Y331470D02*
X936150Y331650D01*
D22*
X415290Y136208D03*
X736283Y136208D03*
X913448Y230505D03*
X736283Y230505D03*
D23*
X711200Y57150D02*
X711200Y19050D01*
D21*
X364808Y378143D02*
X342900Y400050D01*
X364808Y378143D02*
X364808Y41910D01*
X906780Y322898D02*
X935355Y351473D01*
X906780Y322898D02*
X906780Y223838D01*
X711518Y223838D02*
X711518Y59055D01*
X935355Y351473D02*
X936150Y351650D01*
X711518Y59055D02*
X711200Y57150D01*
D22*
X364808Y41910D03*
X906780Y223838D03*
X711518Y223838D03*
D23*
X685800Y57150D02*
X685800Y19050D01*
D21*
X390525Y378143D02*
X368618Y400050D01*
X390525Y378143D02*
X390525Y111443D01*
X684848Y111443D02*
X684848Y59055D01*
X368618Y400050D02*
X368300Y400050D01*
X684848Y59055D02*
X685800Y57150D01*
X900113Y336233D02*
X935355Y371475D01*
X900113Y336233D02*
X900113Y217170D01*
X684848Y217170D02*
X684848Y111443D01*
X935355Y371475D02*
X936150Y371650D01*
D22*
X390525Y111443D03*
X684848Y111443D03*
X900113Y217170D03*
X684848Y217170D03*
D23*
X660400Y57150D02*
X660400Y19050D01*
D21*
X661988Y58103D02*
X676275Y72390D01*
X676275Y348615D01*
X661988Y58103D02*
X660400Y57150D01*
D22*
X676275Y348615D03*
D23*
X635000Y57150D02*
X635000Y19050D01*
D21*
X333375Y384810D02*
X318135Y400050D01*
X333375Y384810D02*
X333375Y301943D01*
X339090Y296228D01*
X339090Y129540D01*
X634365Y129540D02*
X634365Y59055D01*
X318135Y400050D02*
X317500Y400050D01*
X634365Y59055D02*
X635000Y57150D01*
D22*
X339090Y129540D03*
X634365Y129540D03*
D21*
X893445Y369570D02*
X935355Y411480D01*
X893445Y369570D02*
X893445Y210503D01*
X634365Y210503D02*
X634365Y129540D01*
D22*
X893445Y210503D03*
X634365Y210503D03*
D21*
X935980Y411480D02*
X936150Y411650D01*
X935980Y411480D02*
X935355Y411480D01*
D23*
X609600Y57150D02*
X609600Y19050D01*
D21*
X314325Y371475D02*
X317500Y374650D01*
X314325Y371475D02*
X314325Y89535D01*
X885825Y381953D02*
X935355Y431483D01*
X885825Y381953D02*
X885825Y202883D01*
X610553Y202883D02*
X610553Y59055D01*
X935355Y431483D02*
X936150Y431650D01*
X610553Y59055D02*
X609600Y57150D01*
D22*
X314325Y89535D03*
X885825Y202883D03*
X610553Y202883D03*
D23*
X584200Y57150D02*
X584200Y19050D01*
D21*
X300990Y391478D02*
X292418Y400050D01*
X300990Y391478D02*
X300990Y300990D01*
X295275Y295275D01*
X295275Y104775D01*
X583883Y104775D02*
X583883Y59055D01*
X292418Y400050D02*
X292100Y400050D01*
X583883Y59055D02*
X584200Y57150D01*
X826770Y104775D02*
X826770Y451485D01*
D22*
X295275Y104775D03*
X583883Y104775D03*
X826770Y451485D03*
X826770Y104775D03*
D21*
X152400Y247650D02*
X152400Y285750D01*
X152400Y590550D02*
X139700Y603250D01*
X152400Y590550D02*
X158115Y590550D01*
X174308Y574358D01*
X174308Y302895D01*
D22*
X174308Y302895D03*
D21*
X178118Y285750D02*
X178118Y247650D01*
X177800Y247650D01*
X177800Y285750D02*
X178118Y285750D01*
X130493Y586740D02*
X114300Y602933D01*
X130493Y586740D02*
X156210Y586740D01*
X156210Y312420D01*
X177165Y291465D01*
X177165Y285750D01*
X114300Y602933D02*
X114300Y603250D01*
X177165Y285750D02*
X177800Y285750D01*
X202883Y285750D02*
X202883Y247650D01*
X203200Y247650D01*
X203200Y285750D02*
X202883Y285750D01*
X156210Y612458D02*
X140018Y628650D01*
X156210Y612458D02*
X156210Y598170D01*
X202883Y551498D01*
X202883Y393383D01*
X203835Y392430D01*
X203835Y285750D01*
X140018Y628650D02*
X139700Y628650D01*
X203200Y285750D02*
X203835Y285750D01*
X355283Y285750D02*
X355283Y247650D01*
X355600Y247650D01*
X355600Y285750D02*
X355283Y285750D01*
X381000Y285750D02*
X381000Y247650D01*
X711518Y247650D02*
X711518Y285750D01*
X711518Y247650D02*
X711200Y247650D01*
X711200Y285750D02*
X711518Y285750D01*
X643890Y408623D02*
X643890Y542925D01*
X643890Y408623D02*
X635318Y400050D01*
X635000Y400050D01*
X710565Y382905D02*
X710565Y285750D01*
X711200Y285750D01*
D22*
X643890Y542925D03*
X710565Y382905D03*
D21*
X635318Y285750D02*
X635318Y247650D01*
X635000Y247650D01*
X635000Y285750D02*
X635318Y285750D01*
X651510Y408623D02*
X651510Y592455D01*
X651510Y408623D02*
X660083Y400050D01*
X660400Y400050D01*
X650558Y300038D02*
X636270Y285750D01*
X650558Y300038D02*
X650558Y408623D01*
X636270Y285750D02*
X635000Y285750D01*
X650558Y408623D02*
X651510Y408623D01*
D22*
X651510Y592455D03*
D21*
X685800Y285750D02*
X685800Y247650D01*
X417195Y528638D02*
X368618Y577215D01*
X417195Y528638D02*
X417195Y309563D01*
X368618Y577215D02*
X368300Y577850D01*
D22*
X417195Y309563D03*
D21*
X660083Y285750D02*
X660083Y247650D01*
X660400Y247650D01*
X660400Y285750D02*
X660083Y285750D01*
X435293Y300990D02*
X435293Y571500D01*
X435293Y300990D02*
X441008Y295275D01*
X441008Y270510D01*
D22*
X435293Y571500D03*
X441008Y270510D03*
D21*
X126683Y285750D02*
X126683Y247650D01*
X127000Y247650D01*
X127000Y285750D02*
X126683Y285750D01*
X127635Y565785D02*
X139700Y577850D01*
X127635Y565785D02*
X127635Y394335D01*
X126683Y393383D01*
X126683Y286703D01*
X127000Y285750D01*
X101918Y285750D02*
X101918Y247650D01*
X101600Y247650D01*
X101600Y285750D02*
X101918Y285750D01*
X123825Y542925D02*
X114300Y552450D01*
X123825Y542925D02*
X123825Y498158D01*
X111443Y485775D01*
X100965Y485775D01*
X100965Y285750D01*
X101600Y285750D01*
X104775Y648653D02*
X105728Y649605D01*
X104775Y648653D02*
X104775Y561023D01*
X113348Y552450D01*
X114300Y552450D01*
D22*
X105728Y649605D03*
D21*
X76200Y285750D02*
X76200Y247650D01*
X76200Y285750D02*
X76200Y496253D01*
X331470Y596265D02*
X332423Y597218D01*
X331470Y596265D02*
X331470Y553403D01*
D22*
X76200Y496253D03*
X332423Y597218D03*
X331470Y553403D03*
D21*
X50483Y285750D02*
X50483Y247650D01*
X50800Y247650D01*
X50800Y285750D02*
X50483Y285750D01*
X90488Y502920D02*
X99536Y511969D01*
X114300Y526733D01*
X90488Y502920D02*
X51435Y502920D01*
X51435Y285750D01*
X114300Y526733D02*
X114300Y527050D01*
X51435Y285750D02*
X50800Y285750D01*
X923925Y643890D02*
X935355Y632460D01*
X923925Y643890D02*
X923925Y707708D01*
X99060Y707708D02*
X99060Y512445D01*
X935355Y632460D02*
X936150Y631650D01*
X99536Y511969D02*
X99060Y512445D01*
D22*
X923925Y707708D03*
X99060Y707708D03*
D23*
X50800Y57150D02*
X50800Y19050D01*
D21*
X52388Y58103D02*
X60008Y65723D01*
X60008Y485775D01*
X52388Y58103D02*
X50800Y57150D01*
D22*
X60008Y485775D03*
D23*
X76200Y57150D02*
X76200Y19050D01*
D21*
X94298Y501015D02*
X114300Y501015D01*
X94298Y501015D02*
X92393Y499110D01*
X85725Y499110D01*
X85725Y65723D01*
X78105Y58103D01*
X114300Y501015D02*
X114300Y501650D01*
X78105Y58103D02*
X76200Y57150D01*
D23*
X101600Y57150D02*
X101600Y19050D01*
D21*
X92393Y65723D02*
X92393Y492443D01*
X92393Y65723D02*
X100013Y58103D01*
X101600Y57150D01*
D22*
X92393Y492443D03*
D23*
X127000Y57150D02*
X127000Y19050D01*
D21*
X123825Y466725D02*
X114300Y476250D01*
X123825Y466725D02*
X123825Y396240D01*
X118110Y390525D01*
X118110Y65723D01*
X125730Y58103D01*
X127000Y57150D01*
D23*
X152400Y57150D02*
X152400Y19050D01*
D21*
X104775Y463868D02*
X107633Y466725D01*
X104775Y463868D02*
X104775Y301943D01*
X110490Y296228D01*
X110490Y72390D01*
D22*
X107633Y466725D03*
X110490Y72390D03*
D23*
X177800Y57150D02*
X177800Y19050D01*
D21*
X148590Y433388D02*
X145733Y436245D01*
X148590Y433388D02*
X148590Y308610D01*
X164783Y292418D01*
X164783Y69533D01*
X176213Y58103D01*
X177800Y57150D01*
D22*
X145733Y436245D03*
D23*
X203200Y57150D02*
X203200Y19050D01*
D21*
X152400Y438150D02*
X139700Y450850D01*
X152400Y438150D02*
X152400Y310515D01*
X168593Y294323D01*
X168593Y91440D01*
X201930Y58103D01*
X203200Y57150D01*
D23*
X228600Y57150D02*
X228600Y19050D01*
D21*
X224790Y300990D02*
X224790Y416243D01*
X224790Y300990D02*
X219075Y295275D01*
X219075Y65723D01*
X226695Y58103D01*
X228600Y57150D01*
D22*
X224790Y416243D03*
D23*
X254000Y57150D02*
X254000Y19050D01*
D21*
X250508Y300990D02*
X250508Y424815D01*
X250508Y300990D02*
X244793Y295275D01*
X244793Y65723D01*
X252413Y58103D01*
X254000Y57150D01*
D22*
X250508Y424815D03*
D23*
X279400Y57150D02*
X279400Y19050D01*
D21*
X141923Y372428D02*
X139700Y374650D01*
X141923Y372428D02*
X141923Y72390D01*
D22*
X141923Y72390D03*
D23*
X304800Y57150D02*
X304800Y19050D01*
D21*
X130493Y391478D02*
X139065Y400050D01*
X130493Y391478D02*
X130493Y300990D01*
X136208Y295275D01*
X136208Y80010D01*
X135255Y79058D01*
X139065Y400050D02*
X139700Y400050D01*
D22*
X135255Y79058D03*
D23*
X330200Y57150D02*
X330200Y19050D01*
D21*
X320993Y65723D02*
X320993Y232410D01*
X320993Y352425D01*
X320993Y65723D02*
X328613Y58103D01*
X330200Y57150D01*
X669608Y460058D02*
X685800Y476250D01*
X669608Y460058D02*
X669608Y232410D01*
X321945Y232410D02*
X320993Y232410D01*
D22*
X320993Y352425D03*
X669608Y232410D03*
X321945Y232410D03*
D23*
X355600Y57150D02*
X355600Y19050D01*
D21*
X352425Y381953D02*
X350520Y383858D01*
X352425Y381953D02*
X352425Y301943D01*
X346710Y296228D01*
X346710Y65723D01*
X354330Y58103D01*
X355600Y57150D01*
X329565Y481013D02*
X326708Y483870D01*
X329565Y481013D02*
X329565Y400050D01*
X345758Y383858D01*
X350520Y383858D01*
D22*
X350520Y383858D03*
X326708Y483870D03*
D23*
X381000Y57150D02*
X381000Y19050D01*
D21*
X371475Y65723D02*
X371475Y359093D01*
X371475Y65723D02*
X379095Y58103D01*
X381000Y57150D01*
X737235Y476250D02*
X737235Y528638D01*
X732473Y533400D01*
X717233Y533400D01*
X717233Y489585D01*
X720090Y486728D01*
X720090Y341948D01*
X717233Y339090D01*
X736600Y476250D02*
X737235Y476250D01*
D22*
X371475Y359093D03*
X717233Y339090D03*
D23*
X406400Y57150D02*
X406400Y19050D01*
D21*
X200025Y390525D02*
X190500Y400050D01*
X200025Y390525D02*
X200025Y301943D01*
X194310Y296228D01*
X194310Y85725D01*
X190500Y400050D02*
X190500Y492443D01*
D22*
X194310Y85725D03*
X190500Y492443D03*
D23*
X431800Y57150D02*
X431800Y19050D01*
D21*
X423863Y297180D02*
X423863Y365760D01*
X423863Y297180D02*
X422910Y296228D01*
X422910Y65723D01*
X430530Y58103D01*
X431800Y57150D01*
X701993Y342900D02*
X701993Y461010D01*
D22*
X423863Y365760D03*
X701993Y461010D03*
X701993Y342900D03*
D23*
X482600Y57150D02*
X482600Y19050D01*
D21*
X473393Y388620D02*
X475298Y390525D01*
X473393Y325755D02*
X473393Y82868D01*
X473393Y325755D02*
X473393Y388620D01*
X473393Y82868D02*
X481013Y75248D01*
X481013Y58103D01*
X482600Y57150D01*
X803910Y467678D02*
X812483Y476250D01*
X803910Y467678D02*
X803910Y325755D01*
X812483Y476250D02*
X812800Y476250D01*
X475298Y325755D02*
X473393Y325755D01*
D22*
X475298Y390525D03*
X803910Y325755D03*
X475298Y325755D03*
D23*
X508000Y57150D02*
X508000Y19050D01*
D21*
X276225Y364808D02*
X266700Y374333D01*
X276225Y364808D02*
X276225Y302895D01*
X499110Y302895D02*
X499110Y65723D01*
X506730Y58103D01*
X266700Y374333D02*
X266700Y374650D01*
X506730Y58103D02*
X508000Y57150D01*
X852488Y461963D02*
X838200Y476250D01*
X852488Y461963D02*
X852488Y316230D01*
D22*
X276225Y302895D03*
X499110Y302895D03*
X852488Y316230D03*
D23*
X533400Y57150D02*
X533400Y19050D01*
D21*
X282893Y383858D02*
X266700Y400050D01*
X282893Y383858D02*
X282893Y300990D01*
X288608Y295275D01*
X288608Y34290D01*
X863918Y476250D02*
X872490Y467678D01*
X872490Y186690D01*
X833438Y147638D01*
X833438Y71438D01*
X828675Y66675D01*
X828675Y34290D01*
X863600Y476250D02*
X863918Y476250D01*
D22*
X288608Y34290D03*
X828675Y34290D03*
D21*
X616268Y519113D02*
X609600Y525780D01*
X616268Y519113D02*
X616268Y320040D01*
X584835Y288608D01*
X584835Y285750D01*
X584200Y285750D01*
D20*
X457200Y57150D02*
X457200Y19050D01*
X508000Y247650D02*
X508000Y285750D01*
X457200Y95250D02*
X457200Y57150D01*
X508000Y190500D02*
X508000Y247650D01*
X241300Y320675D02*
X241300Y374650D01*
X266700Y654050D02*
X247650Y673100D01*
X266700Y654050D02*
X266700Y628650D01*
X863600Y552450D02*
X863600Y520700D01*
X863600Y400050D02*
X863600Y368300D01*
D21*
X600075Y262890D02*
X584835Y247650D01*
X600075Y262890D02*
X600075Y298133D01*
X621983Y320040D01*
X621983Y567690D01*
X627698Y573405D01*
X627698Y584835D01*
X609600Y602933D01*
X584835Y247650D02*
X584200Y247650D01*
X609600Y602933D02*
X609600Y603250D01*
X571500Y525780D02*
X585788Y511493D01*
X585788Y471488D01*
X602933Y454343D01*
X602933Y393383D01*
X559118Y349568D01*
X559118Y285750D01*
X558800Y285750D01*
X787718Y400050D02*
X800100Y412433D01*
X800100Y540068D01*
X812483Y552450D01*
X787718Y400050D02*
X787400Y400050D01*
X812483Y552450D02*
X812800Y552450D01*
X736283Y552450D02*
X736283Y628650D01*
X736600Y628650D01*
X736283Y552450D02*
X736600Y552450D01*
X704850Y685800D02*
X692150Y698500D01*
X704850Y685800D02*
X704850Y659130D01*
X735330Y628650D01*
X736600Y628650D01*
X708660Y713423D02*
X692468Y729615D01*
X708660Y713423D02*
X708660Y681990D01*
X762000Y628650D01*
X692468Y729615D02*
X692150Y730250D01*
X918210Y422910D02*
X910590Y415290D01*
X918210Y422910D02*
X918210Y607695D01*
X932498Y621983D01*
X945833Y621983D01*
X945833Y641985D01*
X936308Y651510D01*
X936150Y651650D01*
D22*
X910590Y415290D03*
D21*
X945833Y681990D02*
X945833Y762000D01*
X945833Y681990D02*
X955358Y672465D01*
X956150Y671650D01*
D22*
X945833Y762000D03*
D21*
X695325Y409575D02*
X685800Y400050D01*
X695325Y409575D02*
X695325Y662940D01*
D22*
X695325Y662940D03*
D21*
X838200Y692468D02*
X843915Y698183D01*
X838200Y692468D02*
X838200Y628650D01*
X843915Y698183D02*
X844550Y698500D01*
X965835Y729615D02*
X965835Y581978D01*
X956310Y572453D01*
X956150Y571650D01*
D22*
X965835Y729615D03*
D21*
X771525Y434340D02*
X737235Y400050D01*
X771525Y434340D02*
X771525Y510540D01*
X737235Y400050D02*
X736600Y400050D01*
D22*
X771525Y510540D03*
D21*
X812483Y628650D02*
X812483Y688658D01*
X812483Y628650D02*
X812800Y628650D01*
D22*
X812483Y688658D03*
D21*
X820103Y406718D02*
X813435Y400050D01*
X820103Y406718D02*
X820103Y464820D01*
X822008Y466725D01*
X822008Y673418D01*
X813435Y400050D02*
X812800Y400050D01*
D22*
X822008Y673418D03*
D21*
X838200Y400050D02*
X847725Y390525D01*
X847725Y334328D01*
X845820Y332423D01*
X43815Y333375D02*
X43815Y578168D01*
X25718Y596265D01*
X25400Y596900D01*
D22*
X845820Y332423D03*
X43815Y333375D03*
D21*
X571500Y541020D02*
X571500Y577850D01*
X476250Y577215D02*
X476250Y638175D01*
D22*
X476250Y638175D03*
X476250Y577215D03*
D21*
X609600Y577850D02*
X609600Y541020D01*
X318135Y628650D02*
X318135Y660083D01*
X318135Y628650D02*
X317500Y628650D01*
X444818Y624840D02*
X444818Y660083D01*
X444500Y660400D01*
D22*
X318135Y660083D03*
X444818Y624840D03*
M02*
