G04 EAGLE Gerber RS-274X export*
G75*
%MOMM*%
%FSLAX34Y34*%
%LPD*%
%INLayer 3*%
%IPPOS*%
%AMOC8*
5,1,8,0,0,1.08239X$1,22.5*%
G01*
%ADD10C,0.000000*%
%ADD11C,1.219200*%
%ADD12C,1.524000*%
%ADD13C,1.350000*%
%ADD14C,0.609600*%

G36*
X851478Y5084D02*
X851478Y5084D01*
X851497Y5082D01*
X851599Y5104D01*
X851701Y5120D01*
X851718Y5130D01*
X851738Y5134D01*
X851827Y5187D01*
X851918Y5236D01*
X851932Y5250D01*
X851949Y5260D01*
X852016Y5339D01*
X852088Y5414D01*
X852096Y5432D01*
X852109Y5447D01*
X852148Y5543D01*
X852191Y5637D01*
X852193Y5657D01*
X852201Y5675D01*
X852219Y5842D01*
X852219Y139747D01*
X852218Y141854D01*
X853701Y143336D01*
X853701Y143337D01*
X981997Y271730D01*
X982050Y271804D01*
X982109Y271874D01*
X982121Y271904D01*
X982140Y271930D01*
X982167Y272017D01*
X982181Y272053D01*
X982191Y272074D01*
X982192Y272079D01*
X982201Y272102D01*
X982205Y272143D01*
X982212Y272165D01*
X982211Y272197D01*
X982219Y272268D01*
X982219Y777008D01*
X982217Y777020D01*
X982218Y777028D01*
X982217Y777034D01*
X982218Y777047D01*
X982196Y777149D01*
X982180Y777251D01*
X982170Y777268D01*
X982166Y777288D01*
X982113Y777377D01*
X982064Y777468D01*
X982050Y777482D01*
X982040Y777499D01*
X981961Y777566D01*
X981886Y777638D01*
X981868Y777646D01*
X981853Y777659D01*
X981757Y777698D01*
X981663Y777741D01*
X981643Y777743D01*
X981625Y777751D01*
X981458Y777769D01*
X475420Y777769D01*
X475330Y777755D01*
X475239Y777747D01*
X475209Y777735D01*
X475177Y777730D01*
X475096Y777687D01*
X475013Y777651D01*
X474980Y777625D01*
X474960Y777614D01*
X474942Y777596D01*
X474940Y777595D01*
X474933Y777588D01*
X474882Y777546D01*
X425905Y728569D01*
X5842Y728569D01*
X5822Y728566D01*
X5803Y728568D01*
X5701Y728546D01*
X5599Y728530D01*
X5582Y728520D01*
X5562Y728516D01*
X5473Y728463D01*
X5382Y728414D01*
X5368Y728400D01*
X5351Y728390D01*
X5284Y728311D01*
X5212Y728236D01*
X5204Y728218D01*
X5191Y728203D01*
X5152Y728107D01*
X5109Y728013D01*
X5107Y727993D01*
X5099Y727975D01*
X5081Y727808D01*
X5081Y5842D01*
X5084Y5822D01*
X5082Y5803D01*
X5104Y5701D01*
X5120Y5599D01*
X5130Y5582D01*
X5134Y5562D01*
X5187Y5473D01*
X5236Y5382D01*
X5250Y5368D01*
X5260Y5351D01*
X5339Y5284D01*
X5414Y5212D01*
X5432Y5204D01*
X5447Y5191D01*
X5543Y5152D01*
X5637Y5109D01*
X5657Y5107D01*
X5675Y5099D01*
X5842Y5081D01*
X851458Y5081D01*
X851478Y5084D01*
G37*
%LPC*%
G36*
X538848Y376719D02*
X538848Y376719D01*
X524840Y380473D01*
X512280Y387724D01*
X502024Y397980D01*
X494773Y410540D01*
X491019Y424548D01*
X491019Y439052D01*
X494773Y453060D01*
X502024Y465620D01*
X512280Y475876D01*
X524840Y483127D01*
X538848Y486881D01*
X553352Y486881D01*
X567360Y483127D01*
X579920Y475876D01*
X590176Y465620D01*
X597427Y453060D01*
X601181Y439052D01*
X601181Y424548D01*
X597427Y410540D01*
X590176Y397980D01*
X579920Y387724D01*
X567360Y380473D01*
X553352Y376719D01*
X538848Y376719D01*
G37*
%LPD*%
%LPC*%
G36*
X954454Y523121D02*
X954454Y523121D01*
X951319Y524420D01*
X948920Y526819D01*
X947621Y529954D01*
X947621Y533346D01*
X948920Y536481D01*
X951319Y538880D01*
X954454Y540179D01*
X957846Y540179D01*
X959956Y539305D01*
X960000Y539295D01*
X960042Y539275D01*
X960119Y539267D01*
X960195Y539249D01*
X960241Y539253D01*
X960286Y539248D01*
X960363Y539265D01*
X960440Y539272D01*
X960482Y539291D01*
X960527Y539300D01*
X960594Y539340D01*
X960665Y539372D01*
X960699Y539403D01*
X960738Y539427D01*
X960789Y539486D01*
X960846Y539538D01*
X960868Y539579D01*
X960898Y539613D01*
X960927Y539686D01*
X960964Y539754D01*
X960973Y539799D01*
X960990Y539842D01*
X961005Y539978D01*
X961008Y539996D01*
X961007Y540001D01*
X961008Y540008D01*
X961008Y543292D01*
X961006Y543308D01*
X961007Y543324D01*
X961001Y543351D01*
X961003Y543383D01*
X960981Y543458D01*
X960969Y543534D01*
X960957Y543557D01*
X960955Y543564D01*
X960946Y543580D01*
X960934Y543619D01*
X960890Y543683D01*
X960853Y543752D01*
X960829Y543775D01*
X960826Y543778D01*
X960820Y543783D01*
X960794Y543821D01*
X960731Y543868D01*
X960675Y543921D01*
X960633Y543940D01*
X960597Y543968D01*
X960523Y543992D01*
X960452Y544025D01*
X960406Y544030D01*
X960363Y544044D01*
X960285Y544043D01*
X960208Y544052D01*
X960163Y544042D01*
X960117Y544042D01*
X960003Y544009D01*
X959987Y544006D01*
X959980Y544002D01*
X959967Y544000D01*
X959963Y543997D01*
X959956Y543995D01*
X957846Y543121D01*
X954454Y543121D01*
X951319Y544420D01*
X948920Y546819D01*
X947621Y549954D01*
X947621Y553346D01*
X948920Y556481D01*
X951319Y558880D01*
X954454Y560179D01*
X957846Y560179D01*
X960981Y558880D01*
X963380Y556481D01*
X964679Y553346D01*
X964679Y549954D01*
X963808Y547852D01*
X963798Y547807D01*
X963778Y547765D01*
X963770Y547688D01*
X963752Y547612D01*
X963756Y547567D01*
X963751Y547521D01*
X963768Y547445D01*
X963775Y547367D01*
X963794Y547326D01*
X963803Y547281D01*
X963843Y547214D01*
X963875Y547143D01*
X963906Y547109D01*
X963930Y547070D01*
X963989Y547019D01*
X964041Y546962D01*
X964082Y546939D01*
X964117Y546910D01*
X964189Y546881D01*
X964257Y546843D01*
X964302Y546835D01*
X964345Y546818D01*
X964481Y546803D01*
X964499Y546799D01*
X964504Y546800D01*
X964511Y546799D01*
X967834Y546799D01*
X970662Y543972D01*
X970662Y539973D01*
X967834Y537146D01*
X964244Y537146D01*
X964199Y537138D01*
X964153Y537140D01*
X964078Y537119D01*
X964002Y537106D01*
X963961Y537085D01*
X963917Y537072D01*
X963853Y537027D01*
X963784Y536991D01*
X963753Y536958D01*
X963715Y536932D01*
X963668Y536869D01*
X963615Y536813D01*
X963595Y536771D01*
X963568Y536734D01*
X963544Y536660D01*
X963511Y536590D01*
X963506Y536544D01*
X963492Y536500D01*
X963493Y536422D01*
X963484Y536345D01*
X963494Y536300D01*
X963494Y536254D01*
X963532Y536123D01*
X963536Y536105D01*
X963539Y536100D01*
X963541Y536093D01*
X964679Y533346D01*
X964679Y529954D01*
X963380Y526819D01*
X960981Y524420D01*
X957846Y523121D01*
X954454Y523121D01*
G37*
%LPD*%
%LPC*%
G36*
X883826Y198056D02*
X883826Y198056D01*
X880998Y200883D01*
X880998Y204882D01*
X883826Y207709D01*
X887857Y207709D01*
X887877Y207712D01*
X887896Y207710D01*
X887998Y207732D01*
X888100Y207749D01*
X888117Y207758D01*
X888137Y207763D01*
X888226Y207816D01*
X888317Y207864D01*
X888331Y207878D01*
X888348Y207889D01*
X888415Y207967D01*
X888487Y208042D01*
X888495Y208060D01*
X888508Y208076D01*
X888547Y208172D01*
X888590Y208265D01*
X888592Y208285D01*
X888600Y208304D01*
X888618Y208470D01*
X888618Y212502D01*
X891446Y215329D01*
X894525Y215329D01*
X894544Y215332D01*
X894564Y215330D01*
X894665Y215352D01*
X894767Y215369D01*
X894785Y215378D01*
X894804Y215383D01*
X894893Y215436D01*
X894985Y215484D01*
X894998Y215498D01*
X895015Y215509D01*
X895083Y215587D01*
X895154Y215662D01*
X895162Y215680D01*
X895175Y215696D01*
X895214Y215792D01*
X895258Y215885D01*
X895260Y215905D01*
X895267Y215924D01*
X895286Y216090D01*
X895286Y219169D01*
X898113Y221997D01*
X901192Y221997D01*
X901212Y222000D01*
X901231Y221998D01*
X901333Y222020D01*
X901435Y222036D01*
X901452Y222046D01*
X901472Y222050D01*
X901561Y222103D01*
X901652Y222152D01*
X901666Y222166D01*
X901683Y222176D01*
X901750Y222255D01*
X901822Y222330D01*
X901830Y222348D01*
X901843Y222363D01*
X901882Y222459D01*
X901925Y222553D01*
X901927Y222573D01*
X901935Y222591D01*
X901953Y222758D01*
X901953Y225837D01*
X904781Y228664D01*
X907860Y228664D01*
X907879Y228667D01*
X907899Y228665D01*
X908000Y228687D01*
X908102Y228704D01*
X908120Y228713D01*
X908139Y228718D01*
X908228Y228771D01*
X908320Y228819D01*
X908333Y228833D01*
X908350Y228844D01*
X908418Y228922D01*
X908489Y228997D01*
X908497Y229015D01*
X908510Y229031D01*
X908549Y229127D01*
X908593Y229220D01*
X908595Y229240D01*
X908602Y229259D01*
X908621Y229425D01*
X908621Y232504D01*
X911448Y235332D01*
X915447Y235332D01*
X918274Y232504D01*
X918274Y228506D01*
X915447Y225678D01*
X912368Y225678D01*
X912348Y225675D01*
X912329Y225677D01*
X912227Y225655D01*
X912125Y225639D01*
X912108Y225629D01*
X912088Y225625D01*
X911999Y225572D01*
X911908Y225523D01*
X911894Y225509D01*
X911877Y225499D01*
X911810Y225420D01*
X911738Y225345D01*
X911730Y225327D01*
X911717Y225312D01*
X911678Y225216D01*
X911635Y225122D01*
X911633Y225102D01*
X911625Y225084D01*
X911607Y224917D01*
X911607Y221838D01*
X908779Y219011D01*
X905700Y219011D01*
X905681Y219008D01*
X905661Y219010D01*
X905560Y218988D01*
X905458Y218971D01*
X905440Y218962D01*
X905421Y218957D01*
X905332Y218904D01*
X905240Y218856D01*
X905227Y218842D01*
X905210Y218831D01*
X905142Y218753D01*
X905071Y218678D01*
X905063Y218660D01*
X905050Y218644D01*
X905011Y218548D01*
X904967Y218455D01*
X904965Y218435D01*
X904958Y218416D01*
X904939Y218250D01*
X904939Y215171D01*
X902112Y212343D01*
X899033Y212343D01*
X899013Y212340D01*
X898994Y212342D01*
X898892Y212320D01*
X898790Y212304D01*
X898773Y212294D01*
X898753Y212290D01*
X898664Y212237D01*
X898573Y212188D01*
X898559Y212174D01*
X898542Y212164D01*
X898475Y212085D01*
X898403Y212010D01*
X898395Y211992D01*
X898382Y211977D01*
X898343Y211881D01*
X898300Y211787D01*
X898298Y211767D01*
X898290Y211749D01*
X898272Y211582D01*
X898272Y208503D01*
X895444Y205676D01*
X891413Y205676D01*
X891393Y205673D01*
X891374Y205675D01*
X891272Y205653D01*
X891170Y205636D01*
X891153Y205627D01*
X891133Y205622D01*
X891044Y205569D01*
X890953Y205521D01*
X890939Y205507D01*
X890922Y205496D01*
X890855Y205418D01*
X890783Y205343D01*
X890775Y205325D01*
X890762Y205309D01*
X890723Y205213D01*
X890680Y205120D01*
X890678Y205100D01*
X890670Y205081D01*
X890652Y204915D01*
X890652Y200883D01*
X887824Y198056D01*
X883826Y198056D01*
G37*
%LPD*%
%LPC*%
G36*
X922878Y498093D02*
X922878Y498093D01*
X920051Y500921D01*
X920051Y504919D01*
X922878Y507747D01*
X926877Y507747D01*
X927002Y507622D01*
X927081Y507565D01*
X927156Y507503D01*
X927181Y507493D01*
X927202Y507478D01*
X927295Y507449D01*
X927386Y507414D01*
X927412Y507413D01*
X927437Y507406D01*
X927534Y507408D01*
X927631Y507404D01*
X927657Y507411D01*
X927683Y507412D01*
X927774Y507445D01*
X927868Y507473D01*
X927889Y507487D01*
X927914Y507496D01*
X927990Y507557D01*
X928070Y507613D01*
X928085Y507634D01*
X928106Y507650D01*
X928159Y507732D01*
X928217Y507810D01*
X928225Y507835D01*
X928239Y507857D01*
X928263Y507952D01*
X928293Y508044D01*
X928292Y508070D01*
X928299Y508096D01*
X928291Y508193D01*
X928290Y508290D01*
X928281Y508321D01*
X928280Y508341D01*
X928267Y508371D01*
X928244Y508451D01*
X927621Y509954D01*
X927621Y513346D01*
X928920Y516481D01*
X931319Y518880D01*
X934454Y520179D01*
X937846Y520179D01*
X940981Y518880D01*
X943380Y516481D01*
X944679Y513346D01*
X944679Y509954D01*
X943380Y506819D01*
X940981Y504420D01*
X937846Y503121D01*
X934454Y503121D01*
X931319Y504420D01*
X931004Y504735D01*
X930946Y504777D01*
X930894Y504826D01*
X930846Y504848D01*
X930804Y504878D01*
X930736Y504899D01*
X930670Y504930D01*
X930619Y504935D01*
X930569Y504951D01*
X930497Y504949D01*
X930426Y504957D01*
X930375Y504946D01*
X930323Y504944D01*
X930256Y504920D01*
X930186Y504904D01*
X930141Y504878D01*
X930092Y504860D01*
X930036Y504815D01*
X929975Y504778D01*
X929941Y504739D01*
X929900Y504706D01*
X929861Y504646D01*
X929815Y504591D01*
X929795Y504543D01*
X929767Y504499D01*
X929750Y504430D01*
X929723Y504363D01*
X929715Y504292D01*
X929707Y504261D01*
X929709Y504237D01*
X929704Y504197D01*
X929704Y500921D01*
X926877Y498093D01*
X922878Y498093D01*
G37*
%LPD*%
%LPC*%
G36*
X921926Y702881D02*
X921926Y702881D01*
X919098Y705708D01*
X919098Y709707D01*
X921926Y712534D01*
X925924Y712534D01*
X926322Y712137D01*
X926380Y712095D01*
X926432Y712046D01*
X926479Y712024D01*
X926521Y711993D01*
X926590Y711972D01*
X926655Y711942D01*
X926707Y711936D01*
X926757Y711921D01*
X926828Y711923D01*
X926899Y711915D01*
X926950Y711926D01*
X927002Y711927D01*
X927070Y711952D01*
X927140Y711967D01*
X927185Y711994D01*
X927233Y712012D01*
X927289Y712057D01*
X927351Y712093D01*
X927385Y712133D01*
X927425Y712165D01*
X927464Y712226D01*
X927511Y712280D01*
X927530Y712329D01*
X927558Y712372D01*
X927576Y712442D01*
X927603Y712508D01*
X927611Y712580D01*
X927619Y712611D01*
X927617Y712634D01*
X927621Y712675D01*
X927621Y713346D01*
X928920Y716481D01*
X931319Y718880D01*
X934454Y720179D01*
X937846Y720179D01*
X940981Y718880D01*
X943380Y716481D01*
X944679Y713346D01*
X944679Y709954D01*
X943380Y706819D01*
X940981Y704420D01*
X937846Y703121D01*
X934454Y703121D01*
X931319Y704420D01*
X929929Y705809D01*
X929913Y705821D01*
X929901Y705836D01*
X929813Y705892D01*
X929730Y705953D01*
X929711Y705959D01*
X929694Y705969D01*
X929593Y705995D01*
X929495Y706025D01*
X929475Y706025D01*
X929455Y706029D01*
X929352Y706021D01*
X929249Y706019D01*
X929230Y706012D01*
X929210Y706010D01*
X929115Y705970D01*
X929018Y705934D01*
X929002Y705922D01*
X928984Y705914D01*
X928853Y705809D01*
X925924Y702881D01*
X921926Y702881D01*
G37*
%LPD*%
%LPC*%
G36*
X607730Y619251D02*
X607730Y619251D01*
X604276Y620682D01*
X601632Y623326D01*
X600201Y626780D01*
X600201Y630520D01*
X601632Y633974D01*
X604276Y636618D01*
X607730Y638049D01*
X611470Y638049D01*
X614924Y636618D01*
X617568Y633974D01*
X618999Y630520D01*
X618999Y626780D01*
X617568Y623326D01*
X614924Y620682D01*
X611470Y619251D01*
X607730Y619251D01*
G37*
%LPD*%
%LPC*%
G36*
X569630Y619251D02*
X569630Y619251D01*
X566176Y620682D01*
X563532Y623326D01*
X562101Y626780D01*
X562101Y630520D01*
X563532Y633974D01*
X566176Y636618D01*
X569630Y638049D01*
X573370Y638049D01*
X576824Y636618D01*
X579468Y633974D01*
X580899Y630520D01*
X580899Y626780D01*
X579468Y623326D01*
X576824Y620682D01*
X573370Y619251D01*
X569630Y619251D01*
G37*
%LPD*%
%LPC*%
G36*
X23530Y612901D02*
X23530Y612901D01*
X20076Y614332D01*
X17432Y616976D01*
X16001Y620430D01*
X16001Y624170D01*
X17432Y627624D01*
X20076Y630268D01*
X23530Y631699D01*
X27270Y631699D01*
X30724Y630268D01*
X33368Y627624D01*
X34799Y624170D01*
X34799Y620430D01*
X33368Y616976D01*
X30724Y614332D01*
X27270Y612901D01*
X23530Y612901D01*
G37*
%LPD*%
%LPC*%
G36*
X607730Y593851D02*
X607730Y593851D01*
X604276Y595282D01*
X601632Y597926D01*
X600201Y601380D01*
X600201Y605120D01*
X601632Y608574D01*
X604276Y611218D01*
X607730Y612649D01*
X611470Y612649D01*
X614924Y611218D01*
X617568Y608574D01*
X618999Y605120D01*
X618999Y601380D01*
X617568Y597926D01*
X614924Y595282D01*
X611470Y593851D01*
X607730Y593851D01*
G37*
%LPD*%
%LPC*%
G36*
X569630Y593851D02*
X569630Y593851D01*
X566176Y595282D01*
X563532Y597926D01*
X562101Y601380D01*
X562101Y605120D01*
X563532Y608574D01*
X566176Y611218D01*
X569630Y612649D01*
X573370Y612649D01*
X576824Y611218D01*
X579468Y608574D01*
X580899Y605120D01*
X580899Y601380D01*
X579468Y597926D01*
X576824Y595282D01*
X573370Y593851D01*
X569630Y593851D01*
G37*
%LPD*%
%LPC*%
G36*
X569630Y568451D02*
X569630Y568451D01*
X566176Y569882D01*
X563532Y572526D01*
X562101Y575980D01*
X562101Y579720D01*
X563532Y583174D01*
X566176Y585818D01*
X569630Y587249D01*
X573370Y587249D01*
X576824Y585818D01*
X579468Y583174D01*
X580899Y579720D01*
X580899Y575980D01*
X579468Y572526D01*
X576824Y569882D01*
X573370Y568451D01*
X569630Y568451D01*
G37*
%LPD*%
%LPC*%
G36*
X23530Y562101D02*
X23530Y562101D01*
X20076Y563532D01*
X17432Y566176D01*
X16001Y569630D01*
X16001Y573370D01*
X17432Y576824D01*
X20076Y579468D01*
X23530Y580899D01*
X27270Y580899D01*
X30724Y579468D01*
X33368Y576824D01*
X34799Y573370D01*
X34799Y569630D01*
X33368Y566176D01*
X30724Y563532D01*
X27270Y562101D01*
X23530Y562101D01*
G37*
%LPD*%
%LPC*%
G36*
X23530Y587501D02*
X23530Y587501D01*
X20076Y588932D01*
X17432Y591576D01*
X16001Y595030D01*
X16001Y598770D01*
X17432Y602224D01*
X20076Y604868D01*
X23530Y606299D01*
X27270Y606299D01*
X30724Y604868D01*
X33368Y602224D01*
X34799Y598770D01*
X34799Y595030D01*
X33368Y591576D01*
X30724Y588932D01*
X27270Y587501D01*
X23530Y587501D01*
G37*
%LPD*%
%LPC*%
G36*
X23530Y638301D02*
X23530Y638301D01*
X20076Y639732D01*
X17432Y642376D01*
X16001Y645830D01*
X16001Y649570D01*
X17432Y653024D01*
X20076Y655668D01*
X23530Y657099D01*
X27270Y657099D01*
X30724Y655668D01*
X33368Y653024D01*
X34799Y649570D01*
X34799Y645830D01*
X33368Y642376D01*
X30724Y639732D01*
X27270Y638301D01*
X23530Y638301D01*
G37*
%LPD*%
%LPC*%
G36*
X607730Y568451D02*
X607730Y568451D01*
X604276Y569882D01*
X601632Y572526D01*
X600201Y575980D01*
X600201Y579720D01*
X601632Y583174D01*
X604276Y585818D01*
X607730Y587249D01*
X611470Y587249D01*
X614924Y585818D01*
X617568Y583174D01*
X618999Y579720D01*
X618999Y575980D01*
X617568Y572526D01*
X614924Y569882D01*
X611470Y568451D01*
X607730Y568451D01*
G37*
%LPD*%
%LPC*%
G36*
X138134Y417575D02*
X138134Y417575D01*
X135239Y418774D01*
X133024Y420989D01*
X131825Y423884D01*
X131825Y427016D01*
X133024Y429911D01*
X135239Y432126D01*
X138134Y433325D01*
X140145Y433325D01*
X140164Y433328D01*
X140184Y433326D01*
X140285Y433348D01*
X140387Y433364D01*
X140405Y433374D01*
X140424Y433378D01*
X140513Y433431D01*
X140605Y433480D01*
X140618Y433494D01*
X140635Y433504D01*
X140703Y433583D01*
X140774Y433658D01*
X140782Y433676D01*
X140795Y433691D01*
X140834Y433787D01*
X140878Y433881D01*
X140880Y433901D01*
X140887Y433919D01*
X140906Y434086D01*
X140906Y438244D01*
X143733Y441072D01*
X147732Y441072D01*
X150559Y438244D01*
X150559Y434246D01*
X147732Y431418D01*
X146706Y431418D01*
X146635Y431407D01*
X146564Y431405D01*
X146515Y431387D01*
X146463Y431379D01*
X146400Y431345D01*
X146333Y431320D01*
X146292Y431288D01*
X146246Y431263D01*
X146197Y431212D01*
X146141Y431167D01*
X146112Y431123D01*
X146077Y431085D01*
X146046Y431020D01*
X146008Y430960D01*
X145995Y430909D01*
X145973Y430862D01*
X145965Y430791D01*
X145948Y430721D01*
X145952Y430669D01*
X145946Y430618D01*
X145961Y430547D01*
X145967Y430476D01*
X145987Y430428D01*
X145998Y430377D01*
X146035Y430316D01*
X146063Y430250D01*
X146108Y430194D01*
X146124Y430166D01*
X146142Y430151D01*
X146168Y430119D01*
X146376Y429911D01*
X147575Y427016D01*
X147575Y423884D01*
X146376Y420989D01*
X144161Y418774D01*
X141266Y417575D01*
X138134Y417575D01*
G37*
%LPD*%
%LPC*%
G36*
X357093Y412368D02*
X357093Y412368D01*
X354266Y415196D01*
X354266Y419194D01*
X357093Y422022D01*
X360057Y422022D01*
X360102Y422029D01*
X360148Y422027D01*
X360223Y422049D01*
X360300Y422061D01*
X360340Y422083D01*
X360385Y422096D01*
X360449Y422140D01*
X360517Y422177D01*
X360549Y422210D01*
X360587Y422236D01*
X360633Y422298D01*
X360687Y422355D01*
X360706Y422397D01*
X360733Y422433D01*
X360758Y422507D01*
X360790Y422578D01*
X360795Y422624D01*
X360810Y422667D01*
X360809Y422745D01*
X360817Y422822D01*
X360808Y422867D01*
X360807Y422913D01*
X360769Y423045D01*
X360765Y423063D01*
X360763Y423067D01*
X360761Y423074D01*
X360425Y423884D01*
X360425Y427016D01*
X361624Y429911D01*
X363839Y432126D01*
X366734Y433325D01*
X369866Y433325D01*
X372761Y432126D01*
X374976Y429911D01*
X376175Y427016D01*
X376175Y423884D01*
X374976Y420989D01*
X372761Y418774D01*
X369866Y417575D01*
X366734Y417575D01*
X364972Y418305D01*
X364927Y418316D01*
X364885Y418335D01*
X364808Y418343D01*
X364732Y418361D01*
X364687Y418357D01*
X364641Y418362D01*
X364565Y418345D01*
X364487Y418338D01*
X364446Y418319D01*
X364401Y418310D01*
X364334Y418270D01*
X364263Y418238D01*
X364229Y418207D01*
X364190Y418184D01*
X364139Y418124D01*
X364082Y418072D01*
X364059Y418031D01*
X364030Y417997D01*
X364001Y417924D01*
X363963Y417856D01*
X363955Y417811D01*
X363938Y417768D01*
X363923Y417633D01*
X363919Y417614D01*
X363920Y417609D01*
X363919Y417602D01*
X363919Y415196D01*
X361092Y412368D01*
X357093Y412368D01*
G37*
%LPD*%
%LPC*%
G36*
X330423Y592391D02*
X330423Y592391D01*
X327596Y595218D01*
X327596Y599217D01*
X330423Y602044D01*
X334264Y602044D01*
X334284Y602047D01*
X334303Y602045D01*
X334405Y602067D01*
X334507Y602084D01*
X334524Y602093D01*
X334544Y602098D01*
X334633Y602151D01*
X334724Y602199D01*
X334738Y602213D01*
X334755Y602224D01*
X334822Y602302D01*
X334894Y602377D01*
X334902Y602395D01*
X334915Y602411D01*
X334954Y602507D01*
X334997Y602600D01*
X334999Y602620D01*
X335007Y602639D01*
X335025Y602805D01*
X335025Y604816D01*
X336224Y607711D01*
X338439Y609926D01*
X341334Y611125D01*
X344466Y611125D01*
X347361Y609926D01*
X349576Y607711D01*
X350775Y604816D01*
X350775Y601684D01*
X349576Y598789D01*
X347361Y596574D01*
X344466Y595375D01*
X341334Y595375D01*
X338302Y596631D01*
X338257Y596642D01*
X338215Y596661D01*
X338138Y596669D01*
X338062Y596687D01*
X338017Y596683D01*
X337971Y596688D01*
X337895Y596671D01*
X337817Y596664D01*
X337776Y596646D01*
X337731Y596636D01*
X337664Y596596D01*
X337593Y596564D01*
X337559Y596533D01*
X337520Y596510D01*
X337469Y596450D01*
X337412Y596398D01*
X337389Y596358D01*
X337360Y596323D01*
X337331Y596250D01*
X337293Y596182D01*
X337285Y596137D01*
X337268Y596095D01*
X337253Y595959D01*
X337249Y595940D01*
X337250Y595935D01*
X337249Y595928D01*
X337249Y595218D01*
X334422Y592391D01*
X330423Y592391D01*
G37*
%LPD*%
%LPC*%
G36*
X341334Y366775D02*
X341334Y366775D01*
X338439Y367974D01*
X336224Y370189D01*
X335025Y373084D01*
X335025Y376216D01*
X336224Y379111D01*
X338439Y381326D01*
X341334Y382525D01*
X344466Y382525D01*
X344641Y382453D01*
X344685Y382442D01*
X344727Y382423D01*
X344804Y382414D01*
X344880Y382396D01*
X344926Y382401D01*
X344971Y382396D01*
X345048Y382412D01*
X345125Y382419D01*
X345167Y382438D01*
X345212Y382448D01*
X345279Y382488D01*
X345350Y382519D01*
X345384Y382550D01*
X345423Y382574D01*
X345474Y382633D01*
X345531Y382686D01*
X345553Y382726D01*
X345583Y382761D01*
X345612Y382833D01*
X345649Y382901D01*
X345658Y382946D01*
X345675Y382989D01*
X345690Y383125D01*
X345693Y383143D01*
X345692Y383148D01*
X345693Y383156D01*
X345693Y385857D01*
X348521Y388684D01*
X352519Y388684D01*
X355347Y385857D01*
X355347Y381858D01*
X352519Y379031D01*
X350748Y379031D01*
X350703Y379023D01*
X350657Y379025D01*
X350582Y379004D01*
X350506Y378991D01*
X350465Y378970D01*
X350421Y378957D01*
X350357Y378912D01*
X350288Y378876D01*
X350257Y378843D01*
X350219Y378817D01*
X350172Y378754D01*
X350119Y378698D01*
X350099Y378656D01*
X350072Y378619D01*
X350048Y378545D01*
X350015Y378475D01*
X350010Y378429D01*
X349996Y378385D01*
X349997Y378307D01*
X349988Y378230D01*
X349998Y378185D01*
X349998Y378139D01*
X350036Y378008D01*
X350040Y377990D01*
X350043Y377985D01*
X350045Y377978D01*
X350775Y376216D01*
X350775Y373084D01*
X349576Y370189D01*
X347361Y367974D01*
X344466Y366775D01*
X341334Y366775D01*
G37*
%LPD*%
%LPC*%
G36*
X105633Y461898D02*
X105633Y461898D01*
X102806Y464726D01*
X102806Y468724D01*
X105633Y471552D01*
X106583Y471552D01*
X106629Y471559D01*
X106674Y471557D01*
X106749Y471579D01*
X106826Y471591D01*
X106867Y471613D01*
X106911Y471626D01*
X106975Y471670D01*
X107043Y471707D01*
X107075Y471740D01*
X107113Y471766D01*
X107159Y471828D01*
X107213Y471885D01*
X107232Y471927D01*
X107259Y471963D01*
X107284Y472037D01*
X107316Y472108D01*
X107321Y472154D01*
X107336Y472197D01*
X107335Y472275D01*
X107343Y472352D01*
X107334Y472397D01*
X107333Y472443D01*
X107295Y472575D01*
X107291Y472593D01*
X107289Y472597D01*
X107287Y472604D01*
X106425Y474684D01*
X106425Y477816D01*
X107624Y480711D01*
X109839Y482926D01*
X112734Y484125D01*
X115866Y484125D01*
X118761Y482926D01*
X120976Y480711D01*
X122175Y477816D01*
X122175Y474684D01*
X120976Y471789D01*
X118761Y469574D01*
X115866Y468375D01*
X113220Y468375D01*
X113201Y468372D01*
X113181Y468374D01*
X113080Y468352D01*
X112978Y468336D01*
X112960Y468326D01*
X112941Y468322D01*
X112852Y468269D01*
X112760Y468220D01*
X112747Y468206D01*
X112730Y468196D01*
X112662Y468117D01*
X112591Y468042D01*
X112583Y468024D01*
X112570Y468009D01*
X112531Y467913D01*
X112487Y467819D01*
X112485Y467799D01*
X112478Y467781D01*
X112459Y467614D01*
X112459Y464726D01*
X109632Y461898D01*
X105633Y461898D01*
G37*
%LPD*%
%LPC*%
G36*
X341334Y544575D02*
X341334Y544575D01*
X338439Y545774D01*
X336224Y547989D01*
X335681Y549299D01*
X335657Y549338D01*
X335642Y549382D01*
X335593Y549442D01*
X335552Y549508D01*
X335517Y549538D01*
X335488Y549574D01*
X335422Y549616D01*
X335362Y549665D01*
X335320Y549682D01*
X335281Y549707D01*
X335205Y549726D01*
X335133Y549753D01*
X335087Y549755D01*
X335042Y549767D01*
X334965Y549761D01*
X334887Y549764D01*
X334843Y549751D01*
X334797Y549747D01*
X334726Y549717D01*
X334651Y549695D01*
X334613Y549669D01*
X334571Y549651D01*
X334464Y549566D01*
X334449Y549555D01*
X334446Y549551D01*
X334440Y549546D01*
X333469Y548576D01*
X329471Y548576D01*
X326643Y551403D01*
X326643Y555402D01*
X329471Y558229D01*
X333469Y558229D01*
X334998Y556701D01*
X335035Y556674D01*
X335066Y556640D01*
X335134Y556603D01*
X335198Y556557D01*
X335241Y556544D01*
X335282Y556521D01*
X335358Y556508D01*
X335433Y556485D01*
X335479Y556486D01*
X335524Y556478D01*
X335601Y556489D01*
X335679Y556491D01*
X335722Y556507D01*
X335767Y556514D01*
X335836Y556549D01*
X335910Y556576D01*
X335946Y556604D01*
X335986Y556625D01*
X336041Y556681D01*
X336102Y556729D01*
X336126Y556768D01*
X336159Y556801D01*
X336213Y556900D01*
X338439Y559126D01*
X341334Y560325D01*
X344466Y560325D01*
X347361Y559126D01*
X349576Y556911D01*
X350775Y554016D01*
X350775Y550884D01*
X349576Y547989D01*
X347361Y545774D01*
X344466Y544575D01*
X341334Y544575D01*
G37*
%LPD*%
%LPC*%
G36*
X366734Y544575D02*
X366734Y544575D01*
X363839Y545774D01*
X361624Y547989D01*
X360425Y550884D01*
X360425Y554016D01*
X361624Y556911D01*
X363839Y559126D01*
X366734Y560325D01*
X369866Y560325D01*
X372263Y559332D01*
X372308Y559321D01*
X372350Y559302D01*
X372427Y559294D01*
X372503Y559276D01*
X372548Y559280D01*
X372594Y559275D01*
X372670Y559292D01*
X372748Y559299D01*
X372789Y559318D01*
X372834Y559327D01*
X372901Y559367D01*
X372972Y559399D01*
X373006Y559430D01*
X373045Y559453D01*
X373096Y559513D01*
X373153Y559565D01*
X373176Y559605D01*
X373205Y559640D01*
X373234Y559713D01*
X373272Y559781D01*
X373280Y559826D01*
X373297Y559869D01*
X373312Y560004D01*
X373316Y560023D01*
X373315Y560028D01*
X373316Y560035D01*
X373316Y560164D01*
X376143Y562992D01*
X380142Y562992D01*
X382969Y560164D01*
X382969Y556166D01*
X380142Y553338D01*
X376936Y553338D01*
X376916Y553335D01*
X376897Y553337D01*
X376795Y553315D01*
X376693Y553299D01*
X376676Y553289D01*
X376656Y553285D01*
X376567Y553232D01*
X376476Y553183D01*
X376462Y553169D01*
X376445Y553159D01*
X376378Y553080D01*
X376306Y553005D01*
X376298Y552987D01*
X376285Y552972D01*
X376246Y552876D01*
X376203Y552782D01*
X376201Y552762D01*
X376193Y552744D01*
X376175Y552577D01*
X376175Y550884D01*
X374976Y547989D01*
X372761Y545774D01*
X369866Y544575D01*
X366734Y544575D01*
G37*
%LPD*%
%LPC*%
G36*
X954454Y703121D02*
X954454Y703121D01*
X951319Y704420D01*
X948920Y706819D01*
X947621Y709954D01*
X947621Y713346D01*
X948920Y716481D01*
X951319Y718880D01*
X954454Y720179D01*
X957846Y720179D01*
X960981Y718880D01*
X963380Y716481D01*
X964679Y713346D01*
X964679Y709954D01*
X963380Y706819D01*
X960981Y704420D01*
X957846Y703121D01*
X954454Y703121D01*
G37*
%LPD*%
%LPC*%
G36*
X954454Y443121D02*
X954454Y443121D01*
X951319Y444420D01*
X948920Y446819D01*
X947621Y449954D01*
X947621Y453346D01*
X948920Y456481D01*
X951319Y458880D01*
X954454Y460179D01*
X957846Y460179D01*
X960981Y458880D01*
X963380Y456481D01*
X964679Y453346D01*
X964679Y449954D01*
X963380Y446819D01*
X960981Y444420D01*
X957846Y443121D01*
X954454Y443121D01*
G37*
%LPD*%
%LPC*%
G36*
X954454Y463121D02*
X954454Y463121D01*
X951319Y464420D01*
X948920Y466819D01*
X947621Y469954D01*
X947621Y473346D01*
X948920Y476481D01*
X951319Y478880D01*
X954454Y480179D01*
X957846Y480179D01*
X960981Y478880D01*
X963380Y476481D01*
X964679Y473346D01*
X964679Y469954D01*
X963380Y466819D01*
X960981Y464420D01*
X957846Y463121D01*
X954454Y463121D01*
G37*
%LPD*%
%LPC*%
G36*
X934454Y443121D02*
X934454Y443121D01*
X931319Y444420D01*
X928920Y446819D01*
X927621Y449954D01*
X927621Y453346D01*
X928920Y456481D01*
X931319Y458880D01*
X934454Y460179D01*
X937846Y460179D01*
X940981Y458880D01*
X943380Y456481D01*
X944679Y453346D01*
X944679Y449954D01*
X943380Y446819D01*
X940981Y444420D01*
X937846Y443121D01*
X934454Y443121D01*
G37*
%LPD*%
%LPC*%
G36*
X954454Y283121D02*
X954454Y283121D01*
X951319Y284420D01*
X948920Y286819D01*
X947621Y289954D01*
X947621Y293346D01*
X948920Y296481D01*
X951319Y298880D01*
X954454Y300179D01*
X957846Y300179D01*
X960981Y298880D01*
X963380Y296481D01*
X964679Y293346D01*
X964679Y289954D01*
X963380Y286819D01*
X960981Y284420D01*
X957846Y283121D01*
X954454Y283121D01*
G37*
%LPD*%
%LPC*%
G36*
X934454Y483121D02*
X934454Y483121D01*
X931319Y484420D01*
X928920Y486819D01*
X927621Y489954D01*
X927621Y493346D01*
X928920Y496481D01*
X931319Y498880D01*
X934454Y500179D01*
X937846Y500179D01*
X940981Y498880D01*
X943380Y496481D01*
X944679Y493346D01*
X944679Y489954D01*
X943380Y486819D01*
X940981Y484420D01*
X937846Y483121D01*
X934454Y483121D01*
G37*
%LPD*%
%LPC*%
G36*
X954454Y483121D02*
X954454Y483121D01*
X951319Y484420D01*
X948920Y486819D01*
X947621Y489954D01*
X947621Y493346D01*
X948920Y496481D01*
X951319Y498880D01*
X954454Y500179D01*
X957846Y500179D01*
X960981Y498880D01*
X963380Y496481D01*
X964679Y493346D01*
X964679Y489954D01*
X963380Y486819D01*
X960981Y484420D01*
X957846Y483121D01*
X954454Y483121D01*
G37*
%LPD*%
%LPC*%
G36*
X934454Y303121D02*
X934454Y303121D01*
X931319Y304420D01*
X928920Y306819D01*
X927621Y309954D01*
X927621Y313346D01*
X928920Y316481D01*
X931319Y318880D01*
X934454Y320179D01*
X937846Y320179D01*
X940981Y318880D01*
X943380Y316481D01*
X944679Y313346D01*
X944679Y309954D01*
X943380Y306819D01*
X940981Y304420D01*
X937846Y303121D01*
X934454Y303121D01*
G37*
%LPD*%
%LPC*%
G36*
X954454Y503121D02*
X954454Y503121D01*
X951319Y504420D01*
X948920Y506819D01*
X947621Y509954D01*
X947621Y513346D01*
X948920Y516481D01*
X951319Y518880D01*
X954454Y520179D01*
X957846Y520179D01*
X960981Y518880D01*
X963380Y516481D01*
X964679Y513346D01*
X964679Y509954D01*
X963380Y506819D01*
X960981Y504420D01*
X957846Y503121D01*
X954454Y503121D01*
G37*
%LPD*%
%LPC*%
G36*
X934454Y523121D02*
X934454Y523121D01*
X931319Y524420D01*
X928920Y526819D01*
X927621Y529954D01*
X927621Y533346D01*
X928920Y536481D01*
X931319Y538880D01*
X934454Y540179D01*
X937846Y540179D01*
X940981Y538880D01*
X943380Y536481D01*
X944679Y533346D01*
X944679Y529954D01*
X943380Y526819D01*
X940981Y524420D01*
X937846Y523121D01*
X934454Y523121D01*
G37*
%LPD*%
%LPC*%
G36*
X934454Y543121D02*
X934454Y543121D01*
X931319Y544420D01*
X928920Y546819D01*
X927621Y549954D01*
X927621Y553346D01*
X928920Y556481D01*
X931319Y558880D01*
X934454Y560179D01*
X937846Y560179D01*
X940981Y558880D01*
X943380Y556481D01*
X944679Y553346D01*
X944679Y549954D01*
X943380Y546819D01*
X940981Y544420D01*
X937846Y543121D01*
X934454Y543121D01*
G37*
%LPD*%
%LPC*%
G36*
X934454Y283121D02*
X934454Y283121D01*
X931319Y284420D01*
X928920Y286819D01*
X927621Y289954D01*
X927621Y293346D01*
X928920Y296481D01*
X931319Y298880D01*
X934454Y300179D01*
X937846Y300179D01*
X940981Y298880D01*
X943380Y296481D01*
X944679Y293346D01*
X944679Y289954D01*
X943380Y286819D01*
X940981Y284420D01*
X937846Y283121D01*
X934454Y283121D01*
G37*
%LPD*%
%LPC*%
G36*
X954454Y423121D02*
X954454Y423121D01*
X951319Y424420D01*
X948920Y426819D01*
X947621Y429954D01*
X947621Y433346D01*
X948920Y436481D01*
X951319Y438880D01*
X954454Y440179D01*
X957846Y440179D01*
X960981Y438880D01*
X963380Y436481D01*
X964679Y433346D01*
X964679Y429954D01*
X963380Y426819D01*
X960981Y424420D01*
X957846Y423121D01*
X954454Y423121D01*
G37*
%LPD*%
%LPC*%
G36*
X934454Y423121D02*
X934454Y423121D01*
X931319Y424420D01*
X928920Y426819D01*
X927621Y429954D01*
X927621Y433346D01*
X928920Y436481D01*
X931319Y438880D01*
X934454Y440179D01*
X937846Y440179D01*
X940981Y438880D01*
X943380Y436481D01*
X944679Y433346D01*
X944679Y429954D01*
X943380Y426819D01*
X940981Y424420D01*
X937846Y423121D01*
X934454Y423121D01*
G37*
%LPD*%
%LPC*%
G36*
X934454Y563121D02*
X934454Y563121D01*
X931319Y564420D01*
X928920Y566819D01*
X927621Y569954D01*
X927621Y573346D01*
X928920Y576481D01*
X931319Y578880D01*
X934454Y580179D01*
X937846Y580179D01*
X940981Y578880D01*
X943380Y576481D01*
X944679Y573346D01*
X944679Y569954D01*
X943380Y566819D01*
X940981Y564420D01*
X937846Y563121D01*
X934454Y563121D01*
G37*
%LPD*%
%LPC*%
G36*
X954454Y563121D02*
X954454Y563121D01*
X951319Y564420D01*
X948920Y566819D01*
X947621Y569954D01*
X947621Y573346D01*
X948920Y576481D01*
X951319Y578880D01*
X954454Y580179D01*
X957846Y580179D01*
X960981Y578880D01*
X963380Y576481D01*
X964679Y573346D01*
X964679Y569954D01*
X963380Y566819D01*
X960981Y564420D01*
X957846Y563121D01*
X954454Y563121D01*
G37*
%LPD*%
%LPC*%
G36*
X934454Y403121D02*
X934454Y403121D01*
X931319Y404420D01*
X928920Y406819D01*
X927621Y409954D01*
X927621Y413346D01*
X928920Y416481D01*
X931319Y418880D01*
X934454Y420179D01*
X937846Y420179D01*
X940981Y418880D01*
X943380Y416481D01*
X944679Y413346D01*
X944679Y409954D01*
X943380Y406819D01*
X940981Y404420D01*
X937846Y403121D01*
X934454Y403121D01*
G37*
%LPD*%
%LPC*%
G36*
X954454Y403121D02*
X954454Y403121D01*
X951319Y404420D01*
X948920Y406819D01*
X947621Y409954D01*
X947621Y413346D01*
X948920Y416481D01*
X951319Y418880D01*
X954454Y420179D01*
X957846Y420179D01*
X960981Y418880D01*
X963380Y416481D01*
X964679Y413346D01*
X964679Y409954D01*
X963380Y406819D01*
X960981Y404420D01*
X957846Y403121D01*
X954454Y403121D01*
G37*
%LPD*%
%LPC*%
G36*
X954454Y383121D02*
X954454Y383121D01*
X951319Y384420D01*
X948920Y386819D01*
X947621Y389954D01*
X947621Y393346D01*
X948920Y396481D01*
X951319Y398880D01*
X954454Y400179D01*
X957846Y400179D01*
X960981Y398880D01*
X963380Y396481D01*
X964679Y393346D01*
X964679Y389954D01*
X963380Y386819D01*
X960981Y384420D01*
X957846Y383121D01*
X954454Y383121D01*
G37*
%LPD*%
%LPC*%
G36*
X934454Y643121D02*
X934454Y643121D01*
X931319Y644420D01*
X928920Y646819D01*
X927621Y649954D01*
X927621Y653346D01*
X928920Y656481D01*
X931319Y658880D01*
X934454Y660179D01*
X937846Y660179D01*
X940981Y658880D01*
X943380Y656481D01*
X944679Y653346D01*
X944679Y649954D01*
X943380Y646819D01*
X940981Y644420D01*
X937846Y643121D01*
X934454Y643121D01*
G37*
%LPD*%
%LPC*%
G36*
X934454Y583121D02*
X934454Y583121D01*
X931319Y584420D01*
X928920Y586819D01*
X927621Y589954D01*
X927621Y593346D01*
X928920Y596481D01*
X931319Y598880D01*
X934454Y600179D01*
X937846Y600179D01*
X940981Y598880D01*
X943380Y596481D01*
X944679Y593346D01*
X944679Y589954D01*
X943380Y586819D01*
X940981Y584420D01*
X937846Y583121D01*
X934454Y583121D01*
G37*
%LPD*%
%LPC*%
G36*
X954454Y583121D02*
X954454Y583121D01*
X951319Y584420D01*
X948920Y586819D01*
X947621Y589954D01*
X947621Y593346D01*
X948920Y596481D01*
X951319Y598880D01*
X954454Y600179D01*
X957846Y600179D01*
X960981Y598880D01*
X963380Y596481D01*
X964679Y593346D01*
X964679Y589954D01*
X963380Y586819D01*
X960981Y584420D01*
X957846Y583121D01*
X954454Y583121D01*
G37*
%LPD*%
%LPC*%
G36*
X934454Y383121D02*
X934454Y383121D01*
X931319Y384420D01*
X928920Y386819D01*
X927621Y389954D01*
X927621Y393346D01*
X928920Y396481D01*
X931319Y398880D01*
X934454Y400179D01*
X937846Y400179D01*
X940981Y398880D01*
X943380Y396481D01*
X944679Y393346D01*
X944679Y389954D01*
X943380Y386819D01*
X940981Y384420D01*
X937846Y383121D01*
X934454Y383121D01*
G37*
%LPD*%
%LPC*%
G36*
X954454Y363121D02*
X954454Y363121D01*
X951319Y364420D01*
X948920Y366819D01*
X947621Y369954D01*
X947621Y373346D01*
X948920Y376481D01*
X951319Y378880D01*
X954454Y380179D01*
X957846Y380179D01*
X960981Y378880D01*
X963380Y376481D01*
X964679Y373346D01*
X964679Y369954D01*
X963380Y366819D01*
X960981Y364420D01*
X957846Y363121D01*
X954454Y363121D01*
G37*
%LPD*%
%LPC*%
G36*
X934454Y363121D02*
X934454Y363121D01*
X931319Y364420D01*
X928920Y366819D01*
X927621Y369954D01*
X927621Y373346D01*
X928920Y376481D01*
X931319Y378880D01*
X934454Y380179D01*
X937846Y380179D01*
X940981Y378880D01*
X943380Y376481D01*
X944679Y373346D01*
X944679Y369954D01*
X943380Y366819D01*
X940981Y364420D01*
X937846Y363121D01*
X934454Y363121D01*
G37*
%LPD*%
%LPC*%
G36*
X954454Y663121D02*
X954454Y663121D01*
X951319Y664420D01*
X948920Y666819D01*
X947621Y669954D01*
X947621Y673346D01*
X948920Y676481D01*
X951319Y678880D01*
X954454Y680179D01*
X957846Y680179D01*
X960981Y678880D01*
X963380Y676481D01*
X964679Y673346D01*
X964679Y669954D01*
X963380Y666819D01*
X960981Y664420D01*
X957846Y663121D01*
X954454Y663121D01*
G37*
%LPD*%
%LPC*%
G36*
X934454Y663121D02*
X934454Y663121D01*
X931319Y664420D01*
X928920Y666819D01*
X927621Y669954D01*
X927621Y673346D01*
X928920Y676481D01*
X931319Y678880D01*
X934454Y680179D01*
X937846Y680179D01*
X940981Y678880D01*
X943380Y676481D01*
X944679Y673346D01*
X944679Y669954D01*
X943380Y666819D01*
X940981Y664420D01*
X937846Y663121D01*
X934454Y663121D01*
G37*
%LPD*%
%LPC*%
G36*
X954454Y343121D02*
X954454Y343121D01*
X951319Y344420D01*
X948920Y346819D01*
X947621Y349954D01*
X947621Y353346D01*
X948920Y356481D01*
X951319Y358880D01*
X954454Y360179D01*
X957846Y360179D01*
X960981Y358880D01*
X963380Y356481D01*
X964679Y353346D01*
X964679Y349954D01*
X963380Y346819D01*
X960981Y344420D01*
X957846Y343121D01*
X954454Y343121D01*
G37*
%LPD*%
%LPC*%
G36*
X934454Y603121D02*
X934454Y603121D01*
X931319Y604420D01*
X928920Y606819D01*
X927621Y609954D01*
X927621Y613346D01*
X928920Y616481D01*
X931319Y618880D01*
X934454Y620179D01*
X937846Y620179D01*
X940981Y618880D01*
X943380Y616481D01*
X944679Y613346D01*
X944679Y609954D01*
X943380Y606819D01*
X940981Y604420D01*
X937846Y603121D01*
X934454Y603121D01*
G37*
%LPD*%
%LPC*%
G36*
X954454Y603121D02*
X954454Y603121D01*
X951319Y604420D01*
X948920Y606819D01*
X947621Y609954D01*
X947621Y613346D01*
X948920Y616481D01*
X951319Y618880D01*
X954454Y620179D01*
X957846Y620179D01*
X960981Y618880D01*
X963380Y616481D01*
X964679Y613346D01*
X964679Y609954D01*
X963380Y606819D01*
X960981Y604420D01*
X957846Y603121D01*
X954454Y603121D01*
G37*
%LPD*%
%LPC*%
G36*
X934454Y343121D02*
X934454Y343121D01*
X931319Y344420D01*
X928920Y346819D01*
X927621Y349954D01*
X927621Y353346D01*
X928920Y356481D01*
X931319Y358880D01*
X934454Y360179D01*
X937846Y360179D01*
X940981Y358880D01*
X943380Y356481D01*
X944679Y353346D01*
X944679Y349954D01*
X943380Y346819D01*
X940981Y344420D01*
X937846Y343121D01*
X934454Y343121D01*
G37*
%LPD*%
%LPC*%
G36*
X954454Y323121D02*
X954454Y323121D01*
X951319Y324420D01*
X948920Y326819D01*
X947621Y329954D01*
X947621Y333346D01*
X948920Y336481D01*
X951319Y338880D01*
X954454Y340179D01*
X957846Y340179D01*
X960981Y338880D01*
X963380Y336481D01*
X964679Y333346D01*
X964679Y329954D01*
X963380Y326819D01*
X960981Y324420D01*
X957846Y323121D01*
X954454Y323121D01*
G37*
%LPD*%
%LPC*%
G36*
X934454Y323121D02*
X934454Y323121D01*
X931319Y324420D01*
X928920Y326819D01*
X927621Y329954D01*
X927621Y333346D01*
X928920Y336481D01*
X931319Y338880D01*
X934454Y340179D01*
X937846Y340179D01*
X940981Y338880D01*
X943380Y336481D01*
X944679Y333346D01*
X944679Y329954D01*
X943380Y326819D01*
X940981Y324420D01*
X937846Y323121D01*
X934454Y323121D01*
G37*
%LPD*%
%LPC*%
G36*
X934454Y623121D02*
X934454Y623121D01*
X931319Y624420D01*
X928920Y626819D01*
X927621Y629954D01*
X927621Y633346D01*
X928920Y636481D01*
X931319Y638880D01*
X934454Y640179D01*
X937846Y640179D01*
X940981Y638880D01*
X943380Y636481D01*
X944679Y633346D01*
X944679Y629954D01*
X943380Y626819D01*
X940981Y624420D01*
X937846Y623121D01*
X934454Y623121D01*
G37*
%LPD*%
%LPC*%
G36*
X954454Y623121D02*
X954454Y623121D01*
X951319Y624420D01*
X948920Y626819D01*
X947621Y629954D01*
X947621Y633346D01*
X948920Y636481D01*
X951319Y638880D01*
X954454Y640179D01*
X957846Y640179D01*
X960981Y638880D01*
X963380Y636481D01*
X964679Y633346D01*
X964679Y629954D01*
X963380Y626819D01*
X960981Y624420D01*
X957846Y623121D01*
X954454Y623121D01*
G37*
%LPD*%
%LPC*%
G36*
X954454Y303121D02*
X954454Y303121D01*
X951319Y304420D01*
X948920Y306819D01*
X947621Y309954D01*
X947621Y313346D01*
X948920Y316481D01*
X951319Y318880D01*
X954454Y320179D01*
X957846Y320179D01*
X960981Y318880D01*
X963380Y316481D01*
X964679Y313346D01*
X964679Y309954D01*
X963380Y306819D01*
X960981Y304420D01*
X957846Y303121D01*
X954454Y303121D01*
G37*
%LPD*%
%LPC*%
G36*
X954454Y643121D02*
X954454Y643121D01*
X951319Y644420D01*
X948920Y646819D01*
X947621Y649954D01*
X947621Y653346D01*
X948920Y656481D01*
X951319Y658880D01*
X954454Y660179D01*
X957846Y660179D01*
X960981Y658880D01*
X963380Y656481D01*
X964679Y653346D01*
X964679Y649954D01*
X963380Y646819D01*
X960981Y644420D01*
X957846Y643121D01*
X954454Y643121D01*
G37*
%LPD*%
%LPC*%
G36*
X474251Y572388D02*
X474251Y572388D01*
X471423Y575216D01*
X471423Y579214D01*
X474251Y582042D01*
X477330Y582042D01*
X477349Y582045D01*
X477369Y582043D01*
X477470Y582065D01*
X477572Y582081D01*
X477590Y582091D01*
X477609Y582095D01*
X477698Y582148D01*
X477790Y582197D01*
X477803Y582211D01*
X477820Y582221D01*
X477888Y582300D01*
X477959Y582375D01*
X477967Y582393D01*
X477980Y582408D01*
X478019Y582504D01*
X478063Y582598D01*
X478065Y582618D01*
X478072Y582636D01*
X478091Y582803D01*
X478091Y585882D01*
X480918Y588709D01*
X483997Y588709D01*
X484017Y588712D01*
X484036Y588710D01*
X484138Y588732D01*
X484240Y588749D01*
X484257Y588758D01*
X484277Y588763D01*
X484366Y588816D01*
X484457Y588864D01*
X484471Y588878D01*
X484488Y588889D01*
X484555Y588967D01*
X484627Y589042D01*
X484635Y589060D01*
X484648Y589076D01*
X484687Y589172D01*
X484730Y589265D01*
X484732Y589285D01*
X484740Y589304D01*
X484758Y589470D01*
X484758Y592549D01*
X487586Y595377D01*
X491584Y595377D01*
X494412Y592549D01*
X494412Y588551D01*
X491584Y585723D01*
X488505Y585723D01*
X488486Y585720D01*
X488466Y585722D01*
X488365Y585700D01*
X488263Y585684D01*
X488245Y585674D01*
X488226Y585670D01*
X488137Y585617D01*
X488045Y585568D01*
X488032Y585554D01*
X488015Y585544D01*
X487947Y585465D01*
X487876Y585390D01*
X487868Y585372D01*
X487855Y585357D01*
X487816Y585261D01*
X487772Y585167D01*
X487770Y585147D01*
X487763Y585129D01*
X487744Y584962D01*
X487744Y581883D01*
X484917Y579056D01*
X481838Y579056D01*
X481818Y579053D01*
X481799Y579055D01*
X481697Y579033D01*
X481595Y579016D01*
X481578Y579007D01*
X481558Y579002D01*
X481469Y578949D01*
X481378Y578901D01*
X481364Y578887D01*
X481347Y578876D01*
X481280Y578798D01*
X481208Y578723D01*
X481200Y578705D01*
X481187Y578689D01*
X481148Y578593D01*
X481105Y578500D01*
X481103Y578480D01*
X481095Y578461D01*
X481077Y578295D01*
X481077Y575216D01*
X478249Y572388D01*
X474251Y572388D01*
G37*
%LPD*%
%LPC*%
G36*
X138134Y392175D02*
X138134Y392175D01*
X135239Y393374D01*
X133024Y395589D01*
X131825Y398484D01*
X131825Y401616D01*
X133024Y404511D01*
X135239Y406726D01*
X138134Y407925D01*
X141266Y407925D01*
X144161Y406726D01*
X146376Y404511D01*
X147575Y401616D01*
X147575Y398484D01*
X146376Y395589D01*
X144161Y393374D01*
X141266Y392175D01*
X138134Y392175D01*
G37*
%LPD*%
%LPC*%
G36*
X150834Y49275D02*
X150834Y49275D01*
X147939Y50474D01*
X145724Y52689D01*
X144525Y55584D01*
X144525Y58716D01*
X145724Y61611D01*
X147939Y63826D01*
X150834Y65025D01*
X153966Y65025D01*
X156861Y63826D01*
X159076Y61611D01*
X160275Y58716D01*
X160275Y55584D01*
X159076Y52689D01*
X156861Y50474D01*
X153966Y49275D01*
X150834Y49275D01*
G37*
%LPD*%
%LPC*%
G36*
X176234Y49275D02*
X176234Y49275D01*
X173339Y50474D01*
X171124Y52689D01*
X169925Y55584D01*
X169925Y58716D01*
X171124Y61611D01*
X173339Y63826D01*
X176234Y65025D01*
X179366Y65025D01*
X182261Y63826D01*
X184476Y61611D01*
X185675Y58716D01*
X185675Y55584D01*
X184476Y52689D01*
X182261Y50474D01*
X179366Y49275D01*
X176234Y49275D01*
G37*
%LPD*%
%LPC*%
G36*
X201634Y49275D02*
X201634Y49275D01*
X198739Y50474D01*
X196524Y52689D01*
X195325Y55584D01*
X195325Y58716D01*
X196524Y61611D01*
X198739Y63826D01*
X201634Y65025D01*
X204766Y65025D01*
X207661Y63826D01*
X209876Y61611D01*
X211075Y58716D01*
X211075Y55584D01*
X209876Y52689D01*
X207661Y50474D01*
X204766Y49275D01*
X201634Y49275D01*
G37*
%LPD*%
%LPC*%
G36*
X474684Y652525D02*
X474684Y652525D01*
X471789Y653724D01*
X469574Y655939D01*
X468375Y658834D01*
X468375Y661966D01*
X469574Y664861D01*
X471789Y667076D01*
X474684Y668275D01*
X477816Y668275D01*
X480711Y667076D01*
X482926Y664861D01*
X484125Y661966D01*
X484125Y658834D01*
X482926Y655939D01*
X480711Y653724D01*
X477816Y652525D01*
X474684Y652525D01*
G37*
%LPD*%
%LPC*%
G36*
X506434Y652525D02*
X506434Y652525D01*
X503539Y653724D01*
X501324Y655939D01*
X500125Y658834D01*
X500125Y661966D01*
X501324Y664861D01*
X503539Y667076D01*
X506434Y668275D01*
X509566Y668275D01*
X512461Y667076D01*
X514676Y664861D01*
X515875Y661966D01*
X515875Y658834D01*
X514676Y655939D01*
X512461Y653724D01*
X509566Y652525D01*
X506434Y652525D01*
G37*
%LPD*%
%LPC*%
G36*
X442934Y652525D02*
X442934Y652525D01*
X440039Y653724D01*
X437824Y655939D01*
X436625Y658834D01*
X436625Y661966D01*
X437824Y664861D01*
X440039Y667076D01*
X442934Y668275D01*
X446066Y668275D01*
X448961Y667076D01*
X451176Y664861D01*
X452375Y661966D01*
X452375Y658834D01*
X451176Y655939D01*
X448961Y653724D01*
X446066Y652525D01*
X442934Y652525D01*
G37*
%LPD*%
%LPC*%
G36*
X227034Y49275D02*
X227034Y49275D01*
X224139Y50474D01*
X221924Y52689D01*
X220725Y55584D01*
X220725Y58716D01*
X221924Y61611D01*
X224139Y63826D01*
X227034Y65025D01*
X230166Y65025D01*
X233061Y63826D01*
X235276Y61611D01*
X236475Y58716D01*
X236475Y55584D01*
X235276Y52689D01*
X233061Y50474D01*
X230166Y49275D01*
X227034Y49275D01*
G37*
%LPD*%
%LPC*%
G36*
X252434Y49275D02*
X252434Y49275D01*
X249539Y50474D01*
X247324Y52689D01*
X246125Y55584D01*
X246125Y58716D01*
X247324Y61611D01*
X249539Y63826D01*
X252434Y65025D01*
X255566Y65025D01*
X258461Y63826D01*
X260676Y61611D01*
X261875Y58716D01*
X261875Y55584D01*
X260676Y52689D01*
X258461Y50474D01*
X255566Y49275D01*
X252434Y49275D01*
G37*
%LPD*%
%LPC*%
G36*
X735034Y620775D02*
X735034Y620775D01*
X732139Y621974D01*
X729924Y624189D01*
X728725Y627084D01*
X728725Y630216D01*
X729924Y633111D01*
X732139Y635326D01*
X735034Y636525D01*
X738166Y636525D01*
X741061Y635326D01*
X743276Y633111D01*
X744475Y630216D01*
X744475Y627084D01*
X743276Y624189D01*
X741061Y621974D01*
X738166Y620775D01*
X735034Y620775D01*
G37*
%LPD*%
%LPC*%
G36*
X862034Y620775D02*
X862034Y620775D01*
X859139Y621974D01*
X856924Y624189D01*
X855725Y627084D01*
X855725Y630216D01*
X856924Y633111D01*
X859139Y635326D01*
X862034Y636525D01*
X865166Y636525D01*
X868061Y635326D01*
X870276Y633111D01*
X871475Y630216D01*
X871475Y627084D01*
X870276Y624189D01*
X868061Y621974D01*
X865166Y620775D01*
X862034Y620775D01*
G37*
%LPD*%
%LPC*%
G36*
X836634Y620775D02*
X836634Y620775D01*
X833739Y621974D01*
X831524Y624189D01*
X830325Y627084D01*
X830325Y630216D01*
X831524Y633111D01*
X833739Y635326D01*
X836634Y636525D01*
X839766Y636525D01*
X842661Y635326D01*
X844876Y633111D01*
X846075Y630216D01*
X846075Y627084D01*
X844876Y624189D01*
X842661Y621974D01*
X839766Y620775D01*
X836634Y620775D01*
G37*
%LPD*%
%LPC*%
G36*
X811234Y620775D02*
X811234Y620775D01*
X808339Y621974D01*
X806124Y624189D01*
X804925Y627084D01*
X804925Y630216D01*
X806124Y633111D01*
X808339Y635326D01*
X811234Y636525D01*
X814366Y636525D01*
X817261Y635326D01*
X819476Y633111D01*
X820675Y630216D01*
X820675Y627084D01*
X819476Y624189D01*
X817261Y621974D01*
X814366Y620775D01*
X811234Y620775D01*
G37*
%LPD*%
%LPC*%
G36*
X785834Y620775D02*
X785834Y620775D01*
X782939Y621974D01*
X780724Y624189D01*
X779525Y627084D01*
X779525Y630216D01*
X780724Y633111D01*
X782939Y635326D01*
X785834Y636525D01*
X788966Y636525D01*
X791861Y635326D01*
X794076Y633111D01*
X795275Y630216D01*
X795275Y627084D01*
X794076Y624189D01*
X791861Y621974D01*
X788966Y620775D01*
X785834Y620775D01*
G37*
%LPD*%
%LPC*%
G36*
X760434Y620775D02*
X760434Y620775D01*
X757539Y621974D01*
X755324Y624189D01*
X754125Y627084D01*
X754125Y630216D01*
X755324Y633111D01*
X757539Y635326D01*
X760434Y636525D01*
X763566Y636525D01*
X766461Y635326D01*
X768676Y633111D01*
X769875Y630216D01*
X769875Y627084D01*
X768676Y624189D01*
X766461Y621974D01*
X763566Y620775D01*
X760434Y620775D01*
G37*
%LPD*%
%LPC*%
G36*
X709634Y620775D02*
X709634Y620775D01*
X706739Y621974D01*
X704524Y624189D01*
X703325Y627084D01*
X703325Y630216D01*
X704524Y633111D01*
X706739Y635326D01*
X709634Y636525D01*
X712766Y636525D01*
X715661Y635326D01*
X717876Y633111D01*
X719075Y630216D01*
X719075Y627084D01*
X717876Y624189D01*
X715661Y621974D01*
X712766Y620775D01*
X709634Y620775D01*
G37*
%LPD*%
%LPC*%
G36*
X341334Y620775D02*
X341334Y620775D01*
X338439Y621974D01*
X336224Y624189D01*
X335025Y627084D01*
X335025Y630216D01*
X336224Y633111D01*
X338439Y635326D01*
X341334Y636525D01*
X344466Y636525D01*
X347361Y635326D01*
X349576Y633111D01*
X350775Y630216D01*
X350775Y627084D01*
X349576Y624189D01*
X347361Y621974D01*
X344466Y620775D01*
X341334Y620775D01*
G37*
%LPD*%
%LPC*%
G36*
X315934Y620775D02*
X315934Y620775D01*
X313039Y621974D01*
X310824Y624189D01*
X309625Y627084D01*
X309625Y630216D01*
X310824Y633111D01*
X313039Y635326D01*
X315934Y636525D01*
X319066Y636525D01*
X321961Y635326D01*
X324176Y633111D01*
X325375Y630216D01*
X325375Y627084D01*
X324176Y624189D01*
X321961Y621974D01*
X319066Y620775D01*
X315934Y620775D01*
G37*
%LPD*%
%LPC*%
G36*
X290534Y620775D02*
X290534Y620775D01*
X287639Y621974D01*
X285424Y624189D01*
X284225Y627084D01*
X284225Y630216D01*
X285424Y633111D01*
X287639Y635326D01*
X290534Y636525D01*
X293666Y636525D01*
X296561Y635326D01*
X298776Y633111D01*
X299975Y630216D01*
X299975Y627084D01*
X298776Y624189D01*
X296561Y621974D01*
X293666Y620775D01*
X290534Y620775D01*
G37*
%LPD*%
%LPC*%
G36*
X239734Y620775D02*
X239734Y620775D01*
X236839Y621974D01*
X234624Y624189D01*
X233425Y627084D01*
X233425Y630216D01*
X234624Y633111D01*
X236839Y635326D01*
X239734Y636525D01*
X242866Y636525D01*
X245761Y635326D01*
X247976Y633111D01*
X249175Y630216D01*
X249175Y627084D01*
X247976Y624189D01*
X245761Y621974D01*
X242866Y620775D01*
X239734Y620775D01*
G37*
%LPD*%
%LPC*%
G36*
X214334Y620775D02*
X214334Y620775D01*
X211439Y621974D01*
X209224Y624189D01*
X208025Y627084D01*
X208025Y630216D01*
X209224Y633111D01*
X211439Y635326D01*
X214334Y636525D01*
X217466Y636525D01*
X220361Y635326D01*
X222576Y633111D01*
X223775Y630216D01*
X223775Y627084D01*
X222576Y624189D01*
X220361Y621974D01*
X217466Y620775D01*
X214334Y620775D01*
G37*
%LPD*%
%LPC*%
G36*
X188934Y620775D02*
X188934Y620775D01*
X186039Y621974D01*
X183824Y624189D01*
X182625Y627084D01*
X182625Y630216D01*
X183824Y633111D01*
X186039Y635326D01*
X188934Y636525D01*
X192066Y636525D01*
X194961Y635326D01*
X197176Y633111D01*
X198375Y630216D01*
X198375Y627084D01*
X197176Y624189D01*
X194961Y621974D01*
X192066Y620775D01*
X188934Y620775D01*
G37*
%LPD*%
%LPC*%
G36*
X163534Y620775D02*
X163534Y620775D01*
X160639Y621974D01*
X158424Y624189D01*
X157225Y627084D01*
X157225Y630216D01*
X158424Y633111D01*
X160639Y635326D01*
X163534Y636525D01*
X166666Y636525D01*
X169561Y635326D01*
X171776Y633111D01*
X172975Y630216D01*
X172975Y627084D01*
X171776Y624189D01*
X169561Y621974D01*
X166666Y620775D01*
X163534Y620775D01*
G37*
%LPD*%
%LPC*%
G36*
X138134Y620775D02*
X138134Y620775D01*
X135239Y621974D01*
X133024Y624189D01*
X131825Y627084D01*
X131825Y630216D01*
X133024Y633111D01*
X135239Y635326D01*
X138134Y636525D01*
X141266Y636525D01*
X144161Y635326D01*
X146376Y633111D01*
X147575Y630216D01*
X147575Y627084D01*
X146376Y624189D01*
X144161Y621974D01*
X141266Y620775D01*
X138134Y620775D01*
G37*
%LPD*%
%LPC*%
G36*
X277834Y49275D02*
X277834Y49275D01*
X274939Y50474D01*
X272724Y52689D01*
X271525Y55584D01*
X271525Y58716D01*
X272724Y61611D01*
X274939Y63826D01*
X277834Y65025D01*
X280966Y65025D01*
X283861Y63826D01*
X286076Y61611D01*
X287275Y58716D01*
X287275Y55584D01*
X286076Y52689D01*
X283861Y50474D01*
X280966Y49275D01*
X277834Y49275D01*
G37*
%LPD*%
%LPC*%
G36*
X303234Y49275D02*
X303234Y49275D01*
X300339Y50474D01*
X298124Y52689D01*
X296925Y55584D01*
X296925Y58716D01*
X298124Y61611D01*
X300339Y63826D01*
X303234Y65025D01*
X306366Y65025D01*
X309261Y63826D01*
X311476Y61611D01*
X312675Y58716D01*
X312675Y55584D01*
X311476Y52689D01*
X309261Y50474D01*
X306366Y49275D01*
X303234Y49275D01*
G37*
%LPD*%
%LPC*%
G36*
X100034Y11175D02*
X100034Y11175D01*
X97139Y12374D01*
X94924Y14589D01*
X93725Y17484D01*
X93725Y20616D01*
X94924Y23511D01*
X97139Y25726D01*
X100034Y26925D01*
X103166Y26925D01*
X106061Y25726D01*
X108276Y23511D01*
X109475Y20616D01*
X109475Y17484D01*
X108276Y14589D01*
X106061Y12374D01*
X103166Y11175D01*
X100034Y11175D01*
G37*
%LPD*%
%LPC*%
G36*
X328634Y49275D02*
X328634Y49275D01*
X325739Y50474D01*
X323524Y52689D01*
X322325Y55584D01*
X322325Y58716D01*
X323524Y61611D01*
X325739Y63826D01*
X328634Y65025D01*
X331766Y65025D01*
X334661Y63826D01*
X336876Y61611D01*
X338075Y58716D01*
X338075Y55584D01*
X336876Y52689D01*
X334661Y50474D01*
X331766Y49275D01*
X328634Y49275D01*
G37*
%LPD*%
%LPC*%
G36*
X125434Y11175D02*
X125434Y11175D01*
X122539Y12374D01*
X120324Y14589D01*
X119125Y17484D01*
X119125Y20616D01*
X120324Y23511D01*
X122539Y25726D01*
X125434Y26925D01*
X128566Y26925D01*
X131461Y25726D01*
X133676Y23511D01*
X134875Y20616D01*
X134875Y17484D01*
X133676Y14589D01*
X131461Y12374D01*
X128566Y11175D01*
X125434Y11175D01*
G37*
%LPD*%
%LPC*%
G36*
X354034Y49275D02*
X354034Y49275D01*
X351139Y50474D01*
X348924Y52689D01*
X347725Y55584D01*
X347725Y58716D01*
X348924Y61611D01*
X351139Y63826D01*
X354034Y65025D01*
X357166Y65025D01*
X360061Y63826D01*
X362276Y61611D01*
X363475Y58716D01*
X363475Y55584D01*
X362276Y52689D01*
X360061Y50474D01*
X357166Y49275D01*
X354034Y49275D01*
G37*
%LPD*%
%LPC*%
G36*
X150834Y11175D02*
X150834Y11175D01*
X147939Y12374D01*
X145724Y14589D01*
X144525Y17484D01*
X144525Y20616D01*
X145724Y23511D01*
X147939Y25726D01*
X150834Y26925D01*
X153966Y26925D01*
X156861Y25726D01*
X159076Y23511D01*
X160275Y20616D01*
X160275Y17484D01*
X159076Y14589D01*
X156861Y12374D01*
X153966Y11175D01*
X150834Y11175D01*
G37*
%LPD*%
%LPC*%
G36*
X379434Y49275D02*
X379434Y49275D01*
X376539Y50474D01*
X374324Y52689D01*
X373125Y55584D01*
X373125Y58716D01*
X374324Y61611D01*
X376539Y63826D01*
X379434Y65025D01*
X382566Y65025D01*
X385461Y63826D01*
X387676Y61611D01*
X388875Y58716D01*
X388875Y55584D01*
X387676Y52689D01*
X385461Y50474D01*
X382566Y49275D01*
X379434Y49275D01*
G37*
%LPD*%
%LPC*%
G36*
X195284Y665225D02*
X195284Y665225D01*
X192389Y666424D01*
X190174Y668639D01*
X188975Y671534D01*
X188975Y674666D01*
X190174Y677561D01*
X192389Y679776D01*
X195284Y680975D01*
X198416Y680975D01*
X201311Y679776D01*
X203526Y677561D01*
X204725Y674666D01*
X204725Y671534D01*
X203526Y668639D01*
X201311Y666424D01*
X198416Y665225D01*
X195284Y665225D01*
G37*
%LPD*%
%LPC*%
G36*
X366734Y595375D02*
X366734Y595375D01*
X363839Y596574D01*
X361624Y598789D01*
X360425Y601684D01*
X360425Y604816D01*
X361624Y607711D01*
X363839Y609926D01*
X366734Y611125D01*
X369866Y611125D01*
X372761Y609926D01*
X374976Y607711D01*
X376175Y604816D01*
X376175Y601684D01*
X374976Y598789D01*
X372761Y596574D01*
X369866Y595375D01*
X366734Y595375D01*
G37*
%LPD*%
%LPC*%
G36*
X404834Y49275D02*
X404834Y49275D01*
X401939Y50474D01*
X399724Y52689D01*
X398525Y55584D01*
X398525Y58716D01*
X399724Y61611D01*
X401939Y63826D01*
X404834Y65025D01*
X407966Y65025D01*
X410861Y63826D01*
X413076Y61611D01*
X414275Y58716D01*
X414275Y55584D01*
X413076Y52689D01*
X410861Y50474D01*
X407966Y49275D01*
X404834Y49275D01*
G37*
%LPD*%
%LPC*%
G36*
X315934Y595375D02*
X315934Y595375D01*
X313039Y596574D01*
X310824Y598789D01*
X309625Y601684D01*
X309625Y604816D01*
X310824Y607711D01*
X313039Y609926D01*
X315934Y611125D01*
X319066Y611125D01*
X321961Y609926D01*
X324176Y607711D01*
X325375Y604816D01*
X325375Y601684D01*
X324176Y598789D01*
X321961Y596574D01*
X319066Y595375D01*
X315934Y595375D01*
G37*
%LPD*%
%LPC*%
G36*
X290534Y595375D02*
X290534Y595375D01*
X287639Y596574D01*
X285424Y598789D01*
X284225Y601684D01*
X284225Y604816D01*
X285424Y607711D01*
X287639Y609926D01*
X290534Y611125D01*
X293666Y611125D01*
X296561Y609926D01*
X298776Y607711D01*
X299975Y604816D01*
X299975Y601684D01*
X298776Y598789D01*
X296561Y596574D01*
X293666Y595375D01*
X290534Y595375D01*
G37*
%LPD*%
%LPC*%
G36*
X265134Y595375D02*
X265134Y595375D01*
X262239Y596574D01*
X260024Y598789D01*
X258825Y601684D01*
X258825Y604816D01*
X260024Y607711D01*
X262239Y609926D01*
X265134Y611125D01*
X268266Y611125D01*
X271161Y609926D01*
X273376Y607711D01*
X274575Y604816D01*
X274575Y601684D01*
X273376Y598789D01*
X271161Y596574D01*
X268266Y595375D01*
X265134Y595375D01*
G37*
%LPD*%
%LPC*%
G36*
X239734Y595375D02*
X239734Y595375D01*
X236839Y596574D01*
X234624Y598789D01*
X233425Y601684D01*
X233425Y604816D01*
X234624Y607711D01*
X236839Y609926D01*
X239734Y611125D01*
X242866Y611125D01*
X245761Y609926D01*
X247976Y607711D01*
X249175Y604816D01*
X249175Y601684D01*
X247976Y598789D01*
X245761Y596574D01*
X242866Y595375D01*
X239734Y595375D01*
G37*
%LPD*%
%LPC*%
G36*
X214334Y595375D02*
X214334Y595375D01*
X211439Y596574D01*
X209224Y598789D01*
X208025Y601684D01*
X208025Y604816D01*
X209224Y607711D01*
X211439Y609926D01*
X214334Y611125D01*
X217466Y611125D01*
X220361Y609926D01*
X222576Y607711D01*
X223775Y604816D01*
X223775Y601684D01*
X222576Y598789D01*
X220361Y596574D01*
X217466Y595375D01*
X214334Y595375D01*
G37*
%LPD*%
%LPC*%
G36*
X188934Y595375D02*
X188934Y595375D01*
X186039Y596574D01*
X183824Y598789D01*
X182625Y601684D01*
X182625Y604816D01*
X183824Y607711D01*
X186039Y609926D01*
X188934Y611125D01*
X192066Y611125D01*
X194961Y609926D01*
X197176Y607711D01*
X198375Y604816D01*
X198375Y601684D01*
X197176Y598789D01*
X194961Y596574D01*
X192066Y595375D01*
X188934Y595375D01*
G37*
%LPD*%
%LPC*%
G36*
X163534Y595375D02*
X163534Y595375D01*
X160639Y596574D01*
X158424Y598789D01*
X157225Y601684D01*
X157225Y604816D01*
X158424Y607711D01*
X160639Y609926D01*
X163534Y611125D01*
X166666Y611125D01*
X169561Y609926D01*
X171776Y607711D01*
X172975Y604816D01*
X172975Y601684D01*
X171776Y598789D01*
X169561Y596574D01*
X166666Y595375D01*
X163534Y595375D01*
G37*
%LPD*%
%LPC*%
G36*
X138134Y595375D02*
X138134Y595375D01*
X135239Y596574D01*
X133024Y598789D01*
X131825Y601684D01*
X131825Y604816D01*
X133024Y607711D01*
X135239Y609926D01*
X138134Y611125D01*
X141266Y611125D01*
X144161Y609926D01*
X146376Y607711D01*
X147575Y604816D01*
X147575Y601684D01*
X146376Y598789D01*
X144161Y596574D01*
X141266Y595375D01*
X138134Y595375D01*
G37*
%LPD*%
%LPC*%
G36*
X112734Y595375D02*
X112734Y595375D01*
X109839Y596574D01*
X107624Y598789D01*
X106425Y601684D01*
X106425Y604816D01*
X107624Y607711D01*
X109839Y609926D01*
X112734Y611125D01*
X115866Y611125D01*
X118761Y609926D01*
X120976Y607711D01*
X122175Y604816D01*
X122175Y601684D01*
X120976Y598789D01*
X118761Y596574D01*
X115866Y595375D01*
X112734Y595375D01*
G37*
%LPD*%
%LPC*%
G36*
X74634Y49275D02*
X74634Y49275D01*
X71739Y50474D01*
X69524Y52689D01*
X68325Y55584D01*
X68325Y58716D01*
X69524Y61611D01*
X71739Y63826D01*
X74634Y65025D01*
X77766Y65025D01*
X80661Y63826D01*
X82876Y61611D01*
X84075Y58716D01*
X84075Y55584D01*
X82876Y52689D01*
X80661Y50474D01*
X77766Y49275D01*
X74634Y49275D01*
G37*
%LPD*%
%LPC*%
G36*
X49234Y49275D02*
X49234Y49275D01*
X46339Y50474D01*
X44124Y52689D01*
X42925Y55584D01*
X42925Y58716D01*
X44124Y61611D01*
X46339Y63826D01*
X49234Y65025D01*
X52366Y65025D01*
X55261Y63826D01*
X57476Y61611D01*
X58675Y58716D01*
X58675Y55584D01*
X57476Y52689D01*
X55261Y50474D01*
X52366Y49275D01*
X49234Y49275D01*
G37*
%LPD*%
%LPC*%
G36*
X506434Y49275D02*
X506434Y49275D01*
X503539Y50474D01*
X501324Y52689D01*
X500125Y55584D01*
X500125Y58716D01*
X501324Y61611D01*
X503539Y63826D01*
X506434Y65025D01*
X509566Y65025D01*
X512461Y63826D01*
X514676Y61611D01*
X515875Y58716D01*
X515875Y55584D01*
X514676Y52689D01*
X512461Y50474D01*
X509566Y49275D01*
X506434Y49275D01*
G37*
%LPD*%
%LPC*%
G36*
X531834Y49275D02*
X531834Y49275D01*
X528939Y50474D01*
X526724Y52689D01*
X525525Y55584D01*
X525525Y58716D01*
X526724Y61611D01*
X528939Y63826D01*
X531834Y65025D01*
X534966Y65025D01*
X537861Y63826D01*
X540076Y61611D01*
X541275Y58716D01*
X541275Y55584D01*
X540076Y52689D01*
X537861Y50474D01*
X534966Y49275D01*
X531834Y49275D01*
G37*
%LPD*%
%LPC*%
G36*
X557234Y49275D02*
X557234Y49275D01*
X554339Y50474D01*
X552124Y52689D01*
X550925Y55584D01*
X550925Y58716D01*
X552124Y61611D01*
X554339Y63826D01*
X557234Y65025D01*
X560366Y65025D01*
X563261Y63826D01*
X565476Y61611D01*
X566675Y58716D01*
X566675Y55584D01*
X565476Y52689D01*
X563261Y50474D01*
X560366Y49275D01*
X557234Y49275D01*
G37*
%LPD*%
%LPC*%
G36*
X582634Y49275D02*
X582634Y49275D01*
X579739Y50474D01*
X577524Y52689D01*
X576325Y55584D01*
X576325Y58716D01*
X577524Y61611D01*
X579739Y63826D01*
X582634Y65025D01*
X585766Y65025D01*
X588661Y63826D01*
X590876Y61611D01*
X592075Y58716D01*
X592075Y55584D01*
X590876Y52689D01*
X588661Y50474D01*
X585766Y49275D01*
X582634Y49275D01*
G37*
%LPD*%
%LPC*%
G36*
X176234Y11175D02*
X176234Y11175D01*
X173339Y12374D01*
X171124Y14589D01*
X169925Y17484D01*
X169925Y20616D01*
X171124Y23511D01*
X173339Y25726D01*
X176234Y26925D01*
X179366Y26925D01*
X182261Y25726D01*
X184476Y23511D01*
X185675Y20616D01*
X185675Y17484D01*
X184476Y14589D01*
X182261Y12374D01*
X179366Y11175D01*
X176234Y11175D01*
G37*
%LPD*%
%LPC*%
G36*
X341334Y569975D02*
X341334Y569975D01*
X338439Y571174D01*
X336224Y573389D01*
X335025Y576284D01*
X335025Y579416D01*
X336224Y582311D01*
X338439Y584526D01*
X341334Y585725D01*
X344466Y585725D01*
X347361Y584526D01*
X349576Y582311D01*
X350775Y579416D01*
X350775Y576284D01*
X349576Y573389D01*
X347361Y571174D01*
X344466Y569975D01*
X341334Y569975D01*
G37*
%LPD*%
%LPC*%
G36*
X138134Y569975D02*
X138134Y569975D01*
X135239Y571174D01*
X133024Y573389D01*
X131825Y576284D01*
X131825Y579416D01*
X133024Y582311D01*
X135239Y584526D01*
X138134Y585725D01*
X141266Y585725D01*
X144161Y584526D01*
X146376Y582311D01*
X147575Y579416D01*
X147575Y576284D01*
X146376Y573389D01*
X144161Y571174D01*
X141266Y569975D01*
X138134Y569975D01*
G37*
%LPD*%
%LPC*%
G36*
X112734Y569975D02*
X112734Y569975D01*
X109839Y571174D01*
X107624Y573389D01*
X106425Y576284D01*
X106425Y579416D01*
X107624Y582311D01*
X109839Y584526D01*
X112734Y585725D01*
X115866Y585725D01*
X118761Y584526D01*
X120976Y582311D01*
X122175Y579416D01*
X122175Y576284D01*
X120976Y573389D01*
X118761Y571174D01*
X115866Y569975D01*
X112734Y569975D01*
G37*
%LPD*%
%LPC*%
G36*
X366734Y569975D02*
X366734Y569975D01*
X363839Y571174D01*
X361624Y573389D01*
X360425Y576284D01*
X360425Y579416D01*
X361624Y582311D01*
X363839Y584526D01*
X366734Y585725D01*
X369866Y585725D01*
X372761Y584526D01*
X374976Y582311D01*
X376175Y579416D01*
X376175Y576284D01*
X374976Y573389D01*
X372761Y571174D01*
X369866Y569975D01*
X366734Y569975D01*
G37*
%LPD*%
%LPC*%
G36*
X201634Y11175D02*
X201634Y11175D01*
X198739Y12374D01*
X196524Y14589D01*
X195325Y17484D01*
X195325Y20616D01*
X196524Y23511D01*
X198739Y25726D01*
X201634Y26925D01*
X204766Y26925D01*
X207661Y25726D01*
X209876Y23511D01*
X211075Y20616D01*
X211075Y17484D01*
X209876Y14589D01*
X207661Y12374D01*
X204766Y11175D01*
X201634Y11175D01*
G37*
%LPD*%
%LPC*%
G36*
X608034Y49275D02*
X608034Y49275D01*
X605139Y50474D01*
X602924Y52689D01*
X601725Y55584D01*
X601725Y58716D01*
X602924Y61611D01*
X605139Y63826D01*
X608034Y65025D01*
X611166Y65025D01*
X614061Y63826D01*
X616276Y61611D01*
X617475Y58716D01*
X617475Y55584D01*
X616276Y52689D01*
X614061Y50474D01*
X611166Y49275D01*
X608034Y49275D01*
G37*
%LPD*%
%LPC*%
G36*
X227034Y11175D02*
X227034Y11175D01*
X224139Y12374D01*
X221924Y14589D01*
X220725Y17484D01*
X220725Y20616D01*
X221924Y23511D01*
X224139Y25726D01*
X227034Y26925D01*
X230166Y26925D01*
X233061Y25726D01*
X235276Y23511D01*
X236475Y20616D01*
X236475Y17484D01*
X235276Y14589D01*
X233061Y12374D01*
X230166Y11175D01*
X227034Y11175D01*
G37*
%LPD*%
%LPC*%
G36*
X633434Y49275D02*
X633434Y49275D01*
X630539Y50474D01*
X628324Y52689D01*
X627125Y55584D01*
X627125Y58716D01*
X628324Y61611D01*
X630539Y63826D01*
X633434Y65025D01*
X636566Y65025D01*
X639461Y63826D01*
X641676Y61611D01*
X642875Y58716D01*
X642875Y55584D01*
X641676Y52689D01*
X639461Y50474D01*
X636566Y49275D01*
X633434Y49275D01*
G37*
%LPD*%
%LPC*%
G36*
X658834Y49275D02*
X658834Y49275D01*
X655939Y50474D01*
X653724Y52689D01*
X652525Y55584D01*
X652525Y58716D01*
X653724Y61611D01*
X655939Y63826D01*
X658834Y65025D01*
X661966Y65025D01*
X664861Y63826D01*
X667076Y61611D01*
X668275Y58716D01*
X668275Y55584D01*
X667076Y52689D01*
X664861Y50474D01*
X661966Y49275D01*
X658834Y49275D01*
G37*
%LPD*%
%LPC*%
G36*
X684234Y49275D02*
X684234Y49275D01*
X681339Y50474D01*
X679124Y52689D01*
X677925Y55584D01*
X677925Y58716D01*
X679124Y61611D01*
X681339Y63826D01*
X684234Y65025D01*
X687366Y65025D01*
X690261Y63826D01*
X692476Y61611D01*
X693675Y58716D01*
X693675Y55584D01*
X692476Y52689D01*
X690261Y50474D01*
X687366Y49275D01*
X684234Y49275D01*
G37*
%LPD*%
%LPC*%
G36*
X709634Y49275D02*
X709634Y49275D01*
X706739Y50474D01*
X704524Y52689D01*
X703325Y55584D01*
X703325Y58716D01*
X704524Y61611D01*
X706739Y63826D01*
X709634Y65025D01*
X712766Y65025D01*
X715661Y63826D01*
X717876Y61611D01*
X719075Y58716D01*
X719075Y55584D01*
X717876Y52689D01*
X715661Y50474D01*
X712766Y49275D01*
X709634Y49275D01*
G37*
%LPD*%
%LPC*%
G36*
X836634Y544575D02*
X836634Y544575D01*
X833739Y545774D01*
X831524Y547989D01*
X830325Y550884D01*
X830325Y554016D01*
X831524Y556911D01*
X833739Y559126D01*
X836634Y560325D01*
X839766Y560325D01*
X842661Y559126D01*
X844876Y556911D01*
X846075Y554016D01*
X846075Y550884D01*
X844876Y547989D01*
X842661Y545774D01*
X839766Y544575D01*
X836634Y544575D01*
G37*
%LPD*%
%LPC*%
G36*
X811234Y544575D02*
X811234Y544575D01*
X808339Y545774D01*
X806124Y547989D01*
X804925Y550884D01*
X804925Y554016D01*
X806124Y556911D01*
X808339Y559126D01*
X811234Y560325D01*
X814366Y560325D01*
X817261Y559126D01*
X819476Y556911D01*
X820675Y554016D01*
X820675Y550884D01*
X819476Y547989D01*
X817261Y545774D01*
X814366Y544575D01*
X811234Y544575D01*
G37*
%LPD*%
%LPC*%
G36*
X785834Y544575D02*
X785834Y544575D01*
X782939Y545774D01*
X780724Y547989D01*
X779525Y550884D01*
X779525Y554016D01*
X780724Y556911D01*
X782939Y559126D01*
X785834Y560325D01*
X788966Y560325D01*
X791861Y559126D01*
X794076Y556911D01*
X795275Y554016D01*
X795275Y550884D01*
X794076Y547989D01*
X791861Y545774D01*
X788966Y544575D01*
X785834Y544575D01*
G37*
%LPD*%
%LPC*%
G36*
X760434Y544575D02*
X760434Y544575D01*
X757539Y545774D01*
X755324Y547989D01*
X754125Y550884D01*
X754125Y554016D01*
X755324Y556911D01*
X757539Y559126D01*
X760434Y560325D01*
X763566Y560325D01*
X766461Y559126D01*
X768676Y556911D01*
X769875Y554016D01*
X769875Y550884D01*
X768676Y547989D01*
X766461Y545774D01*
X763566Y544575D01*
X760434Y544575D01*
G37*
%LPD*%
%LPC*%
G36*
X735034Y544575D02*
X735034Y544575D01*
X732139Y545774D01*
X729924Y547989D01*
X728725Y550884D01*
X728725Y554016D01*
X729924Y556911D01*
X732139Y559126D01*
X735034Y560325D01*
X738166Y560325D01*
X741061Y559126D01*
X743276Y556911D01*
X744475Y554016D01*
X744475Y550884D01*
X743276Y547989D01*
X741061Y545774D01*
X738166Y544575D01*
X735034Y544575D01*
G37*
%LPD*%
%LPC*%
G36*
X709634Y544575D02*
X709634Y544575D01*
X706739Y545774D01*
X704524Y547989D01*
X703325Y550884D01*
X703325Y554016D01*
X704524Y556911D01*
X706739Y559126D01*
X709634Y560325D01*
X712766Y560325D01*
X715661Y559126D01*
X717876Y556911D01*
X719075Y554016D01*
X719075Y550884D01*
X717876Y547989D01*
X715661Y545774D01*
X712766Y544575D01*
X709634Y544575D01*
G37*
%LPD*%
%LPC*%
G36*
X252434Y11175D02*
X252434Y11175D01*
X249539Y12374D01*
X247324Y14589D01*
X246125Y17484D01*
X246125Y20616D01*
X247324Y23511D01*
X249539Y25726D01*
X252434Y26925D01*
X255566Y26925D01*
X258461Y25726D01*
X260676Y23511D01*
X261875Y20616D01*
X261875Y17484D01*
X260676Y14589D01*
X258461Y12374D01*
X255566Y11175D01*
X252434Y11175D01*
G37*
%LPD*%
%LPC*%
G36*
X138134Y544575D02*
X138134Y544575D01*
X135239Y545774D01*
X133024Y547989D01*
X131825Y550884D01*
X131825Y554016D01*
X133024Y556911D01*
X135239Y559126D01*
X138134Y560325D01*
X141266Y560325D01*
X144161Y559126D01*
X146376Y556911D01*
X147575Y554016D01*
X147575Y550884D01*
X146376Y547989D01*
X144161Y545774D01*
X141266Y544575D01*
X138134Y544575D01*
G37*
%LPD*%
%LPC*%
G36*
X112734Y544575D02*
X112734Y544575D01*
X109839Y545774D01*
X107624Y547989D01*
X106425Y550884D01*
X106425Y554016D01*
X107624Y556911D01*
X109839Y559126D01*
X112734Y560325D01*
X115866Y560325D01*
X118761Y559126D01*
X120976Y556911D01*
X122175Y554016D01*
X122175Y550884D01*
X120976Y547989D01*
X118761Y545774D01*
X115866Y544575D01*
X112734Y544575D01*
G37*
%LPD*%
%LPC*%
G36*
X735034Y49275D02*
X735034Y49275D01*
X732139Y50474D01*
X729924Y52689D01*
X728725Y55584D01*
X728725Y58716D01*
X729924Y61611D01*
X732139Y63826D01*
X735034Y65025D01*
X738166Y65025D01*
X741061Y63826D01*
X743276Y61611D01*
X744475Y58716D01*
X744475Y55584D01*
X743276Y52689D01*
X741061Y50474D01*
X738166Y49275D01*
X735034Y49275D01*
G37*
%LPD*%
%LPC*%
G36*
X760434Y49275D02*
X760434Y49275D01*
X757539Y50474D01*
X755324Y52689D01*
X754125Y55584D01*
X754125Y58716D01*
X755324Y61611D01*
X757539Y63826D01*
X760434Y65025D01*
X763566Y65025D01*
X766461Y63826D01*
X768676Y61611D01*
X769875Y58716D01*
X769875Y55584D01*
X768676Y52689D01*
X766461Y50474D01*
X763566Y49275D01*
X760434Y49275D01*
G37*
%LPD*%
%LPC*%
G36*
X785834Y49275D02*
X785834Y49275D01*
X782939Y50474D01*
X780724Y52689D01*
X779525Y55584D01*
X779525Y58716D01*
X780724Y61611D01*
X782939Y63826D01*
X785834Y65025D01*
X788966Y65025D01*
X791861Y63826D01*
X794076Y61611D01*
X795275Y58716D01*
X795275Y55584D01*
X794076Y52689D01*
X791861Y50474D01*
X788966Y49275D01*
X785834Y49275D01*
G37*
%LPD*%
%LPC*%
G36*
X811234Y49275D02*
X811234Y49275D01*
X808339Y50474D01*
X806124Y52689D01*
X804925Y55584D01*
X804925Y58716D01*
X806124Y61611D01*
X808339Y63826D01*
X811234Y65025D01*
X814366Y65025D01*
X817261Y63826D01*
X819476Y61611D01*
X820675Y58716D01*
X820675Y55584D01*
X819476Y52689D01*
X817261Y50474D01*
X814366Y49275D01*
X811234Y49275D01*
G37*
%LPD*%
%LPC*%
G36*
X277834Y11175D02*
X277834Y11175D01*
X274939Y12374D01*
X272724Y14589D01*
X271525Y17484D01*
X271525Y20616D01*
X272724Y23511D01*
X274939Y25726D01*
X277834Y26925D01*
X280966Y26925D01*
X283861Y25726D01*
X286076Y23511D01*
X287275Y20616D01*
X287275Y17484D01*
X286076Y14589D01*
X283861Y12374D01*
X280966Y11175D01*
X277834Y11175D01*
G37*
%LPD*%
%LPC*%
G36*
X836634Y49275D02*
X836634Y49275D01*
X833739Y50474D01*
X831524Y52689D01*
X830325Y55584D01*
X830325Y58716D01*
X831524Y61611D01*
X833739Y63826D01*
X836634Y65025D01*
X839766Y65025D01*
X842661Y63826D01*
X844876Y61611D01*
X846075Y58716D01*
X846075Y55584D01*
X844876Y52689D01*
X842661Y50474D01*
X839766Y49275D01*
X836634Y49275D01*
G37*
%LPD*%
%LPC*%
G36*
X481034Y49275D02*
X481034Y49275D01*
X478139Y50474D01*
X475924Y52689D01*
X474725Y55584D01*
X474725Y58716D01*
X475924Y61611D01*
X478139Y63826D01*
X481034Y65025D01*
X484166Y65025D01*
X487061Y63826D01*
X489276Y61611D01*
X490475Y58716D01*
X490475Y55584D01*
X489276Y52689D01*
X487061Y50474D01*
X484166Y49275D01*
X481034Y49275D01*
G37*
%LPD*%
%LPC*%
G36*
X430234Y49275D02*
X430234Y49275D01*
X427339Y50474D01*
X425124Y52689D01*
X423925Y55584D01*
X423925Y58716D01*
X425124Y61611D01*
X427339Y63826D01*
X430234Y65025D01*
X433366Y65025D01*
X436261Y63826D01*
X438476Y61611D01*
X439675Y58716D01*
X439675Y55584D01*
X438476Y52689D01*
X436261Y50474D01*
X433366Y49275D01*
X430234Y49275D01*
G37*
%LPD*%
%LPC*%
G36*
X290534Y312800D02*
X290534Y312800D01*
X287639Y313999D01*
X285424Y316214D01*
X284225Y319109D01*
X284225Y322241D01*
X285424Y325136D01*
X287639Y327351D01*
X290534Y328550D01*
X293666Y328550D01*
X296561Y327351D01*
X298776Y325136D01*
X299975Y322241D01*
X299975Y319109D01*
X298776Y316214D01*
X296561Y313999D01*
X293666Y312800D01*
X290534Y312800D01*
G37*
%LPD*%
%LPC*%
G36*
X125434Y49275D02*
X125434Y49275D01*
X122539Y50474D01*
X120324Y52689D01*
X119125Y55584D01*
X119125Y58716D01*
X120324Y61611D01*
X122539Y63826D01*
X125434Y65025D01*
X128566Y65025D01*
X131461Y63826D01*
X133676Y61611D01*
X134875Y58716D01*
X134875Y55584D01*
X133676Y52689D01*
X131461Y50474D01*
X128566Y49275D01*
X125434Y49275D01*
G37*
%LPD*%
%LPC*%
G36*
X100034Y49275D02*
X100034Y49275D01*
X97139Y50474D01*
X94924Y52689D01*
X93725Y55584D01*
X93725Y58716D01*
X94924Y61611D01*
X97139Y63826D01*
X100034Y65025D01*
X103166Y65025D01*
X106061Y63826D01*
X108276Y61611D01*
X109475Y58716D01*
X109475Y55584D01*
X108276Y52689D01*
X106061Y50474D01*
X103166Y49275D01*
X100034Y49275D01*
G37*
%LPD*%
%LPC*%
G36*
X455634Y138175D02*
X455634Y138175D01*
X452739Y139374D01*
X450524Y141589D01*
X449325Y144484D01*
X449325Y147616D01*
X450524Y150511D01*
X452739Y152726D01*
X455634Y153925D01*
X458766Y153925D01*
X461661Y152726D01*
X463876Y150511D01*
X465075Y147616D01*
X465075Y144484D01*
X463876Y141589D01*
X461661Y139374D01*
X458766Y138175D01*
X455634Y138175D01*
G37*
%LPD*%
%LPC*%
G36*
X557234Y182625D02*
X557234Y182625D01*
X554339Y183824D01*
X552124Y186039D01*
X550925Y188934D01*
X550925Y192066D01*
X552124Y194961D01*
X554339Y197176D01*
X557234Y198375D01*
X560366Y198375D01*
X563261Y197176D01*
X565476Y194961D01*
X566675Y192066D01*
X566675Y188934D01*
X565476Y186039D01*
X563261Y183824D01*
X560366Y182625D01*
X557234Y182625D01*
G37*
%LPD*%
%LPC*%
G36*
X842984Y754125D02*
X842984Y754125D01*
X840089Y755324D01*
X837874Y757539D01*
X836675Y760434D01*
X836675Y763566D01*
X837874Y766461D01*
X840089Y768676D01*
X842984Y769875D01*
X846116Y769875D01*
X849011Y768676D01*
X851226Y766461D01*
X852425Y763566D01*
X852425Y760434D01*
X851226Y757539D01*
X849011Y755324D01*
X846116Y754125D01*
X842984Y754125D01*
G37*
%LPD*%
%LPC*%
G36*
X100034Y239775D02*
X100034Y239775D01*
X97139Y240974D01*
X94924Y243189D01*
X93725Y246084D01*
X93725Y249216D01*
X94924Y252111D01*
X97139Y254326D01*
X100034Y255525D01*
X103166Y255525D01*
X106061Y254326D01*
X108276Y252111D01*
X109475Y249216D01*
X109475Y246084D01*
X108276Y243189D01*
X106061Y240974D01*
X103166Y239775D01*
X100034Y239775D01*
G37*
%LPD*%
%LPC*%
G36*
X366734Y519175D02*
X366734Y519175D01*
X363839Y520374D01*
X361624Y522589D01*
X360425Y525484D01*
X360425Y528616D01*
X361624Y531511D01*
X363839Y533726D01*
X366734Y534925D01*
X369866Y534925D01*
X372761Y533726D01*
X374976Y531511D01*
X376175Y528616D01*
X376175Y525484D01*
X374976Y522589D01*
X372761Y520374D01*
X369866Y519175D01*
X366734Y519175D01*
G37*
%LPD*%
%LPC*%
G36*
X341334Y519175D02*
X341334Y519175D01*
X338439Y520374D01*
X336224Y522589D01*
X335025Y525484D01*
X335025Y528616D01*
X336224Y531511D01*
X338439Y533726D01*
X341334Y534925D01*
X344466Y534925D01*
X347361Y533726D01*
X349576Y531511D01*
X350775Y528616D01*
X350775Y525484D01*
X349576Y522589D01*
X347361Y520374D01*
X344466Y519175D01*
X341334Y519175D01*
G37*
%LPD*%
%LPC*%
G36*
X138134Y519175D02*
X138134Y519175D01*
X135239Y520374D01*
X133024Y522589D01*
X131825Y525484D01*
X131825Y528616D01*
X133024Y531511D01*
X135239Y533726D01*
X138134Y534925D01*
X141266Y534925D01*
X144161Y533726D01*
X146376Y531511D01*
X147575Y528616D01*
X147575Y525484D01*
X146376Y522589D01*
X144161Y520374D01*
X141266Y519175D01*
X138134Y519175D01*
G37*
%LPD*%
%LPC*%
G36*
X112734Y519175D02*
X112734Y519175D01*
X109839Y520374D01*
X107624Y522589D01*
X106425Y525484D01*
X106425Y528616D01*
X107624Y531511D01*
X109839Y533726D01*
X112734Y534925D01*
X115866Y534925D01*
X118761Y533726D01*
X120976Y531511D01*
X122175Y528616D01*
X122175Y525484D01*
X120976Y522589D01*
X118761Y520374D01*
X115866Y519175D01*
X112734Y519175D01*
G37*
%LPD*%
%LPC*%
G36*
X303234Y11175D02*
X303234Y11175D01*
X300339Y12374D01*
X298124Y14589D01*
X296925Y17484D01*
X296925Y20616D01*
X298124Y23511D01*
X300339Y25726D01*
X303234Y26925D01*
X306366Y26925D01*
X309261Y25726D01*
X311476Y23511D01*
X312675Y20616D01*
X312675Y17484D01*
X311476Y14589D01*
X309261Y12374D01*
X306366Y11175D01*
X303234Y11175D01*
G37*
%LPD*%
%LPC*%
G36*
X328634Y11175D02*
X328634Y11175D01*
X325739Y12374D01*
X323524Y14589D01*
X322325Y17484D01*
X322325Y20616D01*
X323524Y23511D01*
X325739Y25726D01*
X328634Y26925D01*
X331766Y26925D01*
X334661Y25726D01*
X336876Y23511D01*
X338075Y20616D01*
X338075Y17484D01*
X336876Y14589D01*
X334661Y12374D01*
X331766Y11175D01*
X328634Y11175D01*
G37*
%LPD*%
%LPC*%
G36*
X354034Y11175D02*
X354034Y11175D01*
X351139Y12374D01*
X348924Y14589D01*
X347725Y17484D01*
X347725Y20616D01*
X348924Y23511D01*
X351139Y25726D01*
X354034Y26925D01*
X357166Y26925D01*
X360061Y25726D01*
X362276Y23511D01*
X363475Y20616D01*
X363475Y17484D01*
X362276Y14589D01*
X360061Y12374D01*
X357166Y11175D01*
X354034Y11175D01*
G37*
%LPD*%
%LPC*%
G36*
X125434Y239775D02*
X125434Y239775D01*
X122539Y240974D01*
X120324Y243189D01*
X119125Y246084D01*
X119125Y249216D01*
X120324Y252111D01*
X122539Y254326D01*
X125434Y255525D01*
X128566Y255525D01*
X131461Y254326D01*
X133676Y252111D01*
X134875Y249216D01*
X134875Y246084D01*
X133676Y243189D01*
X131461Y240974D01*
X128566Y239775D01*
X125434Y239775D01*
G37*
%LPD*%
%LPC*%
G36*
X379434Y11175D02*
X379434Y11175D01*
X376539Y12374D01*
X374324Y14589D01*
X373125Y17484D01*
X373125Y20616D01*
X374324Y23511D01*
X376539Y25726D01*
X379434Y26925D01*
X382566Y26925D01*
X385461Y25726D01*
X387676Y23511D01*
X388875Y20616D01*
X388875Y17484D01*
X387676Y14589D01*
X385461Y12374D01*
X382566Y11175D01*
X379434Y11175D01*
G37*
%LPD*%
%LPC*%
G36*
X150834Y239775D02*
X150834Y239775D01*
X147939Y240974D01*
X145724Y243189D01*
X144525Y246084D01*
X144525Y249216D01*
X145724Y252111D01*
X147939Y254326D01*
X150834Y255525D01*
X153966Y255525D01*
X156861Y254326D01*
X159076Y252111D01*
X160275Y249216D01*
X160275Y246084D01*
X159076Y243189D01*
X156861Y240974D01*
X153966Y239775D01*
X150834Y239775D01*
G37*
%LPD*%
%LPC*%
G36*
X404834Y11175D02*
X404834Y11175D01*
X401939Y12374D01*
X399724Y14589D01*
X398525Y17484D01*
X398525Y20616D01*
X399724Y23511D01*
X401939Y25726D01*
X404834Y26925D01*
X407966Y26925D01*
X410861Y25726D01*
X413076Y23511D01*
X414275Y20616D01*
X414275Y17484D01*
X413076Y14589D01*
X410861Y12374D01*
X407966Y11175D01*
X404834Y11175D01*
G37*
%LPD*%
%LPC*%
G36*
X176234Y239775D02*
X176234Y239775D01*
X173339Y240974D01*
X171124Y243189D01*
X169925Y246084D01*
X169925Y249216D01*
X171124Y252111D01*
X173339Y254326D01*
X176234Y255525D01*
X179366Y255525D01*
X182261Y254326D01*
X184476Y252111D01*
X185675Y249216D01*
X185675Y246084D01*
X184476Y243189D01*
X182261Y240974D01*
X179366Y239775D01*
X176234Y239775D01*
G37*
%LPD*%
%LPC*%
G36*
X430234Y11175D02*
X430234Y11175D01*
X427339Y12374D01*
X425124Y14589D01*
X423925Y17484D01*
X423925Y20616D01*
X425124Y23511D01*
X427339Y25726D01*
X430234Y26925D01*
X433366Y26925D01*
X436261Y25726D01*
X438476Y23511D01*
X439675Y20616D01*
X439675Y17484D01*
X438476Y14589D01*
X436261Y12374D01*
X433366Y11175D01*
X430234Y11175D01*
G37*
%LPD*%
%LPC*%
G36*
X201634Y239775D02*
X201634Y239775D01*
X198739Y240974D01*
X196524Y243189D01*
X195325Y246084D01*
X195325Y249216D01*
X196524Y252111D01*
X198739Y254326D01*
X201634Y255525D01*
X204766Y255525D01*
X207661Y254326D01*
X209876Y252111D01*
X211075Y249216D01*
X211075Y246084D01*
X209876Y243189D01*
X207661Y240974D01*
X204766Y239775D01*
X201634Y239775D01*
G37*
%LPD*%
%LPC*%
G36*
X227034Y239775D02*
X227034Y239775D01*
X224139Y240974D01*
X221924Y243189D01*
X220725Y246084D01*
X220725Y249216D01*
X221924Y252111D01*
X224139Y254326D01*
X227034Y255525D01*
X230166Y255525D01*
X233061Y254326D01*
X235276Y252111D01*
X236475Y249216D01*
X236475Y246084D01*
X235276Y243189D01*
X233061Y240974D01*
X230166Y239775D01*
X227034Y239775D01*
G37*
%LPD*%
%LPC*%
G36*
X252434Y239775D02*
X252434Y239775D01*
X249539Y240974D01*
X247324Y243189D01*
X246125Y246084D01*
X246125Y249216D01*
X247324Y252111D01*
X249539Y254326D01*
X252434Y255525D01*
X255566Y255525D01*
X258461Y254326D01*
X260676Y252111D01*
X261875Y249216D01*
X261875Y246084D01*
X260676Y243189D01*
X258461Y240974D01*
X255566Y239775D01*
X252434Y239775D01*
G37*
%LPD*%
%LPC*%
G36*
X811234Y512825D02*
X811234Y512825D01*
X808339Y514024D01*
X806124Y516239D01*
X804925Y519134D01*
X804925Y522266D01*
X806124Y525161D01*
X808339Y527376D01*
X811234Y528575D01*
X814366Y528575D01*
X817261Y527376D01*
X819476Y525161D01*
X820675Y522266D01*
X820675Y519134D01*
X819476Y516239D01*
X817261Y514024D01*
X814366Y512825D01*
X811234Y512825D01*
G37*
%LPD*%
%LPC*%
G36*
X277834Y239775D02*
X277834Y239775D01*
X274939Y240974D01*
X272724Y243189D01*
X271525Y246084D01*
X271525Y249216D01*
X272724Y252111D01*
X274939Y254326D01*
X277834Y255525D01*
X280966Y255525D01*
X283861Y254326D01*
X286076Y252111D01*
X287275Y249216D01*
X287275Y246084D01*
X286076Y243189D01*
X283861Y240974D01*
X280966Y239775D01*
X277834Y239775D01*
G37*
%LPD*%
%LPC*%
G36*
X49234Y11175D02*
X49234Y11175D01*
X46339Y12374D01*
X44124Y14589D01*
X42925Y17484D01*
X42925Y20616D01*
X44124Y23511D01*
X46339Y25726D01*
X49234Y26925D01*
X52366Y26925D01*
X55261Y25726D01*
X57476Y23511D01*
X58675Y20616D01*
X58675Y17484D01*
X57476Y14589D01*
X55261Y12374D01*
X52366Y11175D01*
X49234Y11175D01*
G37*
%LPD*%
%LPC*%
G36*
X303234Y239775D02*
X303234Y239775D01*
X300339Y240974D01*
X298124Y243189D01*
X296925Y246084D01*
X296925Y249216D01*
X298124Y252111D01*
X300339Y254326D01*
X303234Y255525D01*
X306366Y255525D01*
X309261Y254326D01*
X311476Y252111D01*
X312675Y249216D01*
X312675Y246084D01*
X311476Y243189D01*
X309261Y240974D01*
X306366Y239775D01*
X303234Y239775D01*
G37*
%LPD*%
%LPC*%
G36*
X690584Y690625D02*
X690584Y690625D01*
X687689Y691824D01*
X685474Y694039D01*
X684275Y696934D01*
X684275Y700066D01*
X685474Y702961D01*
X687689Y705176D01*
X690584Y706375D01*
X693716Y706375D01*
X696611Y705176D01*
X698826Y702961D01*
X700025Y700066D01*
X700025Y696934D01*
X698826Y694039D01*
X696611Y691824D01*
X693716Y690625D01*
X690584Y690625D01*
G37*
%LPD*%
%LPC*%
G36*
X328634Y239775D02*
X328634Y239775D01*
X325739Y240974D01*
X323524Y243189D01*
X322325Y246084D01*
X322325Y249216D01*
X323524Y252111D01*
X325739Y254326D01*
X328634Y255525D01*
X331766Y255525D01*
X334661Y254326D01*
X336876Y252111D01*
X338075Y249216D01*
X338075Y246084D01*
X336876Y243189D01*
X334661Y240974D01*
X331766Y239775D01*
X328634Y239775D01*
G37*
%LPD*%
%LPC*%
G36*
X506434Y11175D02*
X506434Y11175D01*
X503539Y12374D01*
X501324Y14589D01*
X500125Y17484D01*
X500125Y20616D01*
X501324Y23511D01*
X503539Y25726D01*
X506434Y26925D01*
X509566Y26925D01*
X512461Y25726D01*
X514676Y23511D01*
X515875Y20616D01*
X515875Y17484D01*
X514676Y14589D01*
X512461Y12374D01*
X509566Y11175D01*
X506434Y11175D01*
G37*
%LPD*%
%LPC*%
G36*
X354034Y239775D02*
X354034Y239775D01*
X351139Y240974D01*
X348924Y243189D01*
X347725Y246084D01*
X347725Y249216D01*
X348924Y252111D01*
X351139Y254326D01*
X354034Y255525D01*
X357166Y255525D01*
X360061Y254326D01*
X362276Y252111D01*
X363475Y249216D01*
X363475Y246084D01*
X362276Y243189D01*
X360061Y240974D01*
X357166Y239775D01*
X354034Y239775D01*
G37*
%LPD*%
%LPC*%
G36*
X379434Y239775D02*
X379434Y239775D01*
X376539Y240974D01*
X374324Y243189D01*
X373125Y246084D01*
X373125Y249216D01*
X374324Y252111D01*
X376539Y254326D01*
X379434Y255525D01*
X382566Y255525D01*
X385461Y254326D01*
X387676Y252111D01*
X388875Y249216D01*
X388875Y246084D01*
X387676Y243189D01*
X385461Y240974D01*
X382566Y239775D01*
X379434Y239775D01*
G37*
%LPD*%
%LPC*%
G36*
X366734Y493775D02*
X366734Y493775D01*
X363839Y494974D01*
X361624Y497189D01*
X360425Y500084D01*
X360425Y503216D01*
X361624Y506111D01*
X363839Y508326D01*
X366734Y509525D01*
X369866Y509525D01*
X372761Y508326D01*
X374976Y506111D01*
X376175Y503216D01*
X376175Y500084D01*
X374976Y497189D01*
X372761Y494974D01*
X369866Y493775D01*
X366734Y493775D01*
G37*
%LPD*%
%LPC*%
G36*
X341334Y493775D02*
X341334Y493775D01*
X338439Y494974D01*
X336224Y497189D01*
X335025Y500084D01*
X335025Y503216D01*
X336224Y506111D01*
X338439Y508326D01*
X341334Y509525D01*
X344466Y509525D01*
X347361Y508326D01*
X349576Y506111D01*
X350775Y503216D01*
X350775Y500084D01*
X349576Y497189D01*
X347361Y494974D01*
X344466Y493775D01*
X341334Y493775D01*
G37*
%LPD*%
%LPC*%
G36*
X112734Y493775D02*
X112734Y493775D01*
X109839Y494974D01*
X107624Y497189D01*
X106425Y500084D01*
X106425Y503216D01*
X107624Y506111D01*
X109839Y508326D01*
X112734Y509525D01*
X115866Y509525D01*
X118761Y508326D01*
X120976Y506111D01*
X122175Y503216D01*
X122175Y500084D01*
X120976Y497189D01*
X118761Y494974D01*
X115866Y493775D01*
X112734Y493775D01*
G37*
%LPD*%
%LPC*%
G36*
X138134Y493775D02*
X138134Y493775D01*
X135239Y494974D01*
X133024Y497189D01*
X131825Y500084D01*
X131825Y503216D01*
X133024Y506111D01*
X135239Y508326D01*
X138134Y509525D01*
X141266Y509525D01*
X144161Y508326D01*
X146376Y506111D01*
X147575Y503216D01*
X147575Y500084D01*
X146376Y497189D01*
X144161Y494974D01*
X141266Y493775D01*
X138134Y493775D01*
G37*
%LPD*%
%LPC*%
G36*
X404834Y239775D02*
X404834Y239775D01*
X401939Y240974D01*
X399724Y243189D01*
X398525Y246084D01*
X398525Y249216D01*
X399724Y252111D01*
X401939Y254326D01*
X404834Y255525D01*
X407966Y255525D01*
X410861Y254326D01*
X413076Y252111D01*
X414275Y249216D01*
X414275Y246084D01*
X413076Y243189D01*
X410861Y240974D01*
X407966Y239775D01*
X404834Y239775D01*
G37*
%LPD*%
%LPC*%
G36*
X715984Y690625D02*
X715984Y690625D01*
X713089Y691824D01*
X710874Y694039D01*
X709675Y696934D01*
X709675Y700066D01*
X710874Y702961D01*
X713089Y705176D01*
X715984Y706375D01*
X719116Y706375D01*
X722011Y705176D01*
X724226Y702961D01*
X725425Y700066D01*
X725425Y696934D01*
X724226Y694039D01*
X722011Y691824D01*
X719116Y690625D01*
X715984Y690625D01*
G37*
%LPD*%
%LPC*%
G36*
X842984Y690625D02*
X842984Y690625D01*
X840089Y691824D01*
X837874Y694039D01*
X836675Y696934D01*
X836675Y700066D01*
X837874Y702961D01*
X840089Y705176D01*
X842984Y706375D01*
X846116Y706375D01*
X849011Y705176D01*
X851226Y702961D01*
X852425Y700066D01*
X852425Y696934D01*
X851226Y694039D01*
X849011Y691824D01*
X846116Y690625D01*
X842984Y690625D01*
G37*
%LPD*%
%LPC*%
G36*
X430234Y239775D02*
X430234Y239775D01*
X427339Y240974D01*
X425124Y243189D01*
X423925Y246084D01*
X423925Y249216D01*
X425124Y252111D01*
X427339Y254326D01*
X430234Y255525D01*
X433366Y255525D01*
X436261Y254326D01*
X438476Y252111D01*
X439675Y249216D01*
X439675Y246084D01*
X438476Y243189D01*
X436261Y240974D01*
X433366Y239775D01*
X430234Y239775D01*
G37*
%LPD*%
%LPC*%
G36*
X49234Y239775D02*
X49234Y239775D01*
X46339Y240974D01*
X44124Y243189D01*
X42925Y246084D01*
X42925Y249216D01*
X44124Y252111D01*
X46339Y254326D01*
X49234Y255525D01*
X52366Y255525D01*
X55261Y254326D01*
X57476Y252111D01*
X58675Y249216D01*
X58675Y246084D01*
X57476Y243189D01*
X55261Y240974D01*
X52366Y239775D01*
X49234Y239775D01*
G37*
%LPD*%
%LPC*%
G36*
X481034Y239775D02*
X481034Y239775D01*
X478139Y240974D01*
X475924Y243189D01*
X474725Y246084D01*
X474725Y249216D01*
X475924Y252111D01*
X478139Y254326D01*
X481034Y255525D01*
X484166Y255525D01*
X487061Y254326D01*
X489276Y252111D01*
X490475Y249216D01*
X490475Y246084D01*
X489276Y243189D01*
X487061Y240974D01*
X484166Y239775D01*
X481034Y239775D01*
G37*
%LPD*%
%LPC*%
G36*
X74634Y239775D02*
X74634Y239775D01*
X71739Y240974D01*
X69524Y243189D01*
X68325Y246084D01*
X68325Y249216D01*
X69524Y252111D01*
X71739Y254326D01*
X74634Y255525D01*
X77766Y255525D01*
X80661Y254326D01*
X82876Y252111D01*
X84075Y249216D01*
X84075Y246084D01*
X82876Y243189D01*
X80661Y240974D01*
X77766Y239775D01*
X74634Y239775D01*
G37*
%LPD*%
%LPC*%
G36*
X557234Y239775D02*
X557234Y239775D01*
X554339Y240974D01*
X552124Y243189D01*
X550925Y246084D01*
X550925Y249216D01*
X552124Y252111D01*
X554339Y254326D01*
X557234Y255525D01*
X560366Y255525D01*
X563261Y254326D01*
X565476Y252111D01*
X566675Y249216D01*
X566675Y246084D01*
X565476Y243189D01*
X563261Y240974D01*
X560366Y239775D01*
X557234Y239775D01*
G37*
%LPD*%
%LPC*%
G36*
X862034Y468375D02*
X862034Y468375D01*
X859139Y469574D01*
X856924Y471789D01*
X855725Y474684D01*
X855725Y477816D01*
X856924Y480711D01*
X859139Y482926D01*
X862034Y484125D01*
X865166Y484125D01*
X868061Y482926D01*
X870276Y480711D01*
X871475Y477816D01*
X871475Y474684D01*
X870276Y471789D01*
X868061Y469574D01*
X865166Y468375D01*
X862034Y468375D01*
G37*
%LPD*%
%LPC*%
G36*
X836634Y468375D02*
X836634Y468375D01*
X833739Y469574D01*
X831524Y471789D01*
X830325Y474684D01*
X830325Y477816D01*
X831524Y480711D01*
X833739Y482926D01*
X836634Y484125D01*
X839766Y484125D01*
X842661Y482926D01*
X844876Y480711D01*
X846075Y477816D01*
X846075Y474684D01*
X844876Y471789D01*
X842661Y469574D01*
X839766Y468375D01*
X836634Y468375D01*
G37*
%LPD*%
%LPC*%
G36*
X811234Y468375D02*
X811234Y468375D01*
X808339Y469574D01*
X806124Y471789D01*
X804925Y474684D01*
X804925Y477816D01*
X806124Y480711D01*
X808339Y482926D01*
X811234Y484125D01*
X814366Y484125D01*
X817261Y482926D01*
X819476Y480711D01*
X820675Y477816D01*
X820675Y474684D01*
X819476Y471789D01*
X817261Y469574D01*
X814366Y468375D01*
X811234Y468375D01*
G37*
%LPD*%
%LPC*%
G36*
X785834Y468375D02*
X785834Y468375D01*
X782939Y469574D01*
X780724Y471789D01*
X779525Y474684D01*
X779525Y477816D01*
X780724Y480711D01*
X782939Y482926D01*
X785834Y484125D01*
X788966Y484125D01*
X791861Y482926D01*
X794076Y480711D01*
X795275Y477816D01*
X795275Y474684D01*
X794076Y471789D01*
X791861Y469574D01*
X788966Y468375D01*
X785834Y468375D01*
G37*
%LPD*%
%LPC*%
G36*
X760434Y468375D02*
X760434Y468375D01*
X757539Y469574D01*
X755324Y471789D01*
X754125Y474684D01*
X754125Y477816D01*
X755324Y480711D01*
X757539Y482926D01*
X760434Y484125D01*
X763566Y484125D01*
X766461Y482926D01*
X768676Y480711D01*
X769875Y477816D01*
X769875Y474684D01*
X768676Y471789D01*
X766461Y469574D01*
X763566Y468375D01*
X760434Y468375D01*
G37*
%LPD*%
%LPC*%
G36*
X735034Y468375D02*
X735034Y468375D01*
X732139Y469574D01*
X729924Y471789D01*
X728725Y474684D01*
X728725Y477816D01*
X729924Y480711D01*
X732139Y482926D01*
X735034Y484125D01*
X738166Y484125D01*
X741061Y482926D01*
X743276Y480711D01*
X744475Y477816D01*
X744475Y474684D01*
X743276Y471789D01*
X741061Y469574D01*
X738166Y468375D01*
X735034Y468375D01*
G37*
%LPD*%
%LPC*%
G36*
X709634Y468375D02*
X709634Y468375D01*
X706739Y469574D01*
X704524Y471789D01*
X703325Y474684D01*
X703325Y477816D01*
X704524Y480711D01*
X706739Y482926D01*
X709634Y484125D01*
X712766Y484125D01*
X715661Y482926D01*
X717876Y480711D01*
X719075Y477816D01*
X719075Y474684D01*
X717876Y471789D01*
X715661Y469574D01*
X712766Y468375D01*
X709634Y468375D01*
G37*
%LPD*%
%LPC*%
G36*
X684234Y468375D02*
X684234Y468375D01*
X681339Y469574D01*
X679124Y471789D01*
X677925Y474684D01*
X677925Y477816D01*
X679124Y480711D01*
X681339Y482926D01*
X684234Y484125D01*
X687366Y484125D01*
X690261Y482926D01*
X692476Y480711D01*
X693675Y477816D01*
X693675Y474684D01*
X692476Y471789D01*
X690261Y469574D01*
X687366Y468375D01*
X684234Y468375D01*
G37*
%LPD*%
%LPC*%
G36*
X658834Y468375D02*
X658834Y468375D01*
X655939Y469574D01*
X653724Y471789D01*
X652525Y474684D01*
X652525Y477816D01*
X653724Y480711D01*
X655939Y482926D01*
X658834Y484125D01*
X661966Y484125D01*
X664861Y482926D01*
X667076Y480711D01*
X668275Y477816D01*
X668275Y474684D01*
X667076Y471789D01*
X664861Y469574D01*
X661966Y468375D01*
X658834Y468375D01*
G37*
%LPD*%
%LPC*%
G36*
X633434Y468375D02*
X633434Y468375D01*
X630539Y469574D01*
X628324Y471789D01*
X627125Y474684D01*
X627125Y477816D01*
X628324Y480711D01*
X630539Y482926D01*
X633434Y484125D01*
X636566Y484125D01*
X639461Y482926D01*
X641676Y480711D01*
X642875Y477816D01*
X642875Y474684D01*
X641676Y471789D01*
X639461Y469574D01*
X636566Y468375D01*
X633434Y468375D01*
G37*
%LPD*%
%LPC*%
G36*
X366734Y468375D02*
X366734Y468375D01*
X363839Y469574D01*
X361624Y471789D01*
X360425Y474684D01*
X360425Y477816D01*
X361624Y480711D01*
X363839Y482926D01*
X366734Y484125D01*
X369866Y484125D01*
X372761Y482926D01*
X374976Y480711D01*
X376175Y477816D01*
X376175Y474684D01*
X374976Y471789D01*
X372761Y469574D01*
X369866Y468375D01*
X366734Y468375D01*
G37*
%LPD*%
%LPC*%
G36*
X341334Y468375D02*
X341334Y468375D01*
X338439Y469574D01*
X336224Y471789D01*
X335025Y474684D01*
X335025Y477816D01*
X336224Y480711D01*
X338439Y482926D01*
X341334Y484125D01*
X344466Y484125D01*
X347361Y482926D01*
X349576Y480711D01*
X350775Y477816D01*
X350775Y474684D01*
X349576Y471789D01*
X347361Y469574D01*
X344466Y468375D01*
X341334Y468375D01*
G37*
%LPD*%
%LPC*%
G36*
X138134Y468375D02*
X138134Y468375D01*
X135239Y469574D01*
X133024Y471789D01*
X131825Y474684D01*
X131825Y477816D01*
X133024Y480711D01*
X135239Y482926D01*
X138134Y484125D01*
X141266Y484125D01*
X144161Y482926D01*
X146376Y480711D01*
X147575Y477816D01*
X147575Y474684D01*
X146376Y471789D01*
X144161Y469574D01*
X141266Y468375D01*
X138134Y468375D01*
G37*
%LPD*%
%LPC*%
G36*
X582634Y239775D02*
X582634Y239775D01*
X579739Y240974D01*
X577524Y243189D01*
X576325Y246084D01*
X576325Y249216D01*
X577524Y252111D01*
X579739Y254326D01*
X582634Y255525D01*
X585766Y255525D01*
X588661Y254326D01*
X590876Y252111D01*
X592075Y249216D01*
X592075Y246084D01*
X590876Y243189D01*
X588661Y240974D01*
X585766Y239775D01*
X582634Y239775D01*
G37*
%LPD*%
%LPC*%
G36*
X608034Y239775D02*
X608034Y239775D01*
X605139Y240974D01*
X602924Y243189D01*
X601725Y246084D01*
X601725Y249216D01*
X602924Y252111D01*
X605139Y254326D01*
X608034Y255525D01*
X611166Y255525D01*
X614061Y254326D01*
X616276Y252111D01*
X617475Y249216D01*
X617475Y246084D01*
X616276Y243189D01*
X614061Y240974D01*
X611166Y239775D01*
X608034Y239775D01*
G37*
%LPD*%
%LPC*%
G36*
X633434Y239775D02*
X633434Y239775D01*
X630539Y240974D01*
X628324Y243189D01*
X627125Y246084D01*
X627125Y249216D01*
X628324Y252111D01*
X630539Y254326D01*
X633434Y255525D01*
X636566Y255525D01*
X639461Y254326D01*
X641676Y252111D01*
X642875Y249216D01*
X642875Y246084D01*
X641676Y243189D01*
X639461Y240974D01*
X636566Y239775D01*
X633434Y239775D01*
G37*
%LPD*%
%LPC*%
G36*
X658834Y239775D02*
X658834Y239775D01*
X655939Y240974D01*
X653724Y243189D01*
X652525Y246084D01*
X652525Y249216D01*
X653724Y252111D01*
X655939Y254326D01*
X658834Y255525D01*
X661966Y255525D01*
X664861Y254326D01*
X667076Y252111D01*
X668275Y249216D01*
X668275Y246084D01*
X667076Y243189D01*
X664861Y240974D01*
X661966Y239775D01*
X658834Y239775D01*
G37*
%LPD*%
%LPC*%
G36*
X531834Y11175D02*
X531834Y11175D01*
X528939Y12374D01*
X526724Y14589D01*
X525525Y17484D01*
X525525Y20616D01*
X526724Y23511D01*
X528939Y25726D01*
X531834Y26925D01*
X534966Y26925D01*
X537861Y25726D01*
X540076Y23511D01*
X541275Y20616D01*
X541275Y17484D01*
X540076Y14589D01*
X537861Y12374D01*
X534966Y11175D01*
X531834Y11175D01*
G37*
%LPD*%
%LPC*%
G36*
X684234Y239775D02*
X684234Y239775D01*
X681339Y240974D01*
X679124Y243189D01*
X677925Y246084D01*
X677925Y249216D01*
X679124Y252111D01*
X681339Y254326D01*
X684234Y255525D01*
X687366Y255525D01*
X690261Y254326D01*
X692476Y252111D01*
X693675Y249216D01*
X693675Y246084D01*
X692476Y243189D01*
X690261Y240974D01*
X687366Y239775D01*
X684234Y239775D01*
G37*
%LPD*%
%LPC*%
G36*
X709634Y239775D02*
X709634Y239775D01*
X706739Y240974D01*
X704524Y243189D01*
X703325Y246084D01*
X703325Y249216D01*
X704524Y252111D01*
X706739Y254326D01*
X709634Y255525D01*
X712766Y255525D01*
X715661Y254326D01*
X717876Y252111D01*
X719075Y249216D01*
X719075Y246084D01*
X717876Y243189D01*
X715661Y240974D01*
X712766Y239775D01*
X709634Y239775D01*
G37*
%LPD*%
%LPC*%
G36*
X735034Y239775D02*
X735034Y239775D01*
X732139Y240974D01*
X729924Y243189D01*
X728725Y246084D01*
X728725Y249216D01*
X729924Y252111D01*
X732139Y254326D01*
X735034Y255525D01*
X738166Y255525D01*
X741061Y254326D01*
X743276Y252111D01*
X744475Y249216D01*
X744475Y246084D01*
X743276Y243189D01*
X741061Y240974D01*
X738166Y239775D01*
X735034Y239775D01*
G37*
%LPD*%
%LPC*%
G36*
X557234Y11175D02*
X557234Y11175D01*
X554339Y12374D01*
X552124Y14589D01*
X550925Y17484D01*
X550925Y20616D01*
X552124Y23511D01*
X554339Y25726D01*
X557234Y26925D01*
X560366Y26925D01*
X563261Y25726D01*
X565476Y23511D01*
X566675Y20616D01*
X566675Y17484D01*
X565476Y14589D01*
X563261Y12374D01*
X560366Y11175D01*
X557234Y11175D01*
G37*
%LPD*%
%LPC*%
G36*
X760434Y239775D02*
X760434Y239775D01*
X757539Y240974D01*
X755324Y243189D01*
X754125Y246084D01*
X754125Y249216D01*
X755324Y252111D01*
X757539Y254326D01*
X760434Y255525D01*
X763566Y255525D01*
X766461Y254326D01*
X768676Y252111D01*
X769875Y249216D01*
X769875Y246084D01*
X768676Y243189D01*
X766461Y240974D01*
X763566Y239775D01*
X760434Y239775D01*
G37*
%LPD*%
%LPC*%
G36*
X366734Y442975D02*
X366734Y442975D01*
X363839Y444174D01*
X361624Y446389D01*
X360425Y449284D01*
X360425Y452416D01*
X361624Y455311D01*
X363839Y457526D01*
X366734Y458725D01*
X369866Y458725D01*
X372761Y457526D01*
X374976Y455311D01*
X376175Y452416D01*
X376175Y449284D01*
X374976Y446389D01*
X372761Y444174D01*
X369866Y442975D01*
X366734Y442975D01*
G37*
%LPD*%
%LPC*%
G36*
X341334Y442975D02*
X341334Y442975D01*
X338439Y444174D01*
X336224Y446389D01*
X335025Y449284D01*
X335025Y452416D01*
X336224Y455311D01*
X338439Y457526D01*
X341334Y458725D01*
X344466Y458725D01*
X347361Y457526D01*
X349576Y455311D01*
X350775Y452416D01*
X350775Y449284D01*
X349576Y446389D01*
X347361Y444174D01*
X344466Y442975D01*
X341334Y442975D01*
G37*
%LPD*%
%LPC*%
G36*
X138134Y442975D02*
X138134Y442975D01*
X135239Y444174D01*
X133024Y446389D01*
X131825Y449284D01*
X131825Y452416D01*
X133024Y455311D01*
X135239Y457526D01*
X138134Y458725D01*
X141266Y458725D01*
X144161Y457526D01*
X146376Y455311D01*
X147575Y452416D01*
X147575Y449284D01*
X146376Y446389D01*
X144161Y444174D01*
X141266Y442975D01*
X138134Y442975D01*
G37*
%LPD*%
%LPC*%
G36*
X112734Y442975D02*
X112734Y442975D01*
X109839Y444174D01*
X107624Y446389D01*
X106425Y449284D01*
X106425Y452416D01*
X107624Y455311D01*
X109839Y457526D01*
X112734Y458725D01*
X115866Y458725D01*
X118761Y457526D01*
X120976Y455311D01*
X122175Y452416D01*
X122175Y449284D01*
X120976Y446389D01*
X118761Y444174D01*
X115866Y442975D01*
X112734Y442975D01*
G37*
%LPD*%
%LPC*%
G36*
X785834Y239775D02*
X785834Y239775D01*
X782939Y240974D01*
X780724Y243189D01*
X779525Y246084D01*
X779525Y249216D01*
X780724Y252111D01*
X782939Y254326D01*
X785834Y255525D01*
X788966Y255525D01*
X791861Y254326D01*
X794076Y252111D01*
X795275Y249216D01*
X795275Y246084D01*
X794076Y243189D01*
X791861Y240974D01*
X788966Y239775D01*
X785834Y239775D01*
G37*
%LPD*%
%LPC*%
G36*
X811234Y239775D02*
X811234Y239775D01*
X808339Y240974D01*
X806124Y243189D01*
X804925Y246084D01*
X804925Y249216D01*
X806124Y252111D01*
X808339Y254326D01*
X811234Y255525D01*
X814366Y255525D01*
X817261Y254326D01*
X819476Y252111D01*
X820675Y249216D01*
X820675Y246084D01*
X819476Y243189D01*
X817261Y240974D01*
X814366Y239775D01*
X811234Y239775D01*
G37*
%LPD*%
%LPC*%
G36*
X836634Y239775D02*
X836634Y239775D01*
X833739Y240974D01*
X831524Y243189D01*
X830325Y246084D01*
X830325Y249216D01*
X831524Y252111D01*
X833739Y254326D01*
X836634Y255525D01*
X839766Y255525D01*
X842661Y254326D01*
X844876Y252111D01*
X846075Y249216D01*
X846075Y246084D01*
X844876Y243189D01*
X842661Y240974D01*
X839766Y239775D01*
X836634Y239775D01*
G37*
%LPD*%
%LPC*%
G36*
X582634Y11175D02*
X582634Y11175D01*
X579739Y12374D01*
X577524Y14589D01*
X576325Y17484D01*
X576325Y20616D01*
X577524Y23511D01*
X579739Y25726D01*
X582634Y26925D01*
X585766Y26925D01*
X588661Y25726D01*
X590876Y23511D01*
X592075Y20616D01*
X592075Y17484D01*
X590876Y14589D01*
X588661Y12374D01*
X585766Y11175D01*
X582634Y11175D01*
G37*
%LPD*%
%LPC*%
G36*
X455634Y239775D02*
X455634Y239775D01*
X452739Y240974D01*
X450524Y243189D01*
X449325Y246084D01*
X449325Y249216D01*
X450524Y252111D01*
X452739Y254326D01*
X455634Y255525D01*
X458766Y255525D01*
X461661Y254326D01*
X463876Y252111D01*
X465075Y249216D01*
X465075Y246084D01*
X463876Y243189D01*
X461661Y240974D01*
X458766Y239775D01*
X455634Y239775D01*
G37*
%LPD*%
%LPC*%
G36*
X608034Y11175D02*
X608034Y11175D01*
X605139Y12374D01*
X602924Y14589D01*
X601725Y17484D01*
X601725Y20616D01*
X602924Y23511D01*
X605139Y25726D01*
X608034Y26925D01*
X611166Y26925D01*
X614061Y25726D01*
X616276Y23511D01*
X617475Y20616D01*
X617475Y17484D01*
X616276Y14589D01*
X614061Y12374D01*
X611166Y11175D01*
X608034Y11175D01*
G37*
%LPD*%
%LPC*%
G36*
X112734Y417575D02*
X112734Y417575D01*
X109839Y418774D01*
X107624Y420989D01*
X106425Y423884D01*
X106425Y427016D01*
X107624Y429911D01*
X109839Y432126D01*
X112734Y433325D01*
X115866Y433325D01*
X118761Y432126D01*
X120976Y429911D01*
X122175Y427016D01*
X122175Y423884D01*
X120976Y420989D01*
X118761Y418774D01*
X115866Y417575D01*
X112734Y417575D01*
G37*
%LPD*%
%LPC*%
G36*
X633434Y11175D02*
X633434Y11175D01*
X630539Y12374D01*
X628324Y14589D01*
X627125Y17484D01*
X627125Y20616D01*
X628324Y23511D01*
X630539Y25726D01*
X633434Y26925D01*
X636566Y26925D01*
X639461Y25726D01*
X641676Y23511D01*
X642875Y20616D01*
X642875Y17484D01*
X641676Y14589D01*
X639461Y12374D01*
X636566Y11175D01*
X633434Y11175D01*
G37*
%LPD*%
%LPC*%
G36*
X341334Y417575D02*
X341334Y417575D01*
X338439Y418774D01*
X336224Y420989D01*
X335025Y423884D01*
X335025Y427016D01*
X336224Y429911D01*
X338439Y432126D01*
X341334Y433325D01*
X344466Y433325D01*
X347361Y432126D01*
X349576Y429911D01*
X350775Y427016D01*
X350775Y423884D01*
X349576Y420989D01*
X347361Y418774D01*
X344466Y417575D01*
X341334Y417575D01*
G37*
%LPD*%
%LPC*%
G36*
X531834Y239775D02*
X531834Y239775D01*
X528939Y240974D01*
X526724Y243189D01*
X525525Y246084D01*
X525525Y249216D01*
X526724Y252111D01*
X528939Y254326D01*
X531834Y255525D01*
X534966Y255525D01*
X537861Y254326D01*
X540076Y252111D01*
X541275Y249216D01*
X541275Y246084D01*
X540076Y243189D01*
X537861Y240974D01*
X534966Y239775D01*
X531834Y239775D01*
G37*
%LPD*%
%LPC*%
G36*
X100034Y277875D02*
X100034Y277875D01*
X97139Y279074D01*
X94924Y281289D01*
X93725Y284184D01*
X93725Y287316D01*
X94924Y290211D01*
X97139Y292426D01*
X100034Y293625D01*
X103166Y293625D01*
X106061Y292426D01*
X108276Y290211D01*
X109475Y287316D01*
X109475Y284184D01*
X108276Y281289D01*
X106061Y279074D01*
X103166Y277875D01*
X100034Y277875D01*
G37*
%LPD*%
%LPC*%
G36*
X125434Y277875D02*
X125434Y277875D01*
X122539Y279074D01*
X120324Y281289D01*
X119125Y284184D01*
X119125Y287316D01*
X120324Y290211D01*
X122539Y292426D01*
X125434Y293625D01*
X128566Y293625D01*
X131461Y292426D01*
X133676Y290211D01*
X134875Y287316D01*
X134875Y284184D01*
X133676Y281289D01*
X131461Y279074D01*
X128566Y277875D01*
X125434Y277875D01*
G37*
%LPD*%
%LPC*%
G36*
X150834Y277875D02*
X150834Y277875D01*
X147939Y279074D01*
X145724Y281289D01*
X144525Y284184D01*
X144525Y287316D01*
X145724Y290211D01*
X147939Y292426D01*
X150834Y293625D01*
X153966Y293625D01*
X156861Y292426D01*
X159076Y290211D01*
X160275Y287316D01*
X160275Y284184D01*
X159076Y281289D01*
X156861Y279074D01*
X153966Y277875D01*
X150834Y277875D01*
G37*
%LPD*%
%LPC*%
G36*
X690584Y722375D02*
X690584Y722375D01*
X687689Y723574D01*
X685474Y725789D01*
X684275Y728684D01*
X684275Y731816D01*
X685474Y734711D01*
X687689Y736926D01*
X690584Y738125D01*
X693716Y738125D01*
X696611Y736926D01*
X698826Y734711D01*
X700025Y731816D01*
X700025Y728684D01*
X698826Y725789D01*
X696611Y723574D01*
X693716Y722375D01*
X690584Y722375D01*
G37*
%LPD*%
%LPC*%
G36*
X176234Y277875D02*
X176234Y277875D01*
X173339Y279074D01*
X171124Y281289D01*
X169925Y284184D01*
X169925Y287316D01*
X171124Y290211D01*
X173339Y292426D01*
X176234Y293625D01*
X179366Y293625D01*
X182261Y292426D01*
X184476Y290211D01*
X185675Y287316D01*
X185675Y284184D01*
X184476Y281289D01*
X182261Y279074D01*
X179366Y277875D01*
X176234Y277875D01*
G37*
%LPD*%
%LPC*%
G36*
X201634Y277875D02*
X201634Y277875D01*
X198739Y279074D01*
X196524Y281289D01*
X195325Y284184D01*
X195325Y287316D01*
X196524Y290211D01*
X198739Y292426D01*
X201634Y293625D01*
X204766Y293625D01*
X207661Y292426D01*
X209876Y290211D01*
X211075Y287316D01*
X211075Y284184D01*
X209876Y281289D01*
X207661Y279074D01*
X204766Y277875D01*
X201634Y277875D01*
G37*
%LPD*%
%LPC*%
G36*
X227034Y277875D02*
X227034Y277875D01*
X224139Y279074D01*
X221924Y281289D01*
X220725Y284184D01*
X220725Y287316D01*
X221924Y290211D01*
X224139Y292426D01*
X227034Y293625D01*
X230166Y293625D01*
X233061Y292426D01*
X235276Y290211D01*
X236475Y287316D01*
X236475Y284184D01*
X235276Y281289D01*
X233061Y279074D01*
X230166Y277875D01*
X227034Y277875D01*
G37*
%LPD*%
%LPC*%
G36*
X252434Y277875D02*
X252434Y277875D01*
X249539Y279074D01*
X247324Y281289D01*
X246125Y284184D01*
X246125Y287316D01*
X247324Y290211D01*
X249539Y292426D01*
X252434Y293625D01*
X255566Y293625D01*
X258461Y292426D01*
X260676Y290211D01*
X261875Y287316D01*
X261875Y284184D01*
X260676Y281289D01*
X258461Y279074D01*
X255566Y277875D01*
X252434Y277875D01*
G37*
%LPD*%
%LPC*%
G36*
X709634Y392175D02*
X709634Y392175D01*
X706739Y393374D01*
X704524Y395589D01*
X703325Y398484D01*
X703325Y401616D01*
X704524Y404511D01*
X706739Y406726D01*
X709634Y407925D01*
X712766Y407925D01*
X715661Y406726D01*
X717876Y404511D01*
X719075Y401616D01*
X719075Y398484D01*
X717876Y395589D01*
X715661Y393374D01*
X712766Y392175D01*
X709634Y392175D01*
G37*
%LPD*%
%LPC*%
G36*
X684234Y392175D02*
X684234Y392175D01*
X681339Y393374D01*
X679124Y395589D01*
X677925Y398484D01*
X677925Y401616D01*
X679124Y404511D01*
X681339Y406726D01*
X684234Y407925D01*
X687366Y407925D01*
X690261Y406726D01*
X692476Y404511D01*
X693675Y401616D01*
X693675Y398484D01*
X692476Y395589D01*
X690261Y393374D01*
X687366Y392175D01*
X684234Y392175D01*
G37*
%LPD*%
%LPC*%
G36*
X836634Y392175D02*
X836634Y392175D01*
X833739Y393374D01*
X831524Y395589D01*
X830325Y398484D01*
X830325Y401616D01*
X831524Y404511D01*
X833739Y406726D01*
X836634Y407925D01*
X839766Y407925D01*
X842661Y406726D01*
X844876Y404511D01*
X846075Y401616D01*
X846075Y398484D01*
X844876Y395589D01*
X842661Y393374D01*
X839766Y392175D01*
X836634Y392175D01*
G37*
%LPD*%
%LPC*%
G36*
X811234Y392175D02*
X811234Y392175D01*
X808339Y393374D01*
X806124Y395589D01*
X804925Y398484D01*
X804925Y401616D01*
X806124Y404511D01*
X808339Y406726D01*
X811234Y407925D01*
X814366Y407925D01*
X817261Y406726D01*
X819476Y404511D01*
X820675Y401616D01*
X820675Y398484D01*
X819476Y395589D01*
X817261Y393374D01*
X814366Y392175D01*
X811234Y392175D01*
G37*
%LPD*%
%LPC*%
G36*
X785834Y392175D02*
X785834Y392175D01*
X782939Y393374D01*
X780724Y395589D01*
X779525Y398484D01*
X779525Y401616D01*
X780724Y404511D01*
X782939Y406726D01*
X785834Y407925D01*
X788966Y407925D01*
X791861Y406726D01*
X794076Y404511D01*
X795275Y401616D01*
X795275Y398484D01*
X794076Y395589D01*
X791861Y393374D01*
X788966Y392175D01*
X785834Y392175D01*
G37*
%LPD*%
%LPC*%
G36*
X760434Y392175D02*
X760434Y392175D01*
X757539Y393374D01*
X755324Y395589D01*
X754125Y398484D01*
X754125Y401616D01*
X755324Y404511D01*
X757539Y406726D01*
X760434Y407925D01*
X763566Y407925D01*
X766461Y406726D01*
X768676Y404511D01*
X769875Y401616D01*
X769875Y398484D01*
X768676Y395589D01*
X766461Y393374D01*
X763566Y392175D01*
X760434Y392175D01*
G37*
%LPD*%
%LPC*%
G36*
X735034Y392175D02*
X735034Y392175D01*
X732139Y393374D01*
X729924Y395589D01*
X728725Y398484D01*
X728725Y401616D01*
X729924Y404511D01*
X732139Y406726D01*
X735034Y407925D01*
X738166Y407925D01*
X741061Y406726D01*
X743276Y404511D01*
X744475Y401616D01*
X744475Y398484D01*
X743276Y395589D01*
X741061Y393374D01*
X738166Y392175D01*
X735034Y392175D01*
G37*
%LPD*%
%LPC*%
G36*
X658834Y392175D02*
X658834Y392175D01*
X655939Y393374D01*
X653724Y395589D01*
X652525Y398484D01*
X652525Y401616D01*
X653724Y404511D01*
X655939Y406726D01*
X658834Y407925D01*
X661966Y407925D01*
X664861Y406726D01*
X667076Y404511D01*
X668275Y401616D01*
X668275Y398484D01*
X667076Y395589D01*
X664861Y393374D01*
X661966Y392175D01*
X658834Y392175D01*
G37*
%LPD*%
%LPC*%
G36*
X633434Y392175D02*
X633434Y392175D01*
X630539Y393374D01*
X628324Y395589D01*
X627125Y398484D01*
X627125Y401616D01*
X628324Y404511D01*
X630539Y406726D01*
X633434Y407925D01*
X636566Y407925D01*
X639461Y406726D01*
X641676Y404511D01*
X642875Y401616D01*
X642875Y398484D01*
X641676Y395589D01*
X639461Y393374D01*
X636566Y392175D01*
X633434Y392175D01*
G37*
%LPD*%
%LPC*%
G36*
X366734Y392175D02*
X366734Y392175D01*
X363839Y393374D01*
X361624Y395589D01*
X360425Y398484D01*
X360425Y401616D01*
X361624Y404511D01*
X363839Y406726D01*
X366734Y407925D01*
X369866Y407925D01*
X372761Y406726D01*
X374976Y404511D01*
X376175Y401616D01*
X376175Y398484D01*
X374976Y395589D01*
X372761Y393374D01*
X369866Y392175D01*
X366734Y392175D01*
G37*
%LPD*%
%LPC*%
G36*
X341334Y392175D02*
X341334Y392175D01*
X338439Y393374D01*
X336224Y395589D01*
X335025Y398484D01*
X335025Y401616D01*
X336224Y404511D01*
X338439Y406726D01*
X341334Y407925D01*
X344466Y407925D01*
X347361Y406726D01*
X349576Y404511D01*
X350775Y401616D01*
X350775Y398484D01*
X349576Y395589D01*
X347361Y393374D01*
X344466Y392175D01*
X341334Y392175D01*
G37*
%LPD*%
%LPC*%
G36*
X315934Y392175D02*
X315934Y392175D01*
X313039Y393374D01*
X310824Y395589D01*
X309625Y398484D01*
X309625Y401616D01*
X310824Y404511D01*
X313039Y406726D01*
X315934Y407925D01*
X319066Y407925D01*
X321961Y406726D01*
X324176Y404511D01*
X325375Y401616D01*
X325375Y398484D01*
X324176Y395589D01*
X321961Y393374D01*
X319066Y392175D01*
X315934Y392175D01*
G37*
%LPD*%
%LPC*%
G36*
X290534Y392175D02*
X290534Y392175D01*
X287639Y393374D01*
X285424Y395589D01*
X284225Y398484D01*
X284225Y401616D01*
X285424Y404511D01*
X287639Y406726D01*
X290534Y407925D01*
X293666Y407925D01*
X296561Y406726D01*
X298776Y404511D01*
X299975Y401616D01*
X299975Y398484D01*
X298776Y395589D01*
X296561Y393374D01*
X293666Y392175D01*
X290534Y392175D01*
G37*
%LPD*%
%LPC*%
G36*
X265134Y392175D02*
X265134Y392175D01*
X262239Y393374D01*
X260024Y395589D01*
X258825Y398484D01*
X258825Y401616D01*
X260024Y404511D01*
X262239Y406726D01*
X265134Y407925D01*
X268266Y407925D01*
X271161Y406726D01*
X273376Y404511D01*
X274575Y401616D01*
X274575Y398484D01*
X273376Y395589D01*
X271161Y393374D01*
X268266Y392175D01*
X265134Y392175D01*
G37*
%LPD*%
%LPC*%
G36*
X239734Y392175D02*
X239734Y392175D01*
X236839Y393374D01*
X234624Y395589D01*
X233425Y398484D01*
X233425Y401616D01*
X234624Y404511D01*
X236839Y406726D01*
X239734Y407925D01*
X242866Y407925D01*
X245761Y406726D01*
X247976Y404511D01*
X249175Y401616D01*
X249175Y398484D01*
X247976Y395589D01*
X245761Y393374D01*
X242866Y392175D01*
X239734Y392175D01*
G37*
%LPD*%
%LPC*%
G36*
X214334Y392175D02*
X214334Y392175D01*
X211439Y393374D01*
X209224Y395589D01*
X208025Y398484D01*
X208025Y401616D01*
X209224Y404511D01*
X211439Y406726D01*
X214334Y407925D01*
X217466Y407925D01*
X220361Y406726D01*
X222576Y404511D01*
X223775Y401616D01*
X223775Y398484D01*
X222576Y395589D01*
X220361Y393374D01*
X217466Y392175D01*
X214334Y392175D01*
G37*
%LPD*%
%LPC*%
G36*
X188934Y392175D02*
X188934Y392175D01*
X186039Y393374D01*
X183824Y395589D01*
X182625Y398484D01*
X182625Y401616D01*
X183824Y404511D01*
X186039Y406726D01*
X188934Y407925D01*
X192066Y407925D01*
X194961Y406726D01*
X197176Y404511D01*
X198375Y401616D01*
X198375Y398484D01*
X197176Y395589D01*
X194961Y393374D01*
X192066Y392175D01*
X188934Y392175D01*
G37*
%LPD*%
%LPC*%
G36*
X163534Y392175D02*
X163534Y392175D01*
X160639Y393374D01*
X158424Y395589D01*
X157225Y398484D01*
X157225Y401616D01*
X158424Y404511D01*
X160639Y406726D01*
X163534Y407925D01*
X166666Y407925D01*
X169561Y406726D01*
X171776Y404511D01*
X172975Y401616D01*
X172975Y398484D01*
X171776Y395589D01*
X169561Y393374D01*
X166666Y392175D01*
X163534Y392175D01*
G37*
%LPD*%
%LPC*%
G36*
X277834Y277875D02*
X277834Y277875D01*
X274939Y279074D01*
X272724Y281289D01*
X271525Y284184D01*
X271525Y287316D01*
X272724Y290211D01*
X274939Y292426D01*
X277834Y293625D01*
X280966Y293625D01*
X283861Y292426D01*
X286076Y290211D01*
X287275Y287316D01*
X287275Y284184D01*
X286076Y281289D01*
X283861Y279074D01*
X280966Y277875D01*
X277834Y277875D01*
G37*
%LPD*%
%LPC*%
G36*
X112734Y392175D02*
X112734Y392175D01*
X109839Y393374D01*
X107624Y395589D01*
X106425Y398484D01*
X106425Y401616D01*
X107624Y404511D01*
X109839Y406726D01*
X112734Y407925D01*
X115866Y407925D01*
X118761Y406726D01*
X120976Y404511D01*
X122175Y401616D01*
X122175Y398484D01*
X120976Y395589D01*
X118761Y393374D01*
X115866Y392175D01*
X112734Y392175D01*
G37*
%LPD*%
%LPC*%
G36*
X842984Y722375D02*
X842984Y722375D01*
X840089Y723574D01*
X837874Y725789D01*
X836675Y728684D01*
X836675Y731816D01*
X837874Y734711D01*
X840089Y736926D01*
X842984Y738125D01*
X846116Y738125D01*
X849011Y736926D01*
X851226Y734711D01*
X852425Y731816D01*
X852425Y728684D01*
X851226Y725789D01*
X849011Y723574D01*
X846116Y722375D01*
X842984Y722375D01*
G37*
%LPD*%
%LPC*%
G36*
X303234Y277875D02*
X303234Y277875D01*
X300339Y279074D01*
X298124Y281289D01*
X296925Y284184D01*
X296925Y287316D01*
X298124Y290211D01*
X300339Y292426D01*
X303234Y293625D01*
X306366Y293625D01*
X309261Y292426D01*
X311476Y290211D01*
X312675Y287316D01*
X312675Y284184D01*
X311476Y281289D01*
X309261Y279074D01*
X306366Y277875D01*
X303234Y277875D01*
G37*
%LPD*%
%LPC*%
G36*
X658834Y11175D02*
X658834Y11175D01*
X655939Y12374D01*
X653724Y14589D01*
X652525Y17484D01*
X652525Y20616D01*
X653724Y23511D01*
X655939Y25726D01*
X658834Y26925D01*
X661966Y26925D01*
X664861Y25726D01*
X667076Y23511D01*
X668275Y20616D01*
X668275Y17484D01*
X667076Y14589D01*
X664861Y12374D01*
X661966Y11175D01*
X658834Y11175D01*
G37*
%LPD*%
%LPC*%
G36*
X328634Y277875D02*
X328634Y277875D01*
X325739Y279074D01*
X323524Y281289D01*
X322325Y284184D01*
X322325Y287316D01*
X323524Y290211D01*
X325739Y292426D01*
X328634Y293625D01*
X331766Y293625D01*
X334661Y292426D01*
X336876Y290211D01*
X338075Y287316D01*
X338075Y284184D01*
X336876Y281289D01*
X334661Y279074D01*
X331766Y277875D01*
X328634Y277875D01*
G37*
%LPD*%
%LPC*%
G36*
X684234Y11175D02*
X684234Y11175D01*
X681339Y12374D01*
X679124Y14589D01*
X677925Y17484D01*
X677925Y20616D01*
X679124Y23511D01*
X681339Y25726D01*
X684234Y26925D01*
X687366Y26925D01*
X690261Y25726D01*
X692476Y23511D01*
X693675Y20616D01*
X693675Y17484D01*
X692476Y14589D01*
X690261Y12374D01*
X687366Y11175D01*
X684234Y11175D01*
G37*
%LPD*%
%LPC*%
G36*
X354034Y277875D02*
X354034Y277875D01*
X351139Y279074D01*
X348924Y281289D01*
X347725Y284184D01*
X347725Y287316D01*
X348924Y290211D01*
X351139Y292426D01*
X354034Y293625D01*
X357166Y293625D01*
X360061Y292426D01*
X362276Y290211D01*
X363475Y287316D01*
X363475Y284184D01*
X362276Y281289D01*
X360061Y279074D01*
X357166Y277875D01*
X354034Y277875D01*
G37*
%LPD*%
%LPC*%
G36*
X379434Y277875D02*
X379434Y277875D01*
X376539Y279074D01*
X374324Y281289D01*
X373125Y284184D01*
X373125Y287316D01*
X374324Y290211D01*
X376539Y292426D01*
X379434Y293625D01*
X382566Y293625D01*
X385461Y292426D01*
X387676Y290211D01*
X388875Y287316D01*
X388875Y284184D01*
X387676Y281289D01*
X385461Y279074D01*
X382566Y277875D01*
X379434Y277875D01*
G37*
%LPD*%
%LPC*%
G36*
X404834Y277875D02*
X404834Y277875D01*
X401939Y279074D01*
X399724Y281289D01*
X398525Y284184D01*
X398525Y287316D01*
X399724Y290211D01*
X401939Y292426D01*
X404834Y293625D01*
X407966Y293625D01*
X410861Y292426D01*
X413076Y290211D01*
X414275Y287316D01*
X414275Y284184D01*
X413076Y281289D01*
X410861Y279074D01*
X407966Y277875D01*
X404834Y277875D01*
G37*
%LPD*%
%LPC*%
G36*
X430234Y277875D02*
X430234Y277875D01*
X427339Y279074D01*
X425124Y281289D01*
X423925Y284184D01*
X423925Y287316D01*
X425124Y290211D01*
X427339Y292426D01*
X430234Y293625D01*
X433366Y293625D01*
X436261Y292426D01*
X438476Y290211D01*
X439675Y287316D01*
X439675Y284184D01*
X438476Y281289D01*
X436261Y279074D01*
X433366Y277875D01*
X430234Y277875D01*
G37*
%LPD*%
%LPC*%
G36*
X455634Y277875D02*
X455634Y277875D01*
X452739Y279074D01*
X450524Y281289D01*
X449325Y284184D01*
X449325Y287316D01*
X450524Y290211D01*
X452739Y292426D01*
X455634Y293625D01*
X458766Y293625D01*
X461661Y292426D01*
X463876Y290211D01*
X465075Y287316D01*
X465075Y284184D01*
X463876Y281289D01*
X461661Y279074D01*
X458766Y277875D01*
X455634Y277875D01*
G37*
%LPD*%
%LPC*%
G36*
X315934Y366775D02*
X315934Y366775D01*
X313039Y367974D01*
X310824Y370189D01*
X309625Y373084D01*
X309625Y376216D01*
X310824Y379111D01*
X313039Y381326D01*
X315934Y382525D01*
X319066Y382525D01*
X321961Y381326D01*
X324176Y379111D01*
X325375Y376216D01*
X325375Y373084D01*
X324176Y370189D01*
X321961Y367974D01*
X319066Y366775D01*
X315934Y366775D01*
G37*
%LPD*%
%LPC*%
G36*
X290534Y366775D02*
X290534Y366775D01*
X287639Y367974D01*
X285424Y370189D01*
X284225Y373084D01*
X284225Y376216D01*
X285424Y379111D01*
X287639Y381326D01*
X290534Y382525D01*
X293666Y382525D01*
X296561Y381326D01*
X298776Y379111D01*
X299975Y376216D01*
X299975Y373084D01*
X298776Y370189D01*
X296561Y367974D01*
X293666Y366775D01*
X290534Y366775D01*
G37*
%LPD*%
%LPC*%
G36*
X265134Y366775D02*
X265134Y366775D01*
X262239Y367974D01*
X260024Y370189D01*
X258825Y373084D01*
X258825Y376216D01*
X260024Y379111D01*
X262239Y381326D01*
X265134Y382525D01*
X268266Y382525D01*
X271161Y381326D01*
X273376Y379111D01*
X274575Y376216D01*
X274575Y373084D01*
X273376Y370189D01*
X271161Y367974D01*
X268266Y366775D01*
X265134Y366775D01*
G37*
%LPD*%
%LPC*%
G36*
X214334Y366775D02*
X214334Y366775D01*
X211439Y367974D01*
X209224Y370189D01*
X208025Y373084D01*
X208025Y376216D01*
X209224Y379111D01*
X211439Y381326D01*
X214334Y382525D01*
X217466Y382525D01*
X220361Y381326D01*
X222576Y379111D01*
X223775Y376216D01*
X223775Y373084D01*
X222576Y370189D01*
X220361Y367974D01*
X217466Y366775D01*
X214334Y366775D01*
G37*
%LPD*%
%LPC*%
G36*
X188934Y366775D02*
X188934Y366775D01*
X186039Y367974D01*
X183824Y370189D01*
X182625Y373084D01*
X182625Y376216D01*
X183824Y379111D01*
X186039Y381326D01*
X188934Y382525D01*
X192066Y382525D01*
X194961Y381326D01*
X197176Y379111D01*
X198375Y376216D01*
X198375Y373084D01*
X197176Y370189D01*
X194961Y367974D01*
X192066Y366775D01*
X188934Y366775D01*
G37*
%LPD*%
%LPC*%
G36*
X163534Y366775D02*
X163534Y366775D01*
X160639Y367974D01*
X158424Y370189D01*
X157225Y373084D01*
X157225Y376216D01*
X158424Y379111D01*
X160639Y381326D01*
X163534Y382525D01*
X166666Y382525D01*
X169561Y381326D01*
X171776Y379111D01*
X172975Y376216D01*
X172975Y373084D01*
X171776Y370189D01*
X169561Y367974D01*
X166666Y366775D01*
X163534Y366775D01*
G37*
%LPD*%
%LPC*%
G36*
X138134Y366775D02*
X138134Y366775D01*
X135239Y367974D01*
X133024Y370189D01*
X131825Y373084D01*
X131825Y376216D01*
X133024Y379111D01*
X135239Y381326D01*
X138134Y382525D01*
X141266Y382525D01*
X144161Y381326D01*
X146376Y379111D01*
X147575Y376216D01*
X147575Y373084D01*
X146376Y370189D01*
X144161Y367974D01*
X141266Y366775D01*
X138134Y366775D01*
G37*
%LPD*%
%LPC*%
G36*
X481034Y277875D02*
X481034Y277875D01*
X478139Y279074D01*
X475924Y281289D01*
X474725Y284184D01*
X474725Y287316D01*
X475924Y290211D01*
X478139Y292426D01*
X481034Y293625D01*
X484166Y293625D01*
X487061Y292426D01*
X489276Y290211D01*
X490475Y287316D01*
X490475Y284184D01*
X489276Y281289D01*
X487061Y279074D01*
X484166Y277875D01*
X481034Y277875D01*
G37*
%LPD*%
%LPC*%
G36*
X531834Y277875D02*
X531834Y277875D01*
X528939Y279074D01*
X526724Y281289D01*
X525525Y284184D01*
X525525Y287316D01*
X526724Y290211D01*
X528939Y292426D01*
X531834Y293625D01*
X534966Y293625D01*
X537861Y292426D01*
X540076Y290211D01*
X541275Y287316D01*
X541275Y284184D01*
X540076Y281289D01*
X537861Y279074D01*
X534966Y277875D01*
X531834Y277875D01*
G37*
%LPD*%
%LPC*%
G36*
X557234Y277875D02*
X557234Y277875D01*
X554339Y279074D01*
X552124Y281289D01*
X550925Y284184D01*
X550925Y287316D01*
X552124Y290211D01*
X554339Y292426D01*
X557234Y293625D01*
X560366Y293625D01*
X563261Y292426D01*
X565476Y290211D01*
X566675Y287316D01*
X566675Y284184D01*
X565476Y281289D01*
X563261Y279074D01*
X560366Y277875D01*
X557234Y277875D01*
G37*
%LPD*%
%LPC*%
G36*
X582634Y277875D02*
X582634Y277875D01*
X579739Y279074D01*
X577524Y281289D01*
X576325Y284184D01*
X576325Y287316D01*
X577524Y290211D01*
X579739Y292426D01*
X582634Y293625D01*
X585766Y293625D01*
X588661Y292426D01*
X590876Y290211D01*
X592075Y287316D01*
X592075Y284184D01*
X590876Y281289D01*
X588661Y279074D01*
X585766Y277875D01*
X582634Y277875D01*
G37*
%LPD*%
%LPC*%
G36*
X608034Y277875D02*
X608034Y277875D01*
X605139Y279074D01*
X602924Y281289D01*
X601725Y284184D01*
X601725Y287316D01*
X602924Y290211D01*
X605139Y292426D01*
X608034Y293625D01*
X611166Y293625D01*
X614061Y292426D01*
X616276Y290211D01*
X617475Y287316D01*
X617475Y284184D01*
X616276Y281289D01*
X614061Y279074D01*
X611166Y277875D01*
X608034Y277875D01*
G37*
%LPD*%
%LPC*%
G36*
X811234Y360425D02*
X811234Y360425D01*
X808339Y361624D01*
X806124Y363839D01*
X804925Y366734D01*
X804925Y369866D01*
X806124Y372761D01*
X808339Y374976D01*
X811234Y376175D01*
X814366Y376175D01*
X817261Y374976D01*
X819476Y372761D01*
X820675Y369866D01*
X820675Y366734D01*
X819476Y363839D01*
X817261Y361624D01*
X814366Y360425D01*
X811234Y360425D01*
G37*
%LPD*%
%LPC*%
G36*
X709634Y11175D02*
X709634Y11175D01*
X706739Y12374D01*
X704524Y14589D01*
X703325Y17484D01*
X703325Y20616D01*
X704524Y23511D01*
X706739Y25726D01*
X709634Y26925D01*
X712766Y26925D01*
X715661Y25726D01*
X717876Y23511D01*
X719075Y20616D01*
X719075Y17484D01*
X717876Y14589D01*
X715661Y12374D01*
X712766Y11175D01*
X709634Y11175D01*
G37*
%LPD*%
%LPC*%
G36*
X633434Y277875D02*
X633434Y277875D01*
X630539Y279074D01*
X628324Y281289D01*
X627125Y284184D01*
X627125Y287316D01*
X628324Y290211D01*
X630539Y292426D01*
X633434Y293625D01*
X636566Y293625D01*
X639461Y292426D01*
X641676Y290211D01*
X642875Y287316D01*
X642875Y284184D01*
X641676Y281289D01*
X639461Y279074D01*
X636566Y277875D01*
X633434Y277875D01*
G37*
%LPD*%
%LPC*%
G36*
X735034Y11175D02*
X735034Y11175D01*
X732139Y12374D01*
X729924Y14589D01*
X728725Y17484D01*
X728725Y20616D01*
X729924Y23511D01*
X732139Y25726D01*
X735034Y26925D01*
X738166Y26925D01*
X741061Y25726D01*
X743276Y23511D01*
X744475Y20616D01*
X744475Y17484D01*
X743276Y14589D01*
X741061Y12374D01*
X738166Y11175D01*
X735034Y11175D01*
G37*
%LPD*%
%LPC*%
G36*
X49234Y277875D02*
X49234Y277875D01*
X46339Y279074D01*
X44124Y281289D01*
X42925Y284184D01*
X42925Y287316D01*
X44124Y290211D01*
X46339Y292426D01*
X49234Y293625D01*
X52366Y293625D01*
X55261Y292426D01*
X57476Y290211D01*
X58675Y287316D01*
X58675Y284184D01*
X57476Y281289D01*
X55261Y279074D01*
X52366Y277875D01*
X49234Y277875D01*
G37*
%LPD*%
%LPC*%
G36*
X760434Y11175D02*
X760434Y11175D01*
X757539Y12374D01*
X755324Y14589D01*
X754125Y17484D01*
X754125Y20616D01*
X755324Y23511D01*
X757539Y25726D01*
X760434Y26925D01*
X763566Y26925D01*
X766461Y25726D01*
X768676Y23511D01*
X769875Y20616D01*
X769875Y17484D01*
X768676Y14589D01*
X766461Y12374D01*
X763566Y11175D01*
X760434Y11175D01*
G37*
%LPD*%
%LPC*%
G36*
X74634Y277875D02*
X74634Y277875D01*
X71739Y279074D01*
X69524Y281289D01*
X68325Y284184D01*
X68325Y287316D01*
X69524Y290211D01*
X71739Y292426D01*
X74634Y293625D01*
X77766Y293625D01*
X80661Y292426D01*
X82876Y290211D01*
X84075Y287316D01*
X84075Y284184D01*
X82876Y281289D01*
X80661Y279074D01*
X77766Y277875D01*
X74634Y277875D01*
G37*
%LPD*%
%LPC*%
G36*
X785834Y11175D02*
X785834Y11175D01*
X782939Y12374D01*
X780724Y14589D01*
X779525Y17484D01*
X779525Y20616D01*
X780724Y23511D01*
X782939Y25726D01*
X785834Y26925D01*
X788966Y26925D01*
X791861Y25726D01*
X794076Y23511D01*
X795275Y20616D01*
X795275Y17484D01*
X794076Y14589D01*
X791861Y12374D01*
X788966Y11175D01*
X785834Y11175D01*
G37*
%LPD*%
%LPC*%
G36*
X709634Y277875D02*
X709634Y277875D01*
X706739Y279074D01*
X704524Y281289D01*
X703325Y284184D01*
X703325Y287316D01*
X704524Y290211D01*
X706739Y292426D01*
X709634Y293625D01*
X712766Y293625D01*
X715661Y292426D01*
X717876Y290211D01*
X719075Y287316D01*
X719075Y284184D01*
X717876Y281289D01*
X715661Y279074D01*
X712766Y277875D01*
X709634Y277875D01*
G37*
%LPD*%
%LPC*%
G36*
X735034Y277875D02*
X735034Y277875D01*
X732139Y279074D01*
X729924Y281289D01*
X728725Y284184D01*
X728725Y287316D01*
X729924Y290211D01*
X732139Y292426D01*
X735034Y293625D01*
X738166Y293625D01*
X741061Y292426D01*
X743276Y290211D01*
X744475Y287316D01*
X744475Y284184D01*
X743276Y281289D01*
X741061Y279074D01*
X738166Y277875D01*
X735034Y277875D01*
G37*
%LPD*%
%LPC*%
G36*
X811234Y11175D02*
X811234Y11175D01*
X808339Y12374D01*
X806124Y14589D01*
X804925Y17484D01*
X804925Y20616D01*
X806124Y23511D01*
X808339Y25726D01*
X811234Y26925D01*
X814366Y26925D01*
X817261Y25726D01*
X819476Y23511D01*
X820675Y20616D01*
X820675Y17484D01*
X819476Y14589D01*
X817261Y12374D01*
X814366Y11175D01*
X811234Y11175D01*
G37*
%LPD*%
%LPC*%
G36*
X760434Y277875D02*
X760434Y277875D01*
X757539Y279074D01*
X755324Y281289D01*
X754125Y284184D01*
X754125Y287316D01*
X755324Y290211D01*
X757539Y292426D01*
X760434Y293625D01*
X763566Y293625D01*
X766461Y292426D01*
X768676Y290211D01*
X769875Y287316D01*
X769875Y284184D01*
X768676Y281289D01*
X766461Y279074D01*
X763566Y277875D01*
X760434Y277875D01*
G37*
%LPD*%
%LPC*%
G36*
X785834Y277875D02*
X785834Y277875D01*
X782939Y279074D01*
X780724Y281289D01*
X779525Y284184D01*
X779525Y287316D01*
X780724Y290211D01*
X782939Y292426D01*
X785834Y293625D01*
X788966Y293625D01*
X791861Y292426D01*
X794076Y290211D01*
X795275Y287316D01*
X795275Y284184D01*
X794076Y281289D01*
X791861Y279074D01*
X788966Y277875D01*
X785834Y277875D01*
G37*
%LPD*%
%LPC*%
G36*
X811234Y277875D02*
X811234Y277875D01*
X808339Y279074D01*
X806124Y281289D01*
X804925Y284184D01*
X804925Y287316D01*
X806124Y290211D01*
X808339Y292426D01*
X811234Y293625D01*
X814366Y293625D01*
X817261Y292426D01*
X819476Y290211D01*
X820675Y287316D01*
X820675Y284184D01*
X819476Y281289D01*
X817261Y279074D01*
X814366Y277875D01*
X811234Y277875D01*
G37*
%LPD*%
%LPC*%
G36*
X836634Y277875D02*
X836634Y277875D01*
X833739Y279074D01*
X831524Y281289D01*
X830325Y284184D01*
X830325Y287316D01*
X831524Y290211D01*
X833739Y292426D01*
X836634Y293625D01*
X839766Y293625D01*
X842661Y292426D01*
X844876Y290211D01*
X846075Y287316D01*
X846075Y284184D01*
X844876Y281289D01*
X842661Y279074D01*
X839766Y277875D01*
X836634Y277875D01*
G37*
%LPD*%
%LPC*%
G36*
X658834Y277875D02*
X658834Y277875D01*
X655939Y279074D01*
X653724Y281289D01*
X652525Y284184D01*
X652525Y287316D01*
X653724Y290211D01*
X655939Y292426D01*
X658834Y293625D01*
X661966Y293625D01*
X664861Y292426D01*
X667076Y290211D01*
X668275Y287316D01*
X668275Y284184D01*
X667076Y281289D01*
X664861Y279074D01*
X661966Y277875D01*
X658834Y277875D01*
G37*
%LPD*%
%LPC*%
G36*
X836634Y11175D02*
X836634Y11175D01*
X833739Y12374D01*
X831524Y14589D01*
X830325Y17484D01*
X830325Y20616D01*
X831524Y23511D01*
X833739Y25726D01*
X836634Y26925D01*
X839766Y26925D01*
X842661Y25726D01*
X844876Y23511D01*
X846075Y20616D01*
X846075Y17484D01*
X844876Y14589D01*
X842661Y12374D01*
X839766Y11175D01*
X836634Y11175D01*
G37*
%LPD*%
%LPC*%
G36*
X500084Y741425D02*
X500084Y741425D01*
X497189Y742624D01*
X494974Y744839D01*
X493775Y747734D01*
X493775Y750866D01*
X494974Y753761D01*
X497189Y755976D01*
X500084Y757175D01*
X503216Y757175D01*
X506111Y755976D01*
X508326Y753761D01*
X509525Y750866D01*
X509525Y747734D01*
X508326Y744839D01*
X506111Y742624D01*
X503216Y741425D01*
X500084Y741425D01*
G37*
%LPD*%
%LPC*%
G36*
X684234Y277875D02*
X684234Y277875D01*
X681339Y279074D01*
X679124Y281289D01*
X677925Y284184D01*
X677925Y287316D01*
X679124Y290211D01*
X681339Y292426D01*
X684234Y293625D01*
X687366Y293625D01*
X690261Y292426D01*
X692476Y290211D01*
X693675Y287316D01*
X693675Y284184D01*
X692476Y281289D01*
X690261Y279074D01*
X687366Y277875D01*
X684234Y277875D01*
G37*
%LPD*%
%LPC*%
G36*
X715984Y754125D02*
X715984Y754125D01*
X713089Y755324D01*
X710874Y757539D01*
X709675Y760434D01*
X709675Y763566D01*
X710874Y766461D01*
X713089Y768676D01*
X715984Y769875D01*
X719116Y769875D01*
X722011Y768676D01*
X724226Y766461D01*
X725425Y763566D01*
X725425Y760434D01*
X724226Y757539D01*
X722011Y755324D01*
X719116Y754125D01*
X715984Y754125D01*
G37*
%LPD*%
%LPC*%
G36*
X74634Y11175D02*
X74634Y11175D01*
X71739Y12374D01*
X69524Y14589D01*
X68325Y17484D01*
X68325Y20616D01*
X69524Y23511D01*
X71739Y25726D01*
X74634Y26925D01*
X77766Y26925D01*
X80661Y25726D01*
X82876Y23511D01*
X84075Y20616D01*
X84075Y17484D01*
X82876Y14589D01*
X80661Y12374D01*
X77766Y11175D01*
X74634Y11175D01*
G37*
%LPD*%
%LPC*%
G36*
X481034Y11175D02*
X481034Y11175D01*
X478139Y12374D01*
X475924Y14589D01*
X474725Y17484D01*
X474725Y20616D01*
X475924Y23511D01*
X478139Y25726D01*
X481034Y26925D01*
X484166Y26925D01*
X487061Y25726D01*
X489276Y23511D01*
X490475Y20616D01*
X490475Y17484D01*
X489276Y14589D01*
X487061Y12374D01*
X484166Y11175D01*
X481034Y11175D01*
G37*
%LPD*%
%LPC*%
G36*
X139923Y67563D02*
X139923Y67563D01*
X137096Y70391D01*
X137096Y73470D01*
X137093Y73489D01*
X137095Y73509D01*
X137073Y73610D01*
X137056Y73712D01*
X137047Y73730D01*
X137042Y73749D01*
X136989Y73838D01*
X136941Y73930D01*
X136927Y73943D01*
X136916Y73960D01*
X136838Y74028D01*
X136763Y74099D01*
X136745Y74107D01*
X136729Y74120D01*
X136633Y74159D01*
X136540Y74203D01*
X136520Y74205D01*
X136501Y74212D01*
X136335Y74231D01*
X133256Y74231D01*
X130428Y77058D01*
X130428Y81057D01*
X133256Y83884D01*
X137254Y83884D01*
X140082Y81057D01*
X140082Y77978D01*
X140085Y77958D01*
X140083Y77939D01*
X140105Y77837D01*
X140121Y77735D01*
X140131Y77718D01*
X140135Y77698D01*
X140188Y77609D01*
X140237Y77518D01*
X140251Y77504D01*
X140261Y77487D01*
X140340Y77420D01*
X140415Y77348D01*
X140433Y77340D01*
X140448Y77327D01*
X140544Y77288D01*
X140638Y77245D01*
X140658Y77243D01*
X140676Y77235D01*
X140843Y77217D01*
X143922Y77217D01*
X146749Y74389D01*
X146749Y70391D01*
X143922Y67563D01*
X139923Y67563D01*
G37*
%LPD*%
%LPC*%
G36*
X103728Y644778D02*
X103728Y644778D01*
X100901Y647606D01*
X100901Y651604D01*
X103728Y654432D01*
X107727Y654432D01*
X110554Y651604D01*
X110554Y647606D01*
X107727Y644778D01*
X103728Y644778D01*
G37*
%LPD*%
%LPC*%
G36*
X776193Y515238D02*
X776193Y515238D01*
X773366Y518066D01*
X773366Y522064D01*
X776193Y524892D01*
X780192Y524892D01*
X783019Y522064D01*
X783019Y518066D01*
X780192Y515238D01*
X776193Y515238D01*
G37*
%LPD*%
%LPC*%
G36*
X850488Y311403D02*
X850488Y311403D01*
X847661Y314231D01*
X847661Y318229D01*
X850488Y321057D01*
X854487Y321057D01*
X857314Y318229D01*
X857314Y314231D01*
X854487Y311403D01*
X850488Y311403D01*
G37*
%LPD*%
%LPC*%
G36*
X473298Y320928D02*
X473298Y320928D01*
X470471Y323756D01*
X470471Y327754D01*
X473298Y330582D01*
X477297Y330582D01*
X480124Y327754D01*
X480124Y323756D01*
X477297Y320928D01*
X473298Y320928D01*
G37*
%LPD*%
%LPC*%
G36*
X474251Y633348D02*
X474251Y633348D01*
X471423Y636176D01*
X471423Y640174D01*
X474251Y643002D01*
X478249Y643002D01*
X481077Y640174D01*
X481077Y636176D01*
X478249Y633348D01*
X474251Y633348D01*
G37*
%LPD*%
%LPC*%
G36*
X693326Y658113D02*
X693326Y658113D01*
X690498Y660941D01*
X690498Y664939D01*
X693326Y667767D01*
X697324Y667767D01*
X700152Y664939D01*
X700152Y660941D01*
X697324Y658113D01*
X693326Y658113D01*
G37*
%LPD*%
%LPC*%
G36*
X442818Y620013D02*
X442818Y620013D01*
X439991Y622841D01*
X439991Y626839D01*
X442818Y629667D01*
X446817Y629667D01*
X449644Y626839D01*
X449644Y622841D01*
X446817Y620013D01*
X442818Y620013D01*
G37*
%LPD*%
%LPC*%
G36*
X801911Y320928D02*
X801911Y320928D01*
X799083Y323756D01*
X799083Y327754D01*
X801911Y330582D01*
X805909Y330582D01*
X808737Y327754D01*
X808737Y323756D01*
X805909Y320928D01*
X801911Y320928D01*
G37*
%LPD*%
%LPC*%
G36*
X415196Y304736D02*
X415196Y304736D01*
X412368Y307563D01*
X412368Y311562D01*
X415196Y314389D01*
X419194Y314389D01*
X422022Y311562D01*
X422022Y307563D01*
X419194Y304736D01*
X415196Y304736D01*
G37*
%LPD*%
%LPC*%
G36*
X497111Y298068D02*
X497111Y298068D01*
X494283Y300896D01*
X494283Y304894D01*
X497111Y307722D01*
X501109Y307722D01*
X503937Y304894D01*
X503937Y300896D01*
X501109Y298068D01*
X497111Y298068D01*
G37*
%LPD*%
%LPC*%
G36*
X274226Y298068D02*
X274226Y298068D01*
X271398Y300896D01*
X271398Y304894D01*
X274226Y307722D01*
X278224Y307722D01*
X281052Y304894D01*
X281052Y300896D01*
X278224Y298068D01*
X274226Y298068D01*
G37*
%LPD*%
%LPC*%
G36*
X172308Y298068D02*
X172308Y298068D01*
X169481Y300896D01*
X169481Y304894D01*
X172308Y307722D01*
X176307Y307722D01*
X179134Y304894D01*
X179134Y300896D01*
X176307Y298068D01*
X172308Y298068D01*
G37*
%LPD*%
%LPC*%
G36*
X721901Y296163D02*
X721901Y296163D01*
X719073Y298991D01*
X719073Y302989D01*
X721901Y305817D01*
X725899Y305817D01*
X728727Y302989D01*
X728727Y298991D01*
X725899Y296163D01*
X721901Y296163D01*
G37*
%LPD*%
%LPC*%
G36*
X943833Y757173D02*
X943833Y757173D01*
X941006Y760001D01*
X941006Y763999D01*
X943833Y766827D01*
X947832Y766827D01*
X950659Y763999D01*
X950659Y760001D01*
X947832Y757173D01*
X943833Y757173D01*
G37*
%LPD*%
%LPC*%
G36*
X843821Y327596D02*
X843821Y327596D01*
X840993Y330423D01*
X840993Y334422D01*
X843821Y337249D01*
X847819Y337249D01*
X850647Y334422D01*
X850647Y330423D01*
X847819Y327596D01*
X843821Y327596D01*
G37*
%LPD*%
%LPC*%
G36*
X820008Y668591D02*
X820008Y668591D01*
X817181Y671418D01*
X817181Y675417D01*
X820008Y678244D01*
X824007Y678244D01*
X826834Y675417D01*
X826834Y671418D01*
X824007Y668591D01*
X820008Y668591D01*
G37*
%LPD*%
%LPC*%
G36*
X649511Y587628D02*
X649511Y587628D01*
X646683Y590456D01*
X646683Y594454D01*
X649511Y597282D01*
X653509Y597282D01*
X656337Y594454D01*
X656337Y590456D01*
X653509Y587628D01*
X649511Y587628D01*
G37*
%LPD*%
%LPC*%
G36*
X41816Y328548D02*
X41816Y328548D01*
X38988Y331376D01*
X38988Y335374D01*
X41816Y338202D01*
X45814Y338202D01*
X48642Y335374D01*
X48642Y331376D01*
X45814Y328548D01*
X41816Y328548D01*
G37*
%LPD*%
%LPC*%
G36*
X715233Y334263D02*
X715233Y334263D01*
X712406Y337091D01*
X712406Y341089D01*
X715233Y343917D01*
X719232Y343917D01*
X722059Y341089D01*
X722059Y337091D01*
X719232Y334263D01*
X715233Y334263D01*
G37*
%LPD*%
%LPC*%
G36*
X699993Y338073D02*
X699993Y338073D01*
X697166Y340901D01*
X697166Y344899D01*
X699993Y347727D01*
X703992Y347727D01*
X706819Y344899D01*
X706819Y340901D01*
X703992Y338073D01*
X699993Y338073D01*
G37*
%LPD*%
%LPC*%
G36*
X674276Y343788D02*
X674276Y343788D01*
X671448Y346616D01*
X671448Y350614D01*
X674276Y353442D01*
X678274Y353442D01*
X681102Y350614D01*
X681102Y346616D01*
X678274Y343788D01*
X674276Y343788D01*
G37*
%LPD*%
%LPC*%
G36*
X318993Y347598D02*
X318993Y347598D01*
X316166Y350426D01*
X316166Y354424D01*
X318993Y357252D01*
X322992Y357252D01*
X325819Y354424D01*
X325819Y350426D01*
X322992Y347598D01*
X318993Y347598D01*
G37*
%LPD*%
%LPC*%
G36*
X810483Y683831D02*
X810483Y683831D01*
X807656Y686658D01*
X807656Y690657D01*
X810483Y693484D01*
X814482Y693484D01*
X817309Y690657D01*
X817309Y686658D01*
X814482Y683831D01*
X810483Y683831D01*
G37*
%LPD*%
%LPC*%
G36*
X369476Y354266D02*
X369476Y354266D01*
X366648Y357093D01*
X366648Y361092D01*
X369476Y363919D01*
X373474Y363919D01*
X376302Y361092D01*
X376302Y357093D01*
X373474Y354266D01*
X369476Y354266D01*
G37*
%LPD*%
%LPC*%
G36*
X836201Y354266D02*
X836201Y354266D01*
X833373Y357093D01*
X833373Y361092D01*
X836201Y363919D01*
X840199Y363919D01*
X843027Y361092D01*
X843027Y357093D01*
X840199Y354266D01*
X836201Y354266D01*
G37*
%LPD*%
%LPC*%
G36*
X433293Y566673D02*
X433293Y566673D01*
X430466Y569501D01*
X430466Y573499D01*
X433293Y576327D01*
X437292Y576327D01*
X440119Y573499D01*
X440119Y569501D01*
X437292Y566673D01*
X433293Y566673D01*
G37*
%LPD*%
%LPC*%
G36*
X421863Y360933D02*
X421863Y360933D01*
X419036Y363761D01*
X419036Y367759D01*
X421863Y370587D01*
X425862Y370587D01*
X428689Y367759D01*
X428689Y363761D01*
X425862Y360933D01*
X421863Y360933D01*
G37*
%LPD*%
%LPC*%
G36*
X398051Y549528D02*
X398051Y549528D01*
X395223Y552356D01*
X395223Y556354D01*
X398051Y559182D01*
X402049Y559182D01*
X404877Y556354D01*
X404877Y552356D01*
X402049Y549528D01*
X398051Y549528D01*
G37*
%LPD*%
%LPC*%
G36*
X626651Y546671D02*
X626651Y546671D01*
X623823Y549498D01*
X623823Y553497D01*
X626651Y556324D01*
X630649Y556324D01*
X633477Y553497D01*
X633477Y549498D01*
X630649Y546671D01*
X626651Y546671D01*
G37*
%LPD*%
%LPC*%
G36*
X641891Y538098D02*
X641891Y538098D01*
X639063Y540926D01*
X639063Y544924D01*
X641891Y547752D01*
X645889Y547752D01*
X648717Y544924D01*
X648717Y540926D01*
X645889Y538098D01*
X641891Y538098D01*
G37*
%LPD*%
%LPC*%
G36*
X795243Y370458D02*
X795243Y370458D01*
X792416Y373286D01*
X792416Y377284D01*
X795243Y380112D01*
X799242Y380112D01*
X802069Y377284D01*
X802069Y373286D01*
X799242Y370458D01*
X795243Y370458D01*
G37*
%LPD*%
%LPC*%
G36*
X108491Y67563D02*
X108491Y67563D01*
X105663Y70391D01*
X105663Y74389D01*
X108491Y77217D01*
X112489Y77217D01*
X115317Y74389D01*
X115317Y70391D01*
X112489Y67563D01*
X108491Y67563D01*
G37*
%LPD*%
%LPC*%
G36*
X466631Y74231D02*
X466631Y74231D01*
X463803Y77058D01*
X463803Y81057D01*
X466631Y83884D01*
X470629Y83884D01*
X473457Y81057D01*
X473457Y77058D01*
X470629Y74231D01*
X466631Y74231D01*
G37*
%LPD*%
%LPC*%
G36*
X192311Y80898D02*
X192311Y80898D01*
X189483Y83726D01*
X189483Y87724D01*
X192311Y90552D01*
X196309Y90552D01*
X199137Y87724D01*
X199137Y83726D01*
X196309Y80898D01*
X192311Y80898D01*
G37*
%LPD*%
%LPC*%
G36*
X312326Y84708D02*
X312326Y84708D01*
X309498Y87536D01*
X309498Y91534D01*
X312326Y94362D01*
X316324Y94362D01*
X319152Y91534D01*
X319152Y87536D01*
X316324Y84708D01*
X312326Y84708D01*
G37*
%LPD*%
%LPC*%
G36*
X293276Y99948D02*
X293276Y99948D01*
X290448Y102776D01*
X290448Y106774D01*
X293276Y109602D01*
X297274Y109602D01*
X300102Y106774D01*
X300102Y102776D01*
X297274Y99948D01*
X293276Y99948D01*
G37*
%LPD*%
%LPC*%
G36*
X581883Y99948D02*
X581883Y99948D01*
X579056Y102776D01*
X579056Y106774D01*
X581883Y109602D01*
X585882Y109602D01*
X588709Y106774D01*
X588709Y102776D01*
X585882Y99948D01*
X581883Y99948D01*
G37*
%LPD*%
%LPC*%
G36*
X473298Y385698D02*
X473298Y385698D01*
X470471Y388526D01*
X470471Y392524D01*
X473298Y395352D01*
X477297Y395352D01*
X480124Y392524D01*
X480124Y388526D01*
X477297Y385698D01*
X473298Y385698D01*
G37*
%LPD*%
%LPC*%
G36*
X824771Y99948D02*
X824771Y99948D01*
X821943Y102776D01*
X821943Y106774D01*
X824771Y109602D01*
X828769Y109602D01*
X831597Y106774D01*
X831597Y102776D01*
X828769Y99948D01*
X824771Y99948D01*
G37*
%LPD*%
%LPC*%
G36*
X388526Y106616D02*
X388526Y106616D01*
X385698Y109443D01*
X385698Y113442D01*
X388526Y116269D01*
X392524Y116269D01*
X395352Y113442D01*
X395352Y109443D01*
X392524Y106616D01*
X388526Y106616D01*
G37*
%LPD*%
%LPC*%
G36*
X316136Y655256D02*
X316136Y655256D01*
X313308Y658083D01*
X313308Y662082D01*
X316136Y664909D01*
X320134Y664909D01*
X322962Y662082D01*
X322962Y658083D01*
X320134Y655256D01*
X316136Y655256D01*
G37*
%LPD*%
%LPC*%
G36*
X682848Y106616D02*
X682848Y106616D01*
X680021Y109443D01*
X680021Y113442D01*
X682848Y116269D01*
X686847Y116269D01*
X689674Y113442D01*
X689674Y109443D01*
X686847Y106616D01*
X682848Y106616D01*
G37*
%LPD*%
%LPC*%
G36*
X337091Y124713D02*
X337091Y124713D01*
X334263Y127541D01*
X334263Y131539D01*
X337091Y134367D01*
X341089Y134367D01*
X343917Y131539D01*
X343917Y127541D01*
X341089Y124713D01*
X337091Y124713D01*
G37*
%LPD*%
%LPC*%
G36*
X466631Y404748D02*
X466631Y404748D01*
X463803Y407576D01*
X463803Y411574D01*
X466631Y414402D01*
X470629Y414402D01*
X473457Y411574D01*
X473457Y407576D01*
X470629Y404748D01*
X466631Y404748D01*
G37*
%LPD*%
%LPC*%
G36*
X908591Y410463D02*
X908591Y410463D01*
X905763Y413291D01*
X905763Y417289D01*
X908591Y420117D01*
X912589Y420117D01*
X915417Y417289D01*
X915417Y413291D01*
X912589Y410463D01*
X908591Y410463D01*
G37*
%LPD*%
%LPC*%
G36*
X963836Y724788D02*
X963836Y724788D01*
X961008Y727616D01*
X961008Y731614D01*
X963836Y734442D01*
X967834Y734442D01*
X970662Y731614D01*
X970662Y727616D01*
X967834Y724788D01*
X963836Y724788D01*
G37*
%LPD*%
%LPC*%
G36*
X222791Y411416D02*
X222791Y411416D01*
X219963Y414243D01*
X219963Y418242D01*
X222791Y421069D01*
X226789Y421069D01*
X229617Y418242D01*
X229617Y414243D01*
X226789Y411416D01*
X222791Y411416D01*
G37*
%LPD*%
%LPC*%
G36*
X777146Y417131D02*
X777146Y417131D01*
X774318Y419958D01*
X774318Y423957D01*
X777146Y426784D01*
X781144Y426784D01*
X783972Y423957D01*
X783972Y419958D01*
X781144Y417131D01*
X777146Y417131D01*
G37*
%LPD*%
%LPC*%
G36*
X632366Y124713D02*
X632366Y124713D01*
X629538Y127541D01*
X629538Y131539D01*
X632366Y134367D01*
X636364Y134367D01*
X639192Y131539D01*
X639192Y127541D01*
X636364Y124713D01*
X632366Y124713D01*
G37*
%LPD*%
%LPC*%
G36*
X413291Y131381D02*
X413291Y131381D01*
X410463Y134208D01*
X410463Y138207D01*
X413291Y141034D01*
X417289Y141034D01*
X420117Y138207D01*
X420117Y134208D01*
X417289Y131381D01*
X413291Y131381D01*
G37*
%LPD*%
%LPC*%
G36*
X734283Y131381D02*
X734283Y131381D01*
X731456Y134208D01*
X731456Y138207D01*
X734283Y141034D01*
X738282Y141034D01*
X741109Y138207D01*
X741109Y134208D01*
X738282Y131381D01*
X734283Y131381D01*
G37*
%LPD*%
%LPC*%
G36*
X769526Y265683D02*
X769526Y265683D01*
X766698Y268511D01*
X766698Y272509D01*
X769526Y275337D01*
X773524Y275337D01*
X776352Y272509D01*
X776352Y268511D01*
X773524Y265683D01*
X769526Y265683D01*
G37*
%LPD*%
%LPC*%
G36*
X439008Y265683D02*
X439008Y265683D01*
X436181Y268511D01*
X436181Y272509D01*
X439008Y275337D01*
X443007Y275337D01*
X445834Y272509D01*
X445834Y268511D01*
X443007Y265683D01*
X439008Y265683D01*
G37*
%LPD*%
%LPC*%
G36*
X797148Y259016D02*
X797148Y259016D01*
X794321Y261843D01*
X794321Y265842D01*
X797148Y268669D01*
X801147Y268669D01*
X803974Y265842D01*
X803974Y261843D01*
X801147Y259016D01*
X797148Y259016D01*
G37*
%LPD*%
%LPC*%
G36*
X362808Y37083D02*
X362808Y37083D01*
X359981Y39911D01*
X359981Y43909D01*
X362808Y46737D01*
X366807Y46737D01*
X369634Y43909D01*
X369634Y39911D01*
X366807Y37083D01*
X362808Y37083D01*
G37*
%LPD*%
%LPC*%
G36*
X793338Y191388D02*
X793338Y191388D01*
X790511Y194216D01*
X790511Y198214D01*
X793338Y201042D01*
X797337Y201042D01*
X800164Y198214D01*
X800164Y194216D01*
X797337Y191388D01*
X793338Y191388D01*
G37*
%LPD*%
%LPC*%
G36*
X248508Y419988D02*
X248508Y419988D01*
X245681Y422816D01*
X245681Y426814D01*
X248508Y429642D01*
X252507Y429642D01*
X255334Y426814D01*
X255334Y422816D01*
X252507Y419988D01*
X248508Y419988D01*
G37*
%LPD*%
%LPC*%
G36*
X445676Y195198D02*
X445676Y195198D01*
X442848Y198026D01*
X442848Y202024D01*
X445676Y204852D01*
X449674Y204852D01*
X452502Y202024D01*
X452502Y198026D01*
X449674Y195198D01*
X445676Y195198D01*
G37*
%LPD*%
%LPC*%
G36*
X760001Y437133D02*
X760001Y437133D01*
X757173Y439961D01*
X757173Y443959D01*
X760001Y446787D01*
X763999Y446787D01*
X766827Y443959D01*
X766827Y439961D01*
X763999Y437133D01*
X760001Y437133D01*
G37*
%LPD*%
%LPC*%
G36*
X445676Y445706D02*
X445676Y445706D01*
X442848Y448533D01*
X442848Y452532D01*
X445676Y455359D01*
X449674Y455359D01*
X452502Y452532D01*
X452502Y448533D01*
X449674Y445706D01*
X445676Y445706D01*
G37*
%LPD*%
%LPC*%
G36*
X824771Y446658D02*
X824771Y446658D01*
X821943Y449486D01*
X821943Y453484D01*
X824771Y456312D01*
X828769Y456312D01*
X831597Y453484D01*
X831597Y449486D01*
X828769Y446658D01*
X824771Y446658D01*
G37*
%LPD*%
%LPC*%
G36*
X608553Y198056D02*
X608553Y198056D01*
X605726Y200883D01*
X605726Y204882D01*
X608553Y207709D01*
X612552Y207709D01*
X615379Y204882D01*
X615379Y200883D01*
X612552Y198056D01*
X608553Y198056D01*
G37*
%LPD*%
%LPC*%
G36*
X699993Y456183D02*
X699993Y456183D01*
X697166Y459011D01*
X697166Y463009D01*
X699993Y465837D01*
X703992Y465837D01*
X706819Y463009D01*
X706819Y459011D01*
X703992Y456183D01*
X699993Y456183D01*
G37*
%LPD*%
%LPC*%
G36*
X632366Y205676D02*
X632366Y205676D01*
X629538Y208503D01*
X629538Y212502D01*
X632366Y215329D01*
X636364Y215329D01*
X639192Y212502D01*
X639192Y208503D01*
X636364Y205676D01*
X632366Y205676D01*
G37*
%LPD*%
%LPC*%
G36*
X682848Y212343D02*
X682848Y212343D01*
X680021Y215171D01*
X680021Y219169D01*
X682848Y221997D01*
X686847Y221997D01*
X689674Y219169D01*
X689674Y215171D01*
X686847Y212343D01*
X682848Y212343D01*
G37*
%LPD*%
%LPC*%
G36*
X97061Y702881D02*
X97061Y702881D01*
X94233Y705708D01*
X94233Y709707D01*
X97061Y712534D01*
X101059Y712534D01*
X103887Y709707D01*
X103887Y705708D01*
X101059Y702881D01*
X97061Y702881D01*
G37*
%LPD*%
%LPC*%
G36*
X709518Y219011D02*
X709518Y219011D01*
X706691Y221838D01*
X706691Y225837D01*
X709518Y228664D01*
X713517Y228664D01*
X716344Y225837D01*
X716344Y221838D01*
X713517Y219011D01*
X709518Y219011D01*
G37*
%LPD*%
%LPC*%
G36*
X734283Y225678D02*
X734283Y225678D01*
X731456Y228506D01*
X731456Y232504D01*
X734283Y235332D01*
X738282Y235332D01*
X741109Y232504D01*
X741109Y228506D01*
X738282Y225678D01*
X734283Y225678D01*
G37*
%LPD*%
%LPC*%
G36*
X319946Y227583D02*
X319946Y227583D01*
X317118Y230411D01*
X317118Y234409D01*
X319946Y237237D01*
X323944Y237237D01*
X326772Y234409D01*
X326772Y230411D01*
X323944Y227583D01*
X319946Y227583D01*
G37*
%LPD*%
%LPC*%
G36*
X667608Y227583D02*
X667608Y227583D01*
X664781Y230411D01*
X664781Y234409D01*
X667608Y237237D01*
X671607Y237237D01*
X674434Y234409D01*
X674434Y230411D01*
X671607Y227583D01*
X667608Y227583D01*
G37*
%LPD*%
%LPC*%
G36*
X324708Y479043D02*
X324708Y479043D01*
X321881Y481871D01*
X321881Y485869D01*
X324708Y488697D01*
X328707Y488697D01*
X331534Y485869D01*
X331534Y481871D01*
X328707Y479043D01*
X324708Y479043D01*
G37*
%LPD*%
%LPC*%
G36*
X58008Y480948D02*
X58008Y480948D01*
X55181Y483776D01*
X55181Y487774D01*
X58008Y490602D01*
X62007Y490602D01*
X64834Y487774D01*
X64834Y483776D01*
X62007Y480948D01*
X58008Y480948D01*
G37*
%LPD*%
%LPC*%
G36*
X90393Y487616D02*
X90393Y487616D01*
X87566Y490443D01*
X87566Y494442D01*
X90393Y497269D01*
X94392Y497269D01*
X97219Y494442D01*
X97219Y490443D01*
X94392Y487616D01*
X90393Y487616D01*
G37*
%LPD*%
%LPC*%
G36*
X188501Y487616D02*
X188501Y487616D01*
X185673Y490443D01*
X185673Y494442D01*
X188501Y497269D01*
X192499Y497269D01*
X195327Y494442D01*
X195327Y490443D01*
X192499Y487616D01*
X188501Y487616D01*
G37*
%LPD*%
%LPC*%
G36*
X74201Y491426D02*
X74201Y491426D01*
X71373Y494253D01*
X71373Y498252D01*
X74201Y501079D01*
X78199Y501079D01*
X81027Y498252D01*
X81027Y494253D01*
X78199Y491426D01*
X74201Y491426D01*
G37*
%LPD*%
%LPC*%
G36*
X721901Y505713D02*
X721901Y505713D01*
X719073Y508541D01*
X719073Y512539D01*
X721901Y515367D01*
X725899Y515367D01*
X728727Y512539D01*
X728727Y508541D01*
X725899Y505713D01*
X721901Y505713D01*
G37*
%LPD*%
%LPC*%
G36*
X769526Y505713D02*
X769526Y505713D01*
X766698Y508541D01*
X766698Y512539D01*
X769526Y515367D01*
X773524Y515367D01*
X776352Y512539D01*
X776352Y508541D01*
X773524Y505713D01*
X769526Y505713D01*
G37*
%LPD*%
%LPC*%
G36*
X826676Y29463D02*
X826676Y29463D01*
X823848Y32291D01*
X823848Y36289D01*
X826676Y39117D01*
X830674Y39117D01*
X833502Y36289D01*
X833502Y32291D01*
X830674Y29463D01*
X826676Y29463D01*
G37*
%LPD*%
%LPC*%
G36*
X286608Y29463D02*
X286608Y29463D01*
X283781Y32291D01*
X283781Y36289D01*
X286608Y39117D01*
X290607Y39117D01*
X293434Y36289D01*
X293434Y32291D01*
X290607Y29463D01*
X286608Y29463D01*
G37*
%LPD*%
%LPC*%
G36*
X708566Y378078D02*
X708566Y378078D01*
X705738Y380906D01*
X705738Y384904D01*
X708566Y387732D01*
X712564Y387732D01*
X715392Y384904D01*
X715392Y380906D01*
X712564Y378078D01*
X708566Y378078D01*
G37*
%LPD*%
%LPC*%
G36*
X728568Y521906D02*
X728568Y521906D01*
X725741Y524733D01*
X725741Y528732D01*
X728568Y531559D01*
X732567Y531559D01*
X735394Y528732D01*
X735394Y524733D01*
X732567Y521906D01*
X728568Y521906D01*
G37*
%LPD*%
%LPC*%
G36*
X937673Y693173D02*
X937673Y693173D01*
X937673Y700820D01*
X938860Y700584D01*
X940551Y699883D01*
X942073Y698867D01*
X943367Y697573D01*
X944383Y696051D01*
X945084Y694360D01*
X945320Y693173D01*
X937673Y693173D01*
G37*
%LPD*%
%LPC*%
G36*
X937673Y473173D02*
X937673Y473173D01*
X937673Y480820D01*
X938860Y480584D01*
X940551Y479883D01*
X942073Y478867D01*
X943367Y477573D01*
X944383Y476051D01*
X945084Y474360D01*
X945320Y473173D01*
X937673Y473173D01*
G37*
%LPD*%
%LPC*%
G36*
X957673Y693173D02*
X957673Y693173D01*
X957673Y700820D01*
X958860Y700584D01*
X960551Y699883D01*
X962073Y698867D01*
X963367Y697573D01*
X964383Y696051D01*
X965084Y694360D01*
X965320Y693173D01*
X957673Y693173D01*
G37*
%LPD*%
%LPC*%
G36*
X937673Y470127D02*
X937673Y470127D01*
X945320Y470127D01*
X945084Y468940D01*
X944383Y467249D01*
X943367Y465727D01*
X942073Y464433D01*
X940551Y463417D01*
X938860Y462716D01*
X937673Y462480D01*
X937673Y470127D01*
G37*
%LPD*%
%LPC*%
G36*
X926980Y693173D02*
X926980Y693173D01*
X927216Y694360D01*
X927917Y696051D01*
X928933Y697573D01*
X930227Y698867D01*
X931749Y699883D01*
X933440Y700584D01*
X934627Y700820D01*
X934627Y693173D01*
X926980Y693173D01*
G37*
%LPD*%
%LPC*%
G36*
X957673Y690127D02*
X957673Y690127D01*
X965320Y690127D01*
X965084Y688940D01*
X964383Y687249D01*
X963367Y685727D01*
X962073Y684433D01*
X960551Y683417D01*
X958860Y682716D01*
X957673Y682480D01*
X957673Y690127D01*
G37*
%LPD*%
%LPC*%
G36*
X946980Y693173D02*
X946980Y693173D01*
X947216Y694360D01*
X947917Y696051D01*
X948933Y697573D01*
X950227Y698867D01*
X951749Y699883D01*
X953440Y700584D01*
X954627Y700820D01*
X954627Y693173D01*
X946980Y693173D01*
G37*
%LPD*%
%LPC*%
G36*
X926980Y473173D02*
X926980Y473173D01*
X927216Y474360D01*
X927917Y476051D01*
X928933Y477573D01*
X930227Y478867D01*
X931749Y479883D01*
X933440Y480584D01*
X934627Y480820D01*
X934627Y473173D01*
X926980Y473173D01*
G37*
%LPD*%
%LPC*%
G36*
X937673Y690127D02*
X937673Y690127D01*
X945320Y690127D01*
X945084Y688940D01*
X944383Y687249D01*
X943367Y685727D01*
X942073Y684433D01*
X940551Y683417D01*
X938860Y682716D01*
X937673Y682480D01*
X937673Y690127D01*
G37*
%LPD*%
%LPC*%
G36*
X953440Y682716D02*
X953440Y682716D01*
X951749Y683417D01*
X950227Y684433D01*
X948933Y685727D01*
X947917Y687249D01*
X947216Y688940D01*
X946980Y690127D01*
X954627Y690127D01*
X954627Y682480D01*
X953440Y682716D01*
G37*
%LPD*%
%LPC*%
G36*
X933440Y462716D02*
X933440Y462716D01*
X931749Y463417D01*
X930227Y464433D01*
X928933Y465727D01*
X927917Y467249D01*
X927216Y468940D01*
X926980Y470127D01*
X934627Y470127D01*
X934627Y462480D01*
X933440Y462716D01*
G37*
%LPD*%
%LPC*%
G36*
X933440Y682716D02*
X933440Y682716D01*
X931749Y683417D01*
X930227Y684433D01*
X928933Y685727D01*
X927917Y687249D01*
X927216Y688940D01*
X926980Y690127D01*
X934627Y690127D01*
X934627Y682480D01*
X933440Y682716D01*
G37*
%LPD*%
%LPC*%
G36*
X865123Y553973D02*
X865123Y553973D01*
X865123Y560953D01*
X866119Y560755D01*
X867691Y560104D01*
X869106Y559159D01*
X870309Y557956D01*
X871254Y556541D01*
X871905Y554969D01*
X872103Y553973D01*
X865123Y553973D01*
G37*
%LPD*%
%LPC*%
G36*
X249173Y674623D02*
X249173Y674623D01*
X249173Y681603D01*
X250169Y681405D01*
X251741Y680754D01*
X253156Y679809D01*
X254359Y678606D01*
X255304Y677191D01*
X255955Y675619D01*
X256153Y674623D01*
X249173Y674623D01*
G37*
%LPD*%
%LPC*%
G36*
X509523Y287273D02*
X509523Y287273D01*
X509523Y294253D01*
X510519Y294055D01*
X512091Y293404D01*
X513506Y292459D01*
X514709Y291256D01*
X515654Y289841D01*
X516305Y288269D01*
X516503Y287273D01*
X509523Y287273D01*
G37*
%LPD*%
%LPC*%
G36*
X268223Y630173D02*
X268223Y630173D01*
X268223Y637153D01*
X269219Y636955D01*
X270791Y636304D01*
X272206Y635359D01*
X273409Y634156D01*
X274354Y632741D01*
X275005Y631169D01*
X275203Y630173D01*
X268223Y630173D01*
G37*
%LPD*%
%LPC*%
G36*
X477773Y750823D02*
X477773Y750823D01*
X477773Y757803D01*
X478769Y757605D01*
X480341Y756954D01*
X481756Y756009D01*
X482959Y754806D01*
X483904Y753391D01*
X484555Y751819D01*
X484753Y750823D01*
X477773Y750823D01*
G37*
%LPD*%
%LPC*%
G36*
X446023Y534923D02*
X446023Y534923D01*
X446023Y541903D01*
X447019Y541705D01*
X448591Y541054D01*
X450006Y540109D01*
X451209Y538906D01*
X452154Y537491D01*
X452805Y535919D01*
X453003Y534923D01*
X446023Y534923D01*
G37*
%LPD*%
%LPC*%
G36*
X865123Y522223D02*
X865123Y522223D01*
X865123Y529203D01*
X866119Y529005D01*
X867691Y528354D01*
X869106Y527409D01*
X870309Y526206D01*
X871254Y524791D01*
X871905Y523219D01*
X872103Y522223D01*
X865123Y522223D01*
G37*
%LPD*%
%LPC*%
G36*
X509523Y192023D02*
X509523Y192023D01*
X509523Y199003D01*
X510519Y198805D01*
X512091Y198154D01*
X513506Y197209D01*
X514709Y196006D01*
X515654Y194591D01*
X516305Y193019D01*
X516503Y192023D01*
X509523Y192023D01*
G37*
%LPD*%
%LPC*%
G36*
X242823Y322198D02*
X242823Y322198D01*
X242823Y329178D01*
X243819Y328980D01*
X245391Y328329D01*
X246806Y327384D01*
X248009Y326181D01*
X248954Y324766D01*
X249605Y323194D01*
X249803Y322198D01*
X242823Y322198D01*
G37*
%LPD*%
%LPC*%
G36*
X865123Y369823D02*
X865123Y369823D01*
X865123Y376803D01*
X866119Y376605D01*
X867691Y375954D01*
X869106Y375009D01*
X870309Y373806D01*
X871254Y372391D01*
X871905Y370819D01*
X872103Y369823D01*
X865123Y369823D01*
G37*
%LPD*%
%LPC*%
G36*
X509523Y249173D02*
X509523Y249173D01*
X509523Y256153D01*
X510519Y255955D01*
X512091Y255304D01*
X513506Y254359D01*
X514709Y253156D01*
X515654Y251741D01*
X516305Y250169D01*
X516503Y249173D01*
X509523Y249173D01*
G37*
%LPD*%
%LPC*%
G36*
X458723Y96773D02*
X458723Y96773D01*
X458723Y103753D01*
X459719Y103555D01*
X461291Y102904D01*
X462706Y101959D01*
X463909Y100756D01*
X464854Y99341D01*
X465505Y97769D01*
X465703Y96773D01*
X458723Y96773D01*
G37*
%LPD*%
%LPC*%
G36*
X458723Y58673D02*
X458723Y58673D01*
X458723Y65653D01*
X459719Y65455D01*
X461291Y64804D01*
X462706Y63859D01*
X463909Y62656D01*
X464854Y61241D01*
X465505Y59669D01*
X465703Y58673D01*
X458723Y58673D01*
G37*
%LPD*%
%LPC*%
G36*
X566673Y731773D02*
X566673Y731773D01*
X566673Y738753D01*
X567669Y738555D01*
X569241Y737904D01*
X570656Y736959D01*
X571859Y735756D01*
X572804Y734341D01*
X573455Y732769D01*
X573653Y731773D01*
X566673Y731773D01*
G37*
%LPD*%
%LPC*%
G36*
X458723Y20573D02*
X458723Y20573D01*
X458723Y27553D01*
X459719Y27355D01*
X461291Y26704D01*
X462706Y25759D01*
X463909Y24556D01*
X464854Y23141D01*
X465505Y21569D01*
X465703Y20573D01*
X458723Y20573D01*
G37*
%LPD*%
%LPC*%
G36*
X719073Y731773D02*
X719073Y731773D01*
X719073Y738753D01*
X720069Y738555D01*
X721641Y737904D01*
X723056Y736959D01*
X724259Y735756D01*
X725204Y734341D01*
X725855Y732769D01*
X726053Y731773D01*
X719073Y731773D01*
G37*
%LPD*%
%LPC*%
G36*
X509523Y534923D02*
X509523Y534923D01*
X509523Y541903D01*
X510519Y541705D01*
X512091Y541054D01*
X513506Y540109D01*
X514709Y538906D01*
X515654Y537491D01*
X516305Y535919D01*
X516503Y534923D01*
X509523Y534923D01*
G37*
%LPD*%
%LPC*%
G36*
X242823Y376173D02*
X242823Y376173D01*
X242823Y383153D01*
X243819Y382955D01*
X245391Y382304D01*
X246806Y381359D01*
X248009Y380156D01*
X248954Y378741D01*
X249605Y377169D01*
X249803Y376173D01*
X242823Y376173D01*
G37*
%LPD*%
%LPC*%
G36*
X865123Y401573D02*
X865123Y401573D01*
X865123Y408553D01*
X866119Y408355D01*
X867691Y407704D01*
X869106Y406759D01*
X870309Y405556D01*
X871254Y404141D01*
X871905Y402569D01*
X872103Y401573D01*
X865123Y401573D01*
G37*
%LPD*%
%LPC*%
G36*
X477773Y534923D02*
X477773Y534923D01*
X477773Y541903D01*
X478769Y541705D01*
X480341Y541054D01*
X481756Y540109D01*
X482959Y538906D01*
X483904Y537491D01*
X484555Y535919D01*
X484753Y534923D01*
X477773Y534923D01*
G37*
%LPD*%
%LPC*%
G36*
X566673Y700023D02*
X566673Y700023D01*
X566673Y707003D01*
X567669Y706805D01*
X569241Y706154D01*
X570656Y705209D01*
X571859Y704006D01*
X572804Y702591D01*
X573455Y701019D01*
X573653Y700023D01*
X566673Y700023D01*
G37*
%LPD*%
%LPC*%
G36*
X865123Y550927D02*
X865123Y550927D01*
X872103Y550927D01*
X871905Y549931D01*
X871254Y548359D01*
X870309Y546944D01*
X869106Y545741D01*
X867691Y544796D01*
X866119Y544145D01*
X865123Y543947D01*
X865123Y550927D01*
G37*
%LPD*%
%LPC*%
G36*
X232797Y322198D02*
X232797Y322198D01*
X232995Y323194D01*
X233646Y324766D01*
X234591Y326181D01*
X235794Y327384D01*
X237209Y328329D01*
X238781Y328980D01*
X239777Y329178D01*
X239777Y322198D01*
X232797Y322198D01*
G37*
%LPD*%
%LPC*%
G36*
X448697Y96773D02*
X448697Y96773D01*
X448895Y97769D01*
X449546Y99341D01*
X450491Y100756D01*
X451694Y101959D01*
X453109Y102904D01*
X454681Y103555D01*
X455677Y103753D01*
X455677Y96773D01*
X448697Y96773D01*
G37*
%LPD*%
%LPC*%
G36*
X556647Y731773D02*
X556647Y731773D01*
X556845Y732769D01*
X557496Y734341D01*
X558441Y735756D01*
X559644Y736959D01*
X561059Y737904D01*
X562631Y738555D01*
X563627Y738753D01*
X563627Y731773D01*
X556647Y731773D01*
G37*
%LPD*%
%LPC*%
G36*
X865123Y398527D02*
X865123Y398527D01*
X872103Y398527D01*
X871905Y397531D01*
X871254Y395959D01*
X870309Y394544D01*
X869106Y393341D01*
X867691Y392396D01*
X866119Y391745D01*
X865123Y391547D01*
X865123Y398527D01*
G37*
%LPD*%
%LPC*%
G36*
X855097Y522223D02*
X855097Y522223D01*
X855295Y523219D01*
X855946Y524791D01*
X856891Y526206D01*
X858094Y527409D01*
X859509Y528354D01*
X861081Y529005D01*
X862077Y529203D01*
X862077Y522223D01*
X855097Y522223D01*
G37*
%LPD*%
%LPC*%
G36*
X458723Y93727D02*
X458723Y93727D01*
X465703Y93727D01*
X465505Y92731D01*
X464854Y91159D01*
X463909Y89744D01*
X462706Y88541D01*
X461291Y87596D01*
X459719Y86945D01*
X458723Y86747D01*
X458723Y93727D01*
G37*
%LPD*%
%LPC*%
G36*
X709047Y731773D02*
X709047Y731773D01*
X709245Y732769D01*
X709896Y734341D01*
X710841Y735756D01*
X712044Y736959D01*
X713459Y737904D01*
X715031Y738555D01*
X716027Y738753D01*
X716027Y731773D01*
X709047Y731773D01*
G37*
%LPD*%
%LPC*%
G36*
X855097Y401573D02*
X855097Y401573D01*
X855295Y402569D01*
X855946Y404141D01*
X856891Y405556D01*
X858094Y406759D01*
X859509Y407704D01*
X861081Y408355D01*
X862077Y408553D01*
X862077Y401573D01*
X855097Y401573D01*
G37*
%LPD*%
%LPC*%
G36*
X448697Y20573D02*
X448697Y20573D01*
X448895Y21569D01*
X449546Y23141D01*
X450491Y24556D01*
X451694Y25759D01*
X453109Y26704D01*
X454681Y27355D01*
X455677Y27553D01*
X455677Y20573D01*
X448697Y20573D01*
G37*
%LPD*%
%LPC*%
G36*
X509523Y284227D02*
X509523Y284227D01*
X516503Y284227D01*
X516305Y283231D01*
X515654Y281659D01*
X514709Y280244D01*
X513506Y279041D01*
X512091Y278096D01*
X510519Y277445D01*
X509523Y277247D01*
X509523Y284227D01*
G37*
%LPD*%
%LPC*%
G36*
X435997Y534923D02*
X435997Y534923D01*
X436195Y535919D01*
X436846Y537491D01*
X437791Y538906D01*
X438994Y540109D01*
X440409Y541054D01*
X441981Y541705D01*
X442977Y541903D01*
X442977Y534923D01*
X435997Y534923D01*
G37*
%LPD*%
%LPC*%
G36*
X448697Y58673D02*
X448697Y58673D01*
X448895Y59669D01*
X449546Y61241D01*
X450491Y62656D01*
X451694Y63859D01*
X453109Y64804D01*
X454681Y65455D01*
X455677Y65653D01*
X455677Y58673D01*
X448697Y58673D01*
G37*
%LPD*%
%LPC*%
G36*
X458723Y55627D02*
X458723Y55627D01*
X465703Y55627D01*
X465505Y54631D01*
X464854Y53059D01*
X463909Y51644D01*
X462706Y50441D01*
X461291Y49496D01*
X459719Y48845D01*
X458723Y48647D01*
X458723Y55627D01*
G37*
%LPD*%
%LPC*%
G36*
X855097Y369823D02*
X855097Y369823D01*
X855295Y370819D01*
X855946Y372391D01*
X856891Y373806D01*
X858094Y375009D01*
X859509Y375954D01*
X861081Y376605D01*
X862077Y376803D01*
X862077Y369823D01*
X855097Y369823D01*
G37*
%LPD*%
%LPC*%
G36*
X232797Y376173D02*
X232797Y376173D01*
X232995Y377169D01*
X233646Y378741D01*
X234591Y380156D01*
X235794Y381359D01*
X237209Y382304D01*
X238781Y382955D01*
X239777Y383153D01*
X239777Y376173D01*
X232797Y376173D01*
G37*
%LPD*%
%LPC*%
G36*
X509523Y188977D02*
X509523Y188977D01*
X516503Y188977D01*
X516305Y187981D01*
X515654Y186409D01*
X514709Y184994D01*
X513506Y183791D01*
X512091Y182846D01*
X510519Y182195D01*
X509523Y181997D01*
X509523Y188977D01*
G37*
%LPD*%
%LPC*%
G36*
X467747Y534923D02*
X467747Y534923D01*
X467945Y535919D01*
X468596Y537491D01*
X469541Y538906D01*
X470744Y540109D01*
X472159Y541054D01*
X473731Y541705D01*
X474727Y541903D01*
X474727Y534923D01*
X467747Y534923D01*
G37*
%LPD*%
%LPC*%
G36*
X242823Y373127D02*
X242823Y373127D01*
X249803Y373127D01*
X249605Y372131D01*
X248954Y370559D01*
X248009Y369144D01*
X246806Y367941D01*
X245391Y366996D01*
X243819Y366345D01*
X242823Y366147D01*
X242823Y373127D01*
G37*
%LPD*%
%LPC*%
G36*
X499497Y192023D02*
X499497Y192023D01*
X499695Y193019D01*
X500346Y194591D01*
X501291Y196006D01*
X502494Y197209D01*
X503909Y198154D01*
X505481Y198805D01*
X506477Y199003D01*
X506477Y192023D01*
X499497Y192023D01*
G37*
%LPD*%
%LPC*%
G36*
X499497Y249173D02*
X499497Y249173D01*
X499695Y250169D01*
X500346Y251741D01*
X501291Y253156D01*
X502494Y254359D01*
X503909Y255304D01*
X505481Y255955D01*
X506477Y256153D01*
X506477Y249173D01*
X499497Y249173D01*
G37*
%LPD*%
%LPC*%
G36*
X855097Y553973D02*
X855097Y553973D01*
X855295Y554969D01*
X855946Y556541D01*
X856891Y557956D01*
X858094Y559159D01*
X859509Y560104D01*
X861081Y560755D01*
X862077Y560953D01*
X862077Y553973D01*
X855097Y553973D01*
G37*
%LPD*%
%LPC*%
G36*
X719073Y728727D02*
X719073Y728727D01*
X726053Y728727D01*
X725855Y727731D01*
X725204Y726159D01*
X724259Y724744D01*
X723056Y723541D01*
X721641Y722596D01*
X720069Y721945D01*
X719073Y721747D01*
X719073Y728727D01*
G37*
%LPD*%
%LPC*%
G36*
X566673Y696977D02*
X566673Y696977D01*
X573653Y696977D01*
X573455Y695981D01*
X572804Y694409D01*
X571859Y692994D01*
X570656Y691791D01*
X569241Y690846D01*
X567669Y690195D01*
X566673Y689997D01*
X566673Y696977D01*
G37*
%LPD*%
%LPC*%
G36*
X865123Y366777D02*
X865123Y366777D01*
X872103Y366777D01*
X871905Y365781D01*
X871254Y364209D01*
X870309Y362794D01*
X869106Y361591D01*
X867691Y360646D01*
X866119Y359995D01*
X865123Y359797D01*
X865123Y366777D01*
G37*
%LPD*%
%LPC*%
G36*
X477773Y747777D02*
X477773Y747777D01*
X484753Y747777D01*
X484555Y746781D01*
X483904Y745209D01*
X482959Y743794D01*
X481756Y742591D01*
X480341Y741646D01*
X478769Y740995D01*
X477773Y740797D01*
X477773Y747777D01*
G37*
%LPD*%
%LPC*%
G36*
X566673Y728727D02*
X566673Y728727D01*
X573653Y728727D01*
X573455Y727731D01*
X572804Y726159D01*
X571859Y724744D01*
X570656Y723541D01*
X569241Y722596D01*
X567669Y721945D01*
X566673Y721747D01*
X566673Y728727D01*
G37*
%LPD*%
%LPC*%
G36*
X499497Y534923D02*
X499497Y534923D01*
X499695Y535919D01*
X500346Y537491D01*
X501291Y538906D01*
X502494Y540109D01*
X503909Y541054D01*
X505481Y541705D01*
X506477Y541903D01*
X506477Y534923D01*
X499497Y534923D01*
G37*
%LPD*%
%LPC*%
G36*
X499497Y287273D02*
X499497Y287273D01*
X499695Y288269D01*
X500346Y289841D01*
X501291Y291256D01*
X502494Y292459D01*
X503909Y293404D01*
X505481Y294055D01*
X506477Y294253D01*
X506477Y287273D01*
X499497Y287273D01*
G37*
%LPD*%
%LPC*%
G36*
X446023Y531877D02*
X446023Y531877D01*
X453003Y531877D01*
X452805Y530881D01*
X452154Y529309D01*
X451209Y527894D01*
X450006Y526691D01*
X448591Y525746D01*
X447019Y525095D01*
X446023Y524897D01*
X446023Y531877D01*
G37*
%LPD*%
%LPC*%
G36*
X865123Y519177D02*
X865123Y519177D01*
X872103Y519177D01*
X871905Y518181D01*
X871254Y516609D01*
X870309Y515194D01*
X869106Y513991D01*
X867691Y513046D01*
X866119Y512395D01*
X865123Y512197D01*
X865123Y519177D01*
G37*
%LPD*%
%LPC*%
G36*
X509523Y246127D02*
X509523Y246127D01*
X516503Y246127D01*
X516305Y245131D01*
X515654Y243559D01*
X514709Y242144D01*
X513506Y240941D01*
X512091Y239996D01*
X510519Y239345D01*
X509523Y239147D01*
X509523Y246127D01*
G37*
%LPD*%
%LPC*%
G36*
X239147Y674623D02*
X239147Y674623D01*
X239345Y675619D01*
X239996Y677191D01*
X240941Y678606D01*
X242144Y679809D01*
X243559Y680754D01*
X245131Y681405D01*
X246127Y681603D01*
X246127Y674623D01*
X239147Y674623D01*
G37*
%LPD*%
%LPC*%
G36*
X509523Y531877D02*
X509523Y531877D01*
X516503Y531877D01*
X516305Y530881D01*
X515654Y529309D01*
X514709Y527894D01*
X513506Y526691D01*
X512091Y525746D01*
X510519Y525095D01*
X509523Y524897D01*
X509523Y531877D01*
G37*
%LPD*%
%LPC*%
G36*
X249173Y671577D02*
X249173Y671577D01*
X256153Y671577D01*
X255955Y670581D01*
X255304Y669009D01*
X254359Y667594D01*
X253156Y666391D01*
X251741Y665446D01*
X250169Y664795D01*
X249173Y664597D01*
X249173Y671577D01*
G37*
%LPD*%
%LPC*%
G36*
X268223Y627127D02*
X268223Y627127D01*
X275203Y627127D01*
X275005Y626131D01*
X274354Y624559D01*
X273409Y623144D01*
X272206Y621941D01*
X270791Y620996D01*
X269219Y620345D01*
X268223Y620147D01*
X268223Y627127D01*
G37*
%LPD*%
%LPC*%
G36*
X242823Y319152D02*
X242823Y319152D01*
X249803Y319152D01*
X249605Y318156D01*
X248954Y316584D01*
X248009Y315169D01*
X246806Y313966D01*
X245391Y313021D01*
X243819Y312370D01*
X242823Y312172D01*
X242823Y319152D01*
G37*
%LPD*%
%LPC*%
G36*
X458723Y17527D02*
X458723Y17527D01*
X465703Y17527D01*
X465505Y16531D01*
X464854Y14959D01*
X463909Y13544D01*
X462706Y12341D01*
X461291Y11396D01*
X459719Y10745D01*
X458723Y10547D01*
X458723Y17527D01*
G37*
%LPD*%
%LPC*%
G36*
X477773Y531877D02*
X477773Y531877D01*
X484753Y531877D01*
X484555Y530881D01*
X483904Y529309D01*
X482959Y527894D01*
X481756Y526691D01*
X480341Y525746D01*
X478769Y525095D01*
X477773Y524897D01*
X477773Y531877D01*
G37*
%LPD*%
%LPC*%
G36*
X258197Y630173D02*
X258197Y630173D01*
X258395Y631169D01*
X259046Y632741D01*
X259991Y634156D01*
X261194Y635359D01*
X262609Y636304D01*
X264181Y636955D01*
X265177Y637153D01*
X265177Y630173D01*
X258197Y630173D01*
G37*
%LPD*%
%LPC*%
G36*
X467747Y750823D02*
X467747Y750823D01*
X467945Y751819D01*
X468596Y753391D01*
X469541Y754806D01*
X470744Y756009D01*
X472159Y756954D01*
X473731Y757605D01*
X474727Y757803D01*
X474727Y750823D01*
X467747Y750823D01*
G37*
%LPD*%
%LPC*%
G36*
X556647Y700023D02*
X556647Y700023D01*
X556845Y701019D01*
X557496Y702591D01*
X558441Y704006D01*
X559644Y705209D01*
X561059Y706154D01*
X562631Y706805D01*
X563627Y707003D01*
X563627Y700023D01*
X556647Y700023D01*
G37*
%LPD*%
%LPC*%
G36*
X861081Y544145D02*
X861081Y544145D01*
X859509Y544796D01*
X858094Y545741D01*
X856891Y546944D01*
X855946Y548359D01*
X855295Y549931D01*
X855097Y550927D01*
X862077Y550927D01*
X862077Y543947D01*
X861081Y544145D01*
G37*
%LPD*%
%LPC*%
G36*
X454681Y86945D02*
X454681Y86945D01*
X453109Y87596D01*
X451694Y88541D01*
X450491Y89744D01*
X449546Y91159D01*
X448895Y92731D01*
X448697Y93727D01*
X455677Y93727D01*
X455677Y86747D01*
X454681Y86945D01*
G37*
%LPD*%
%LPC*%
G36*
X715031Y721945D02*
X715031Y721945D01*
X713459Y722596D01*
X712044Y723541D01*
X710841Y724744D01*
X709896Y726159D01*
X709245Y727731D01*
X709047Y728727D01*
X716027Y728727D01*
X716027Y721747D01*
X715031Y721945D01*
G37*
%LPD*%
%LPC*%
G36*
X245131Y664795D02*
X245131Y664795D01*
X243559Y665446D01*
X242144Y666391D01*
X240941Y667594D01*
X239996Y669009D01*
X239345Y670581D01*
X239147Y671577D01*
X246127Y671577D01*
X246127Y664597D01*
X245131Y664795D01*
G37*
%LPD*%
%LPC*%
G36*
X454681Y48845D02*
X454681Y48845D01*
X453109Y49496D01*
X451694Y50441D01*
X450491Y51644D01*
X449546Y53059D01*
X448895Y54631D01*
X448697Y55627D01*
X455677Y55627D01*
X455677Y48647D01*
X454681Y48845D01*
G37*
%LPD*%
%LPC*%
G36*
X505481Y182195D02*
X505481Y182195D01*
X503909Y182846D01*
X502494Y183791D01*
X501291Y184994D01*
X500346Y186409D01*
X499695Y187981D01*
X499497Y188977D01*
X506477Y188977D01*
X506477Y181997D01*
X505481Y182195D01*
G37*
%LPD*%
%LPC*%
G36*
X264181Y620345D02*
X264181Y620345D01*
X262609Y620996D01*
X261194Y621941D01*
X259991Y623144D01*
X259046Y624559D01*
X258395Y626131D01*
X258197Y627127D01*
X265177Y627127D01*
X265177Y620147D01*
X264181Y620345D01*
G37*
%LPD*%
%LPC*%
G36*
X505481Y239345D02*
X505481Y239345D01*
X503909Y239996D01*
X502494Y240941D01*
X501291Y242144D01*
X500346Y243559D01*
X499695Y245131D01*
X499497Y246127D01*
X506477Y246127D01*
X506477Y239147D01*
X505481Y239345D01*
G37*
%LPD*%
%LPC*%
G36*
X562631Y690195D02*
X562631Y690195D01*
X561059Y690846D01*
X559644Y691791D01*
X558441Y692994D01*
X557496Y694409D01*
X556845Y695981D01*
X556647Y696977D01*
X563627Y696977D01*
X563627Y689997D01*
X562631Y690195D01*
G37*
%LPD*%
%LPC*%
G36*
X505481Y277445D02*
X505481Y277445D01*
X503909Y278096D01*
X502494Y279041D01*
X501291Y280244D01*
X500346Y281659D01*
X499695Y283231D01*
X499497Y284227D01*
X506477Y284227D01*
X506477Y277247D01*
X505481Y277445D01*
G37*
%LPD*%
%LPC*%
G36*
X505481Y525095D02*
X505481Y525095D01*
X503909Y525746D01*
X502494Y526691D01*
X501291Y527894D01*
X500346Y529309D01*
X499695Y530881D01*
X499497Y531877D01*
X506477Y531877D01*
X506477Y524897D01*
X505481Y525095D01*
G37*
%LPD*%
%LPC*%
G36*
X238781Y312370D02*
X238781Y312370D01*
X237209Y313021D01*
X235794Y313966D01*
X234591Y315169D01*
X233646Y316584D01*
X232995Y318156D01*
X232797Y319152D01*
X239777Y319152D01*
X239777Y312172D01*
X238781Y312370D01*
G37*
%LPD*%
%LPC*%
G36*
X473731Y525095D02*
X473731Y525095D01*
X472159Y525746D01*
X470744Y526691D01*
X469541Y527894D01*
X468596Y529309D01*
X467945Y530881D01*
X467747Y531877D01*
X474727Y531877D01*
X474727Y524897D01*
X473731Y525095D01*
G37*
%LPD*%
%LPC*%
G36*
X441981Y525095D02*
X441981Y525095D01*
X440409Y525746D01*
X438994Y526691D01*
X437791Y527894D01*
X436846Y529309D01*
X436195Y530881D01*
X435997Y531877D01*
X442977Y531877D01*
X442977Y524897D01*
X441981Y525095D01*
G37*
%LPD*%
%LPC*%
G36*
X473731Y740995D02*
X473731Y740995D01*
X472159Y741646D01*
X470744Y742591D01*
X469541Y743794D01*
X468596Y745209D01*
X467945Y746781D01*
X467747Y747777D01*
X474727Y747777D01*
X474727Y740797D01*
X473731Y740995D01*
G37*
%LPD*%
%LPC*%
G36*
X861081Y359995D02*
X861081Y359995D01*
X859509Y360646D01*
X858094Y361591D01*
X856891Y362794D01*
X855946Y364209D01*
X855295Y365781D01*
X855097Y366777D01*
X862077Y366777D01*
X862077Y359797D01*
X861081Y359995D01*
G37*
%LPD*%
%LPC*%
G36*
X861081Y512395D02*
X861081Y512395D01*
X859509Y513046D01*
X858094Y513991D01*
X856891Y515194D01*
X855946Y516609D01*
X855295Y518181D01*
X855097Y519177D01*
X862077Y519177D01*
X862077Y512197D01*
X861081Y512395D01*
G37*
%LPD*%
%LPC*%
G36*
X238781Y366345D02*
X238781Y366345D01*
X237209Y366996D01*
X235794Y367941D01*
X234591Y369144D01*
X233646Y370559D01*
X232995Y372131D01*
X232797Y373127D01*
X239777Y373127D01*
X239777Y366147D01*
X238781Y366345D01*
G37*
%LPD*%
%LPC*%
G36*
X562631Y721945D02*
X562631Y721945D01*
X561059Y722596D01*
X559644Y723541D01*
X558441Y724744D01*
X557496Y726159D01*
X556845Y727731D01*
X556647Y728727D01*
X563627Y728727D01*
X563627Y721747D01*
X562631Y721945D01*
G37*
%LPD*%
%LPC*%
G36*
X861081Y391745D02*
X861081Y391745D01*
X859509Y392396D01*
X858094Y393341D01*
X856891Y394544D01*
X855946Y395959D01*
X855295Y397531D01*
X855097Y398527D01*
X862077Y398527D01*
X862077Y391547D01*
X861081Y391745D01*
G37*
%LPD*%
%LPC*%
G36*
X454681Y10745D02*
X454681Y10745D01*
X453109Y11396D01*
X451694Y12341D01*
X450491Y13544D01*
X449546Y14959D01*
X448895Y16531D01*
X448697Y17527D01*
X455677Y17527D01*
X455677Y10547D01*
X454681Y10745D01*
G37*
%LPD*%
%LPC*%
G36*
X717549Y730249D02*
X717549Y730249D01*
X717549Y730251D01*
X717551Y730251D01*
X717551Y730249D01*
X717549Y730249D01*
G37*
%LPD*%
%LPC*%
G36*
X565149Y730249D02*
X565149Y730249D01*
X565149Y730251D01*
X565151Y730251D01*
X565151Y730249D01*
X565149Y730249D01*
G37*
%LPD*%
%LPC*%
G36*
X863599Y400049D02*
X863599Y400049D01*
X863599Y400051D01*
X863601Y400051D01*
X863601Y400049D01*
X863599Y400049D01*
G37*
%LPD*%
%LPC*%
G36*
X241299Y374649D02*
X241299Y374649D01*
X241299Y374651D01*
X241301Y374651D01*
X241301Y374649D01*
X241299Y374649D01*
G37*
%LPD*%
%LPC*%
G36*
X936149Y471649D02*
X936149Y471649D01*
X936149Y471651D01*
X936151Y471651D01*
X936151Y471649D01*
X936149Y471649D01*
G37*
%LPD*%
%LPC*%
G36*
X863599Y368299D02*
X863599Y368299D01*
X863599Y368301D01*
X863601Y368301D01*
X863601Y368299D01*
X863599Y368299D01*
G37*
%LPD*%
%LPC*%
G36*
X863599Y520699D02*
X863599Y520699D01*
X863599Y520701D01*
X863601Y520701D01*
X863601Y520699D01*
X863599Y520699D01*
G37*
%LPD*%
%LPC*%
G36*
X476249Y749299D02*
X476249Y749299D01*
X476249Y749301D01*
X476251Y749301D01*
X476251Y749299D01*
X476249Y749299D01*
G37*
%LPD*%
%LPC*%
G36*
X241299Y320674D02*
X241299Y320674D01*
X241299Y320676D01*
X241301Y320676D01*
X241301Y320674D01*
X241299Y320674D01*
G37*
%LPD*%
%LPC*%
G36*
X507999Y285749D02*
X507999Y285749D01*
X507999Y285751D01*
X508001Y285751D01*
X508001Y285749D01*
X507999Y285749D01*
G37*
%LPD*%
%LPC*%
G36*
X444499Y533399D02*
X444499Y533399D01*
X444499Y533401D01*
X444501Y533401D01*
X444501Y533399D01*
X444499Y533399D01*
G37*
%LPD*%
%LPC*%
G36*
X476249Y533399D02*
X476249Y533399D01*
X476249Y533401D01*
X476251Y533401D01*
X476251Y533399D01*
X476249Y533399D01*
G37*
%LPD*%
%LPC*%
G36*
X507999Y533399D02*
X507999Y533399D01*
X507999Y533401D01*
X508001Y533401D01*
X508001Y533399D01*
X507999Y533399D01*
G37*
%LPD*%
%LPC*%
G36*
X863599Y552449D02*
X863599Y552449D01*
X863599Y552451D01*
X863601Y552451D01*
X863601Y552449D01*
X863599Y552449D01*
G37*
%LPD*%
%LPC*%
G36*
X565149Y698499D02*
X565149Y698499D01*
X565149Y698501D01*
X565151Y698501D01*
X565151Y698499D01*
X565149Y698499D01*
G37*
%LPD*%
%LPC*%
G36*
X507999Y247649D02*
X507999Y247649D01*
X507999Y247651D01*
X508001Y247651D01*
X508001Y247649D01*
X507999Y247649D01*
G37*
%LPD*%
%LPC*%
G36*
X956149Y691649D02*
X956149Y691649D01*
X956149Y691651D01*
X956151Y691651D01*
X956151Y691649D01*
X956149Y691649D01*
G37*
%LPD*%
%LPC*%
G36*
X936149Y691649D02*
X936149Y691649D01*
X936149Y691651D01*
X936151Y691651D01*
X936151Y691649D01*
X936149Y691649D01*
G37*
%LPD*%
%LPC*%
G36*
X247649Y673099D02*
X247649Y673099D01*
X247649Y673101D01*
X247651Y673101D01*
X247651Y673099D01*
X247649Y673099D01*
G37*
%LPD*%
%LPC*%
G36*
X507999Y190499D02*
X507999Y190499D01*
X507999Y190501D01*
X508001Y190501D01*
X508001Y190499D01*
X507999Y190499D01*
G37*
%LPD*%
%LPC*%
G36*
X266699Y628649D02*
X266699Y628649D01*
X266699Y628651D01*
X266701Y628651D01*
X266701Y628649D01*
X266699Y628649D01*
G37*
%LPD*%
%LPC*%
G36*
X457199Y19049D02*
X457199Y19049D01*
X457199Y19051D01*
X457201Y19051D01*
X457201Y19049D01*
X457199Y19049D01*
G37*
%LPD*%
%LPC*%
G36*
X457199Y57149D02*
X457199Y57149D01*
X457199Y57151D01*
X457201Y57151D01*
X457201Y57149D01*
X457199Y57149D01*
G37*
%LPD*%
%LPC*%
G36*
X457199Y95249D02*
X457199Y95249D01*
X457199Y95251D01*
X457201Y95251D01*
X457201Y95249D01*
X457199Y95249D01*
G37*
%LPD*%
D10*
X0Y0D02*
X857300Y0D01*
X857300Y139750D01*
X987300Y269850D01*
X987300Y782850D01*
X473000Y782850D01*
X423800Y733650D01*
X0Y733650D01*
X0Y0D01*
X496100Y431800D02*
X496115Y433027D01*
X496160Y434253D01*
X496235Y435478D01*
X496341Y436701D01*
X496476Y437921D01*
X496641Y439137D01*
X496836Y440348D01*
X497061Y441555D01*
X497315Y442755D01*
X497598Y443949D01*
X497911Y445136D01*
X498253Y446314D01*
X498624Y447484D01*
X499023Y448644D01*
X499450Y449795D01*
X499906Y450934D01*
X500390Y452062D01*
X500901Y453178D01*
X501439Y454281D01*
X502004Y455370D01*
X502596Y456445D01*
X503214Y457505D01*
X503857Y458550D01*
X504527Y459579D01*
X505221Y460590D01*
X505940Y461585D01*
X506683Y462562D01*
X507449Y463520D01*
X508240Y464459D01*
X509052Y465378D01*
X509888Y466277D01*
X510745Y467155D01*
X511623Y468012D01*
X512522Y468848D01*
X513441Y469660D01*
X514380Y470451D01*
X515338Y471217D01*
X516315Y471960D01*
X517310Y472679D01*
X518321Y473373D01*
X519350Y474043D01*
X520395Y474686D01*
X521455Y475304D01*
X522530Y475896D01*
X523619Y476461D01*
X524722Y476999D01*
X525838Y477510D01*
X526966Y477994D01*
X528105Y478450D01*
X529256Y478877D01*
X530416Y479276D01*
X531586Y479647D01*
X532764Y479989D01*
X533951Y480302D01*
X535145Y480585D01*
X536345Y480839D01*
X537552Y481064D01*
X538763Y481259D01*
X539979Y481424D01*
X541199Y481559D01*
X542422Y481665D01*
X543647Y481740D01*
X544873Y481785D01*
X546100Y481800D01*
X547327Y481785D01*
X548553Y481740D01*
X549778Y481665D01*
X551001Y481559D01*
X552221Y481424D01*
X553437Y481259D01*
X554648Y481064D01*
X555855Y480839D01*
X557055Y480585D01*
X558249Y480302D01*
X559436Y479989D01*
X560614Y479647D01*
X561784Y479276D01*
X562944Y478877D01*
X564095Y478450D01*
X565234Y477994D01*
X566362Y477510D01*
X567478Y476999D01*
X568581Y476461D01*
X569670Y475896D01*
X570745Y475304D01*
X571805Y474686D01*
X572850Y474043D01*
X573879Y473373D01*
X574890Y472679D01*
X575885Y471960D01*
X576862Y471217D01*
X577820Y470451D01*
X578759Y469660D01*
X579678Y468848D01*
X580577Y468012D01*
X581455Y467155D01*
X582312Y466277D01*
X583148Y465378D01*
X583960Y464459D01*
X584751Y463520D01*
X585517Y462562D01*
X586260Y461585D01*
X586979Y460590D01*
X587673Y459579D01*
X588343Y458550D01*
X588986Y457505D01*
X589604Y456445D01*
X590196Y455370D01*
X590761Y454281D01*
X591299Y453178D01*
X591810Y452062D01*
X592294Y450934D01*
X592750Y449795D01*
X593177Y448644D01*
X593576Y447484D01*
X593947Y446314D01*
X594289Y445136D01*
X594602Y443949D01*
X594885Y442755D01*
X595139Y441555D01*
X595364Y440348D01*
X595559Y439137D01*
X595724Y437921D01*
X595859Y436701D01*
X595965Y435478D01*
X596040Y434253D01*
X596085Y433027D01*
X596100Y431800D01*
X596085Y430573D01*
X596040Y429347D01*
X595965Y428122D01*
X595859Y426899D01*
X595724Y425679D01*
X595559Y424463D01*
X595364Y423252D01*
X595139Y422045D01*
X594885Y420845D01*
X594602Y419651D01*
X594289Y418464D01*
X593947Y417286D01*
X593576Y416116D01*
X593177Y414956D01*
X592750Y413805D01*
X592294Y412666D01*
X591810Y411538D01*
X591299Y410422D01*
X590761Y409319D01*
X590196Y408230D01*
X589604Y407155D01*
X588986Y406095D01*
X588343Y405050D01*
X587673Y404021D01*
X586979Y403010D01*
X586260Y402015D01*
X585517Y401038D01*
X584751Y400080D01*
X583960Y399141D01*
X583148Y398222D01*
X582312Y397323D01*
X581455Y396445D01*
X580577Y395588D01*
X579678Y394752D01*
X578759Y393940D01*
X577820Y393149D01*
X576862Y392383D01*
X575885Y391640D01*
X574890Y390921D01*
X573879Y390227D01*
X572850Y389557D01*
X571805Y388914D01*
X570745Y388296D01*
X569670Y387704D01*
X568581Y387139D01*
X567478Y386601D01*
X566362Y386090D01*
X565234Y385606D01*
X564095Y385150D01*
X562944Y384723D01*
X561784Y384324D01*
X560614Y383953D01*
X559436Y383611D01*
X558249Y383298D01*
X557055Y383015D01*
X555855Y382761D01*
X554648Y382536D01*
X553437Y382341D01*
X552221Y382176D01*
X551001Y382041D01*
X549778Y381935D01*
X548553Y381860D01*
X547327Y381815D01*
X546100Y381800D01*
X544873Y381815D01*
X543647Y381860D01*
X542422Y381935D01*
X541199Y382041D01*
X539979Y382176D01*
X538763Y382341D01*
X537552Y382536D01*
X536345Y382761D01*
X535145Y383015D01*
X533951Y383298D01*
X532764Y383611D01*
X531586Y383953D01*
X530416Y384324D01*
X529256Y384723D01*
X528105Y385150D01*
X526966Y385606D01*
X525838Y386090D01*
X524722Y386601D01*
X523619Y387139D01*
X522530Y387704D01*
X521455Y388296D01*
X520395Y388914D01*
X519350Y389557D01*
X518321Y390227D01*
X517310Y390921D01*
X516315Y391640D01*
X515338Y392383D01*
X514380Y393149D01*
X513441Y393940D01*
X512522Y394752D01*
X511623Y395588D01*
X510745Y396445D01*
X509888Y397323D01*
X509052Y398222D01*
X508240Y399141D01*
X507449Y400080D01*
X506683Y401038D01*
X505940Y402015D01*
X505221Y403010D01*
X504527Y404021D01*
X503857Y405050D01*
X503214Y406095D01*
X502596Y407155D01*
X502004Y408230D01*
X501439Y409319D01*
X500901Y410422D01*
X500390Y411538D01*
X499906Y412666D01*
X499450Y413805D01*
X499023Y414956D01*
X498624Y416116D01*
X498253Y417286D01*
X497911Y418464D01*
X497598Y419651D01*
X497315Y420845D01*
X497061Y422045D01*
X496836Y423252D01*
X496641Y424463D01*
X496476Y425679D01*
X496341Y426899D01*
X496235Y428122D01*
X496160Y429347D01*
X496115Y430573D01*
X496100Y431800D01*
D11*
X241300Y374650D03*
X241300Y400050D03*
X266700Y374650D03*
X266700Y400050D03*
X292100Y374650D03*
X292100Y400050D03*
X317500Y374650D03*
X317500Y400050D03*
X342900Y374650D03*
X368300Y400050D03*
X342900Y400050D03*
X368300Y425450D03*
X342900Y425450D03*
X368300Y450850D03*
X342900Y450850D03*
X368300Y476250D03*
X342900Y476250D03*
X368300Y501650D03*
X342900Y501650D03*
X368300Y527050D03*
X342900Y527050D03*
X368300Y552450D03*
X342900Y552450D03*
X368300Y577850D03*
X342900Y577850D03*
X368300Y603250D03*
X342900Y628650D03*
X342900Y603250D03*
X317500Y628650D03*
X317500Y603250D03*
X292100Y628650D03*
X292100Y603250D03*
X266700Y628650D03*
X266700Y603250D03*
X241300Y628650D03*
X241300Y603250D03*
X215900Y628650D03*
X215900Y603250D03*
X190500Y628650D03*
X190500Y603250D03*
X165100Y628650D03*
X165100Y603250D03*
X139700Y628650D03*
X114300Y603250D03*
X139700Y603250D03*
X114300Y577850D03*
X139700Y577850D03*
X114300Y552450D03*
X139700Y552450D03*
X114300Y527050D03*
X139700Y527050D03*
X114300Y501650D03*
X139700Y501650D03*
X114300Y476250D03*
X139700Y476250D03*
X114300Y450850D03*
X139700Y450850D03*
X114300Y425450D03*
X139700Y425450D03*
X114300Y400050D03*
X139700Y374650D03*
X139700Y400050D03*
X165100Y374650D03*
X165100Y400050D03*
X190500Y374650D03*
X190500Y400050D03*
X215900Y374650D03*
X215900Y400050D03*
X863600Y628650D03*
X838200Y628650D03*
X711200Y628650D03*
X711200Y552450D03*
X812800Y628650D03*
X787400Y628650D03*
X736600Y628650D03*
X762000Y628650D03*
X736600Y552450D03*
X762000Y552450D03*
X787400Y552450D03*
X812800Y552450D03*
X838200Y552450D03*
X863600Y552450D03*
X863600Y476250D03*
X838200Y476250D03*
X711200Y476250D03*
X685800Y476250D03*
X812800Y476250D03*
X787400Y476250D03*
X736600Y476250D03*
X762000Y476250D03*
X660400Y476250D03*
X635000Y476250D03*
X635000Y400050D03*
X660400Y400050D03*
X685800Y400050D03*
X711200Y400050D03*
X736600Y400050D03*
X762000Y400050D03*
X787400Y400050D03*
X812800Y400050D03*
X838200Y400050D03*
X863600Y400050D03*
X838200Y285750D03*
X812800Y285750D03*
X787400Y285750D03*
X762000Y285750D03*
X736600Y285750D03*
X711200Y285750D03*
X685800Y285750D03*
X660400Y285750D03*
X635000Y285750D03*
X609600Y285750D03*
X584200Y285750D03*
X558800Y285750D03*
X533400Y285750D03*
X508000Y285750D03*
X482600Y285750D03*
X457200Y285750D03*
X431800Y285750D03*
X406400Y285750D03*
X381000Y285750D03*
X50800Y285750D03*
X50800Y57150D03*
X381000Y57150D03*
X406400Y57150D03*
X431800Y57150D03*
X457200Y57150D03*
X482600Y57150D03*
X508000Y57150D03*
X533400Y57150D03*
X558800Y57150D03*
X584200Y57150D03*
X609600Y57150D03*
X635000Y57150D03*
X660400Y57150D03*
X685800Y57150D03*
X711200Y57150D03*
X736600Y57150D03*
X762000Y57150D03*
X787400Y57150D03*
X812800Y57150D03*
X838200Y57150D03*
X355600Y285750D03*
X330200Y285750D03*
X304800Y285750D03*
X279400Y285750D03*
X254000Y285750D03*
X228600Y285750D03*
X203200Y285750D03*
X177800Y285750D03*
X152400Y285750D03*
X127000Y285750D03*
X101600Y285750D03*
X76200Y285750D03*
X355600Y57150D03*
X330200Y57150D03*
X304800Y57150D03*
X279400Y57150D03*
X254000Y57150D03*
X228600Y57150D03*
X203200Y57150D03*
X177800Y57150D03*
X152400Y57150D03*
X127000Y57150D03*
X101600Y57150D03*
X76200Y57150D03*
D12*
X25400Y647700D03*
X25400Y622300D03*
X25400Y596900D03*
X25400Y571500D03*
D13*
X956150Y291650D03*
X936150Y291650D03*
X956150Y311650D03*
X936150Y311650D03*
X956150Y331650D03*
X936150Y331650D03*
X956150Y351650D03*
X936150Y351650D03*
X956150Y371650D03*
X936150Y371650D03*
X956150Y391650D03*
X936150Y391650D03*
X956150Y411650D03*
X936150Y411650D03*
X956150Y431650D03*
X936150Y431650D03*
X956150Y451650D03*
X936150Y451650D03*
X956150Y471650D03*
X936150Y471650D03*
X956150Y491650D03*
X936150Y491650D03*
X956150Y511650D03*
X936150Y511650D03*
X956150Y531650D03*
X936150Y531650D03*
X956150Y551650D03*
X936150Y551650D03*
X956150Y571650D03*
X936150Y571650D03*
X956150Y591650D03*
X936150Y591650D03*
X956150Y611650D03*
X936150Y611650D03*
X956150Y631650D03*
X936150Y631650D03*
X956150Y651650D03*
X936150Y651650D03*
X956150Y671650D03*
X936150Y671650D03*
X956150Y691650D03*
X936150Y691650D03*
X956150Y711650D03*
X936150Y711650D03*
D11*
X838200Y247650D03*
X812800Y247650D03*
X787400Y247650D03*
X762000Y247650D03*
X736600Y247650D03*
X711200Y247650D03*
X685800Y247650D03*
X660400Y247650D03*
X635000Y247650D03*
X609600Y247650D03*
X584200Y247650D03*
X558800Y247650D03*
X533400Y247650D03*
X508000Y247650D03*
X482600Y247650D03*
X457200Y247650D03*
X431800Y247650D03*
X406400Y247650D03*
X381000Y247650D03*
X50800Y247650D03*
X50800Y19050D03*
X381000Y19050D03*
X406400Y19050D03*
X431800Y19050D03*
X457200Y19050D03*
X482600Y19050D03*
X508000Y19050D03*
X533400Y19050D03*
X558800Y19050D03*
X584200Y19050D03*
X609600Y19050D03*
X635000Y19050D03*
X660400Y19050D03*
X685800Y19050D03*
X711200Y19050D03*
X736600Y19050D03*
X762000Y19050D03*
X787400Y19050D03*
X812800Y19050D03*
X838200Y19050D03*
X355600Y247650D03*
X330200Y247650D03*
X304800Y247650D03*
X279400Y247650D03*
X254000Y247650D03*
X228600Y247650D03*
X203200Y247650D03*
X177800Y247650D03*
X152400Y247650D03*
X127000Y247650D03*
X101600Y247650D03*
X76200Y247650D03*
X355600Y19050D03*
X330200Y19050D03*
X304800Y19050D03*
X279400Y19050D03*
X254000Y19050D03*
X228600Y19050D03*
X203200Y19050D03*
X177800Y19050D03*
X152400Y19050D03*
X127000Y19050D03*
X101600Y19050D03*
X76200Y19050D03*
X444500Y660400D03*
X444500Y533400D03*
X508000Y660400D03*
X508000Y533400D03*
X692150Y698500D03*
X565150Y698500D03*
X692150Y730250D03*
X565150Y730250D03*
X844550Y762000D03*
X717550Y762000D03*
X717550Y730250D03*
X844550Y730250D03*
X844550Y698500D03*
X717550Y698500D03*
D12*
X609600Y577850D03*
X609600Y603250D03*
X609600Y628650D03*
D11*
X476250Y749300D03*
X501650Y749300D03*
X476250Y660400D03*
X476250Y533400D03*
D12*
X571500Y577850D03*
X571500Y603250D03*
X571500Y628650D03*
D11*
X508000Y190500D03*
X558800Y190500D03*
X457200Y95250D03*
X457200Y146050D03*
X247650Y673100D03*
X196850Y673100D03*
X241300Y320675D03*
X292100Y320675D03*
X863600Y520700D03*
X812800Y520700D03*
X863600Y368300D03*
X812800Y368300D03*
D14*
X482918Y583883D03*
X489585Y590550D03*
X400050Y554355D03*
X628650Y551498D03*
X730568Y526733D03*
X762000Y441960D03*
X778193Y520065D03*
X779145Y421958D03*
X723900Y510540D03*
X723900Y300990D03*
X924878Y502920D03*
X359093Y417195D03*
X838200Y359093D03*
X378143Y558165D03*
X965835Y541973D03*
X797243Y375285D03*
X799148Y263843D03*
X447675Y450533D03*
X447675Y200025D03*
X795338Y196215D03*
X468630Y409575D03*
X468630Y79058D03*
X771525Y270510D03*
X415290Y136208D03*
X736283Y136208D03*
X913448Y230505D03*
X736283Y230505D03*
X364808Y41910D03*
X906780Y223838D03*
X711518Y223838D03*
X390525Y111443D03*
X684848Y111443D03*
X900113Y217170D03*
X684848Y217170D03*
X676275Y348615D03*
X339090Y129540D03*
X634365Y129540D03*
X893445Y210503D03*
X634365Y210503D03*
X314325Y89535D03*
X885825Y202883D03*
X610553Y202883D03*
X295275Y104775D03*
X583883Y104775D03*
X826770Y451485D03*
X826770Y104775D03*
X174308Y302895D03*
X643890Y542925D03*
X710565Y382905D03*
X651510Y592455D03*
X417195Y309563D03*
X435293Y571500D03*
X441008Y270510D03*
X105728Y649605D03*
X76200Y496253D03*
X332423Y597218D03*
X331470Y553403D03*
X923925Y707708D03*
X99060Y707708D03*
X60008Y485775D03*
X92393Y492443D03*
X107633Y466725D03*
X110490Y72390D03*
X145733Y436245D03*
X224790Y416243D03*
X250508Y424815D03*
X141923Y72390D03*
X135255Y79058D03*
X320993Y352425D03*
X669608Y232410D03*
X321945Y232410D03*
X350520Y383858D03*
X326708Y483870D03*
X371475Y359093D03*
X717233Y339090D03*
X194310Y85725D03*
X190500Y492443D03*
X423863Y365760D03*
X701993Y461010D03*
X701993Y342900D03*
X475298Y390525D03*
X803910Y325755D03*
X475298Y325755D03*
X276225Y302895D03*
X499110Y302895D03*
X852488Y316230D03*
X288608Y34290D03*
X828675Y34290D03*
X910590Y415290D03*
X945833Y762000D03*
X695325Y662940D03*
X965835Y729615D03*
X771525Y510540D03*
X812483Y688658D03*
X822008Y673418D03*
X845820Y332423D03*
X43815Y333375D03*
X476250Y638175D03*
X476250Y577215D03*
X318135Y660083D03*
X444818Y624840D03*
M02*
